<ttFont>
<head>
    <!-- Most of this table will be recalculated by the compiler -->
    <tableVersion value="1.0"/>
    <fontRevision value="1.0"/>
    <checkSumAdjustment value="0x7fc05871"/>
    <magicNumber value="0x5f0f3cf5"/>
    <flags value="00000010 10001011"/>
    <unitsPerEm value="4096"/>
    <created value="Tue Feb 26 11:07:08 2019"/>
    <modified value="Tue Feb 26 11:07:30 2019"/>
    <xMin value="-512"/>
    <yMin value="0"/>
    <xMax value="4608"/>
    <yMax value="6656"/>
    <macStyle value="00000000 00000000"/>
    <lowestRecPPEM value="8"/>
    <fontDirectionHint value="0"/>
    <indexToLocFormat value="0"/>
    <glyphDataFormat value="0"/>
  </head>
    <TTGlyph name=".notdef" xMin="0" yMin="1536" xMax="2756" yMax="5120">
      <contour>
        <pt x="2687" y="1586" on="1"/>
        <pt x="1378" y="3308" on="1"/>
        <pt x="69" y="1586" on="1"/>
      </contour>
      <contour>
        <pt x="50" y="1605" on="1"/>
        <pt x="1359" y="3328" on="1"/>
        <pt x="50" y="5050" on="1"/>
        <pt x="50" y="1605" on="1"/>
      </contour>
      <contour>
        <pt x="2706" y="1605" on="1"/>
        <pt x="2706" y="5050" on="1"/>
        <pt x="1397" y="3328" on="1"/>
        <pt x="2706" y="1605" on="1"/>
      </contour>
      <contour>
        <pt x="1378" y="3347" on="1"/>
        <pt x="2687" y="5070" on="1"/>
        <pt x="69" y="5070" on="1"/>
        <pt x="1378" y="3347" on="1"/>
      </contour>
      <contour>
        <pt x="0" y="1536" on="1"/>
        <pt x="0" y="5120" on="1"/>
        <pt x="2756" y="5120" on="1"/>
        <pt x="2756" y="1536" on="1"/>
      </contour>
    </TTGlyph>
    <TTGlyph name="A" xMin="0" yMin="1536" xMax="2560" yMax="5120">
      <contour>
        <pt x="0" y="1536" on="1"/>
        <pt x="0" y="4608" on="1"/>
        <pt x="512" y="4608" on="1"/>
        <pt x="512" y="3072" on="1"/>
        <pt x="2048" y="3072" on="1"/>
        <pt x="2048" y="4608" on="1"/>
        <pt x="2560" y="4608" on="1"/>
        <pt x="2560" y="1536" on="1"/>
        <pt x="2048" y="1536" on="1"/>
        <pt x="2048" y="2560" on="1"/>
        <pt x="512" y="2560" on="1"/>
        <pt x="512" y="1536" on="1"/>
      </contour>
      <contour>
        <pt x="512" y="4608" on="1"/>
        <pt x="512" y="5120" on="1"/>
        <pt x="2048" y="5120" on="1"/>
        <pt x="2048" y="4608" on="1"/>
      </contour>
    </TTGlyph>
    <TTGlyph name="B" xMin="0" yMin="1536" xMax="2560" yMax="5120">
      <contour>
        <pt x="2048" y="2048" on="1"/>
        <pt x="2048" y="3072" on="1"/>
        <pt x="2560" y="3072" on="1"/>
        <pt x="2560" y="2048" on="1"/>
      </contour>
      <contour>
        <pt x="2048" y="3584" on="1"/>
        <pt x="2048" y="4608" on="1"/>
        <pt x="2560" y="4608" on="1"/>
        <pt x="2560" y="3584" on="1"/>
      </contour>
      <contour>
        <pt x="0" y="1536" on="1"/>
        <pt x="0" y="5120" on="1"/>
        <pt x="2048" y="5120" on="1"/>
        <pt x="2048" y="4608" on="1"/>
        <pt x="512" y="4608" on="1"/>
        <pt x="512" y="3584" on="1"/>
        <pt x="2048" y="3584" on="1"/>
        <pt x="2048" y="3072" on="1"/>
        <pt x="512" y="3072" on="1"/>
        <pt x="512" y="2048" on="1"/>
        <pt x="2048" y="2048" on="1"/>
        <pt x="2048" y="1536" on="1"/>
      </contour>
    </TTGlyph>
    <TTGlyph name="C" xMin="0" yMin="1536" xMax="2560" yMax="5120">
      <contour>
        <pt x="512" y="1536" on="1"/>
        <pt x="512" y="2048" on="1"/>
        <pt x="2048" y="2048" on="1"/>
        <pt x="2048" y="1536" on="1"/>
      </contour>
      <contour>
        <pt x="2048" y="2048" on="1"/>
        <pt x="2048" y="2560" on="1"/>
        <pt x="2560" y="2560" on="1"/>
        <pt x="2560" y="2048" on="1"/>
      </contour>
      <contour>
        <pt x="0" y="2048" on="1"/>
        <pt x="0" y="4608" on="1"/>
        <pt x="512" y="4608" on="1"/>
        <pt x="512" y="2048" on="1"/>
      </contour>
      <contour>
        <pt x="2048" y="4096" on="1"/>
        <pt x="2048" y="4608" on="1"/>
        <pt x="2560" y="4608" on="1"/>
        <pt x="2560" y="4096" on="1"/>
      </contour>
      <contour>
        <pt x="512" y="4608" on="1"/>
        <pt x="512" y="5120" on="1"/>
        <pt x="2048" y="5120" on="1"/>
        <pt x="2048" y="4608" on="1"/>
      </contour>
    </TTGlyph>
    <TTGlyph name="D" xMin="0" yMin="1536" xMax="2560" yMax="5120">
      <contour>
        <pt x="2048" y="2048" on="1"/>
        <pt x="2048" y="4608" on="1"/>
        <pt x="2560" y="4608" on="1"/>
        <pt x="2560" y="2048" on="1"/>
      </contour>
      <contour>
        <pt x="0" y="1536" on="1"/>
        <pt x="0" y="5120" on="1"/>
        <pt x="2048" y="5120" on="1"/>
        <pt x="2048" y="4608" on="1"/>
        <pt x="512" y="4608" on="1"/>
        <pt x="512" y="2048" on="1"/>
        <pt x="2048" y="2048" on="1"/>
        <pt x="2048" y="1536" on="1"/>
      </contour>
    </TTGlyph>
    <TTGlyph name="E" xMin="0" yMin="1536" xMax="2560" yMax="5120">
      <contour>
        <pt x="0" y="1536" on="1"/>
        <pt x="0" y="5120" on="1"/>
        <pt x="2560" y="5120" on="1"/>
        <pt x="2560" y="4608" on="1"/>
        <pt x="512" y="4608" on="1"/>
        <pt x="512" y="3584" on="1"/>
        <pt x="2048" y="3584" on="1"/>
        <pt x="2048" y="3072" on="1"/>
        <pt x="512" y="3072" on="1"/>
        <pt x="512" y="2048" on="1"/>
        <pt x="2560" y="2048" on="1"/>
        <pt x="2560" y="1536" on="1"/>
      </contour>
    </TTGlyph>
    <TTGlyph name="F" xMin="0" yMin="1536" xMax="2560" yMax="5120">
      <contour>
        <pt x="0" y="1536" on="1"/>
        <pt x="0" y="5120" on="1"/>
        <pt x="2560" y="5120" on="1"/>
        <pt x="2560" y="4608" on="1"/>
        <pt x="512" y="4608" on="1"/>
        <pt x="512" y="3584" on="1"/>
        <pt x="2048" y="3584" on="1"/>
        <pt x="2048" y="3072" on="1"/>
        <pt x="512" y="3072" on="1"/>
        <pt x="512" y="1536" on="1"/>
      </contour>
    </TTGlyph>
    <TTGlyph name="G" xMin="0" yMin="1536" xMax="2560" yMax="5120">
      <contour>
        <pt x="512" y="1536" on="1"/>
        <pt x="512" y="2048" on="1"/>
        <pt x="2048" y="2048" on="1"/>
        <pt x="2048" y="3072" on="1"/>
        <pt x="1024" y="3072" on="1"/>
        <pt x="1024" y="3584" on="1"/>
        <pt x="2560" y="3584" on="1"/>
        <pt x="2560" y="1536" on="1"/>
      </contour>
      <contour>
        <pt x="0" y="2048" on="1"/>
        <pt x="0" y="4608" on="1"/>
        <pt x="512" y="4608" on="1"/>
        <pt x="512" y="2048" on="1"/>
      </contour>
      <contour>
        <pt x="2048" y="4096" on="1"/>
        <pt x="2048" y="4608" on="1"/>
        <pt x="2560" y="4608" on="1"/>
        <pt x="2560" y="4096" on="1"/>
      </contour>
      <contour>
        <pt x="512" y="4608" on="1"/>
        <pt x="512" y="5120" on="1"/>
        <pt x="2048" y="5120" on="1"/>
        <pt x="2048" y="4608" on="1"/>
      </contour>
    </TTGlyph>
    <TTGlyph name="H" xMin="0" yMin="1536" xMax="2560" yMax="5120">
      <contour>
        <pt x="0" y="1536" on="1"/>
        <pt x="0" y="5120" on="1"/>
        <pt x="512" y="5120" on="1"/>
        <pt x="512" y="3584" on="1"/>
        <pt x="2048" y="3584" on="1"/>
        <pt x="2048" y="5120" on="1"/>
        <pt x="2560" y="5120" on="1"/>
        <pt x="2560" y="1536" on="1"/>
        <pt x="2048" y="1536" on="1"/>
        <pt x="2048" y="3072" on="1"/>
        <pt x="512" y="3072" on="1"/>
        <pt x="512" y="1536" on="1"/>
      </contour>
    </TTGlyph>
    <TTGlyph name="I" xMin="512" yMin="1536" xMax="2048" yMax="5120">
      <contour>
        <pt x="512" y="1536" on="1"/>
        <pt x="512" y="2048" on="1"/>
        <pt x="1024" y="2048" on="1"/>
        <pt x="1024" y="4608" on="1"/>
        <pt x="512" y="4608" on="1"/>
        <pt x="512" y="5120" on="1"/>
        <pt x="2048" y="5120" on="1"/>
        <pt x="2048" y="4608" on="1"/>
        <pt x="1536" y="4608" on="1"/>
        <pt x="1536" y="2048" on="1"/>
        <pt x="2048" y="2048" on="1"/>
        <pt x="2048" y="1536" on="1"/>
      </contour>
    </TTGlyph>
    <TTGlyph name="J" xMin="0" yMin="1536" xMax="2560" yMax="5120">
      <contour>
        <pt x="512" y="1536" on="1"/>
        <pt x="512" y="2048" on="1"/>
        <pt x="2048" y="2048" on="1"/>
        <pt x="2048" y="1536" on="1"/>
      </contour>
      <contour>
        <pt x="0" y="2048" on="1"/>
        <pt x="0" y="3072" on="1"/>
        <pt x="512" y="3072" on="1"/>
        <pt x="512" y="2048" on="1"/>
      </contour>
      <contour>
        <pt x="2048" y="2048" on="1"/>
        <pt x="2048" y="5120" on="1"/>
        <pt x="2560" y="5120" on="1"/>
        <pt x="2560" y="2048" on="1"/>
      </contour>
    </TTGlyph>
    <TTGlyph name="K" xMin="0" yMin="1536" xMax="2560" yMax="5120">
      <contour>
        <pt x="2048" y="1536" on="1"/>
        <pt x="2048" y="2048" on="1"/>
        <pt x="2560" y="2048" on="1"/>
        <pt x="2560" y="1536" on="1"/>
      </contour>
      <contour>
        <pt x="1536" y="2048" on="1"/>
        <pt x="1536" y="2560" on="1"/>
        <pt x="2048" y="2560" on="1"/>
        <pt x="2048" y="2048" on="1"/>
      </contour>
      <contour>
        <pt x="1024" y="2560" on="1"/>
        <pt x="1024" y="3072" on="1"/>
        <pt x="1536" y="3072" on="1"/>
        <pt x="1536" y="2560" on="1"/>
      </contour>
      <contour>
        <pt x="1024" y="3584" on="1"/>
        <pt x="1024" y="4096" on="1"/>
        <pt x="1536" y="4096" on="1"/>
        <pt x="1536" y="3584" on="1"/>
      </contour>
      <contour>
        <pt x="1536" y="4096" on="1"/>
        <pt x="1536" y="4608" on="1"/>
        <pt x="2048" y="4608" on="1"/>
        <pt x="2048" y="4096" on="1"/>
      </contour>
      <contour>
        <pt x="0" y="1536" on="1"/>
        <pt x="0" y="5120" on="1"/>
        <pt x="512" y="5120" on="1"/>
        <pt x="512" y="3584" on="1"/>
        <pt x="1024" y="3584" on="1"/>
        <pt x="1024" y="3072" on="1"/>
        <pt x="512" y="3072" on="1"/>
        <pt x="512" y="1536" on="1"/>
      </contour>
      <contour>
        <pt x="2048" y="4608" on="1"/>
        <pt x="2048" y="5120" on="1"/>
        <pt x="2560" y="5120" on="1"/>
        <pt x="2560" y="4608" on="1"/>
      </contour>
    </TTGlyph>
    <TTGlyph name="L" xMin="0" yMin="1536" xMax="2560" yMax="5120">
      <contour>
        <pt x="0" y="1536" on="1"/>
        <pt x="0" y="5120" on="1"/>
        <pt x="512" y="5120" on="1"/>
        <pt x="512" y="2048" on="1"/>
        <pt x="2560" y="2048" on="1"/>
        <pt x="2560" y="1536" on="1"/>
      </contour>
    </TTGlyph>
    <TTGlyph name="M" xMin="0" yMin="1536" xMax="2560" yMax="5120">
      <contour>
        <pt x="1024" y="3584" on="1"/>
        <pt x="1024" y="4096" on="1"/>
        <pt x="1536" y="4096" on="1"/>
        <pt x="1536" y="3584" on="1"/>
      </contour>
      <contour>
        <pt x="0" y="1536" on="1"/>
        <pt x="0" y="5120" on="1"/>
        <pt x="512" y="5120" on="1"/>
        <pt x="512" y="4608" on="1"/>
        <pt x="1024" y="4608" on="1"/>
        <pt x="1024" y="4096" on="1"/>
        <pt x="512" y="4096" on="1"/>
        <pt x="512" y="1536" on="1"/>
      </contour>
      <contour>
        <pt x="2048" y="1536" on="1"/>
        <pt x="2048" y="4096" on="1"/>
        <pt x="1536" y="4096" on="1"/>
        <pt x="1536" y="4608" on="1"/>
        <pt x="2048" y="4608" on="1"/>
        <pt x="2048" y="5120" on="1"/>
        <pt x="2560" y="5120" on="1"/>
        <pt x="2560" y="1536" on="1"/>
      </contour>
    </TTGlyph>
    <TTGlyph name="N" xMin="0" yMin="1536" xMax="2560" yMax="5120">
      <contour>
        <pt x="1024" y="3584" on="1"/>
        <pt x="1024" y="4096" on="1"/>
        <pt x="1536" y="4096" on="1"/>
        <pt x="1536" y="3584" on="1"/>
      </contour>
      <contour>
        <pt x="0" y="1536" on="1"/>
        <pt x="0" y="5120" on="1"/>
        <pt x="512" y="5120" on="1"/>
        <pt x="512" y="4608" on="1"/>
        <pt x="1024" y="4608" on="1"/>
        <pt x="1024" y="4096" on="1"/>
        <pt x="512" y="4096" on="1"/>
        <pt x="512" y="1536" on="1"/>
      </contour>
      <contour>
        <pt x="2048" y="1536" on="1"/>
        <pt x="2048" y="3072" on="1"/>
        <pt x="1536" y="3072" on="1"/>
        <pt x="1536" y="3584" on="1"/>
        <pt x="2048" y="3584" on="1"/>
        <pt x="2048" y="5120" on="1"/>
        <pt x="2560" y="5120" on="1"/>
        <pt x="2560" y="1536" on="1"/>
      </contour>
    </TTGlyph>
    <TTGlyph name="O" xMin="0" yMin="1536" xMax="2560" yMax="5120">
      <contour>
        <pt x="512" y="1536" on="1"/>
        <pt x="512" y="2048" on="1"/>
        <pt x="2048" y="2048" on="1"/>
        <pt x="2048" y="1536" on="1"/>
      </contour>
      <contour>
        <pt x="0" y="2048" on="1"/>
        <pt x="0" y="4608" on="1"/>
        <pt x="512" y="4608" on="1"/>
        <pt x="512" y="2048" on="1"/>
      </contour>
      <contour>
        <pt x="2048" y="2048" on="1"/>
        <pt x="2048" y="4608" on="1"/>
        <pt x="2560" y="4608" on="1"/>
        <pt x="2560" y="2048" on="1"/>
      </contour>
      <contour>
        <pt x="512" y="4608" on="1"/>
        <pt x="512" y="5120" on="1"/>
        <pt x="2048" y="5120" on="1"/>
        <pt x="2048" y="4608" on="1"/>
      </contour>
    </TTGlyph>
    <TTGlyph name="P" xMin="0" yMin="1536" xMax="2560" yMax="5120">
      <contour>
        <pt x="2048" y="3584" on="1"/>
        <pt x="2048" y="4608" on="1"/>
        <pt x="2560" y="4608" on="1"/>
        <pt x="2560" y="3584" on="1"/>
      </contour>
      <contour>
        <pt x="0" y="1536" on="1"/>
        <pt x="0" y="5120" on="1"/>
        <pt x="2048" y="5120" on="1"/>
        <pt x="2048" y="4608" on="1"/>
        <pt x="512" y="4608" on="1"/>
        <pt x="512" y="3584" on="1"/>
        <pt x="2048" y="3584" on="1"/>
        <pt x="2048" y="3072" on="1"/>
        <pt x="512" y="3072" on="1"/>
        <pt x="512" y="1536" on="1"/>
      </contour>
    </TTGlyph>
    <TTGlyph name="Q" xMin="0" yMin="1536" xMax="2560" yMax="5120">
      <contour>
        <pt x="512" y="1536" on="1"/>
        <pt x="512" y="2048" on="1"/>
        <pt x="1536" y="2048" on="1"/>
        <pt x="1536" y="1536" on="1"/>
      </contour>
      <contour>
        <pt x="2048" y="1536" on="1"/>
        <pt x="2048" y="2048" on="1"/>
        <pt x="2560" y="2048" on="1"/>
        <pt x="2560" y="1536" on="1"/>
      </contour>
      <contour>
        <pt x="1536" y="2048" on="1"/>
        <pt x="1536" y="2560" on="1"/>
        <pt x="2048" y="2560" on="1"/>
        <pt x="2048" y="2048" on="1"/>
      </contour>
      <contour>
        <pt x="1024" y="2560" on="1"/>
        <pt x="1024" y="3072" on="1"/>
        <pt x="1536" y="3072" on="1"/>
        <pt x="1536" y="2560" on="1"/>
      </contour>
      <contour>
        <pt x="0" y="2048" on="1"/>
        <pt x="0" y="4608" on="1"/>
        <pt x="512" y="4608" on="1"/>
        <pt x="512" y="2048" on="1"/>
      </contour>
      <contour>
        <pt x="2048" y="2560" on="1"/>
        <pt x="2048" y="4608" on="1"/>
        <pt x="2560" y="4608" on="1"/>
        <pt x="2560" y="2560" on="1"/>
      </contour>
      <contour>
        <pt x="512" y="4608" on="1"/>
        <pt x="512" y="5120" on="1"/>
        <pt x="2048" y="5120" on="1"/>
        <pt x="2048" y="4608" on="1"/>
      </contour>
    </TTGlyph>
    <TTGlyph name="R" xMin="0" yMin="1536" xMax="2560" yMax="5120">
      <contour>
        <pt x="2048" y="1536" on="1"/>
        <pt x="2048" y="2560" on="1"/>
        <pt x="2560" y="2560" on="1"/>
        <pt x="2560" y="1536" on="1"/>
      </contour>
      <contour>
        <pt x="2048" y="3584" on="1"/>
        <pt x="2048" y="4608" on="1"/>
        <pt x="2560" y="4608" on="1"/>
        <pt x="2560" y="3584" on="1"/>
      </contour>
      <contour>
        <pt x="0" y="1536" on="1"/>
        <pt x="0" y="5120" on="1"/>
        <pt x="2048" y="5120" on="1"/>
        <pt x="2048" y="4608" on="1"/>
        <pt x="512" y="4608" on="1"/>
        <pt x="512" y="3584" on="1"/>
        <pt x="2048" y="3584" on="1"/>
        <pt x="2048" y="2560" on="1"/>
        <pt x="1536" y="2560" on="1"/>
        <pt x="1536" y="3072" on="1"/>
        <pt x="512" y="3072" on="1"/>
        <pt x="512" y="1536" on="1"/>
      </contour>
    </TTGlyph>
    <TTGlyph name="S" xMin="0" yMin="1536" xMax="2560" yMax="5120">
      <contour>
        <pt x="512" y="1536" on="1"/>
        <pt x="512" y="2048" on="1"/>
        <pt x="2048" y="2048" on="1"/>
        <pt x="2048" y="1536" on="1"/>
      </contour>
      <contour>
        <pt x="0" y="2048" on="1"/>
        <pt x="0" y="2560" on="1"/>
        <pt x="512" y="2560" on="1"/>
        <pt x="512" y="2048" on="1"/>
      </contour>
      <contour>
        <pt x="2048" y="2048" on="1"/>
        <pt x="2048" y="3072" on="1"/>
        <pt x="2560" y="3072" on="1"/>
        <pt x="2560" y="2048" on="1"/>
      </contour>
      <contour>
        <pt x="512" y="3072" on="1"/>
        <pt x="512" y="3584" on="1"/>
        <pt x="2048" y="3584" on="1"/>
        <pt x="2048" y="3072" on="1"/>
      </contour>
      <contour>
        <pt x="0" y="3584" on="1"/>
        <pt x="0" y="4608" on="1"/>
        <pt x="512" y="4608" on="1"/>
        <pt x="512" y="3584" on="1"/>
      </contour>
      <contour>
        <pt x="2048" y="4096" on="1"/>
        <pt x="2048" y="4608" on="1"/>
        <pt x="2560" y="4608" on="1"/>
        <pt x="2560" y="4096" on="1"/>
      </contour>
      <contour>
        <pt x="512" y="4608" on="1"/>
        <pt x="512" y="5120" on="1"/>
        <pt x="2048" y="5120" on="1"/>
        <pt x="2048" y="4608" on="1"/>
      </contour>
    </TTGlyph>
    <TTGlyph name="T" xMin="0" yMin="1536" xMax="2560" yMax="5120">
      <contour>
        <pt x="1024" y="1536" on="1"/>
        <pt x="1024" y="4608" on="1"/>
        <pt x="0" y="4608" on="1"/>
        <pt x="0" y="5120" on="1"/>
        <pt x="2560" y="5120" on="1"/>
        <pt x="2560" y="4608" on="1"/>
        <pt x="1536" y="4608" on="1"/>
        <pt x="1536" y="1536" on="1"/>
      </contour>
    </TTGlyph>
    <TTGlyph name="U" xMin="0" yMin="1536" xMax="2560" yMax="5120">
      <contour>
        <pt x="512" y="1536" on="1"/>
        <pt x="512" y="2048" on="1"/>
        <pt x="2048" y="2048" on="1"/>
        <pt x="2048" y="1536" on="1"/>
      </contour>
      <contour>
        <pt x="0" y="2048" on="1"/>
        <pt x="0" y="5120" on="1"/>
        <pt x="512" y="5120" on="1"/>
        <pt x="512" y="2048" on="1"/>
      </contour>
      <contour>
        <pt x="2048" y="2048" on="1"/>
        <pt x="2048" y="5120" on="1"/>
        <pt x="2560" y="5120" on="1"/>
        <pt x="2560" y="2048" on="1"/>
      </contour>
    </TTGlyph>
    <TTGlyph name="V" xMin="0" yMin="1536" xMax="2560" yMax="5120">
      <contour>
        <pt x="1024" y="1536" on="1"/>
        <pt x="1024" y="2048" on="1"/>
        <pt x="1536" y="2048" on="1"/>
        <pt x="1536" y="1536" on="1"/>
      </contour>
      <contour>
        <pt x="512" y="2048" on="1"/>
        <pt x="512" y="2560" on="1"/>
        <pt x="1024" y="2560" on="1"/>
        <pt x="1024" y="2048" on="1"/>
      </contour>
      <contour>
        <pt x="1536" y="2048" on="1"/>
        <pt x="1536" y="2560" on="1"/>
        <pt x="2048" y="2560" on="1"/>
        <pt x="2048" y="2048" on="1"/>
      </contour>
      <contour>
        <pt x="0" y="2560" on="1"/>
        <pt x="0" y="5120" on="1"/>
        <pt x="512" y="5120" on="1"/>
        <pt x="512" y="2560" on="1"/>
      </contour>
      <contour>
        <pt x="2048" y="2560" on="1"/>
        <pt x="2048" y="5120" on="1"/>
        <pt x="2560" y="5120" on="1"/>
        <pt x="2560" y="2560" on="1"/>
      </contour>
    </TTGlyph>
    <TTGlyph name="W" xMin="0" yMin="1536" xMax="2560" yMax="5120">
      <contour>
        <pt x="512" y="1536" on="1"/>
        <pt x="512" y="2048" on="1"/>
        <pt x="1024" y="2048" on="1"/>
        <pt x="1024" y="1536" on="1"/>
      </contour>
      <contour>
        <pt x="1536" y="1536" on="1"/>
        <pt x="1536" y="2048" on="1"/>
        <pt x="2048" y="2048" on="1"/>
        <pt x="2048" y="1536" on="1"/>
      </contour>
      <contour>
        <pt x="1024" y="2048" on="1"/>
        <pt x="1024" y="4096" on="1"/>
        <pt x="1536" y="4096" on="1"/>
        <pt x="1536" y="2048" on="1"/>
      </contour>
      <contour>
        <pt x="0" y="2048" on="1"/>
        <pt x="0" y="5120" on="1"/>
        <pt x="512" y="5120" on="1"/>
        <pt x="512" y="2048" on="1"/>
      </contour>
      <contour>
        <pt x="2048" y="2048" on="1"/>
        <pt x="2048" y="5120" on="1"/>
        <pt x="2560" y="5120" on="1"/>
        <pt x="2560" y="2048" on="1"/>
      </contour>
    </TTGlyph>
    <TTGlyph name="X" xMin="0" yMin="1536" xMax="2560" yMax="5120">
      <contour>
        <pt x="0" y="1536" on="1"/>
        <pt x="0" y="2560" on="1"/>
        <pt x="512" y="2560" on="1"/>
        <pt x="512" y="1536" on="1"/>
      </contour>
      <contour>
        <pt x="2048" y="1536" on="1"/>
        <pt x="2048" y="2560" on="1"/>
        <pt x="2560" y="2560" on="1"/>
        <pt x="2560" y="1536" on="1"/>
      </contour>
      <contour>
        <pt x="512" y="2560" on="1"/>
        <pt x="512" y="3072" on="1"/>
        <pt x="1024" y="3072" on="1"/>
        <pt x="1024" y="2560" on="1"/>
      </contour>
      <contour>
        <pt x="1536" y="2560" on="1"/>
        <pt x="1536" y="3072" on="1"/>
        <pt x="2048" y="3072" on="1"/>
        <pt x="2048" y="2560" on="1"/>
      </contour>
      <contour>
        <pt x="1024" y="3072" on="1"/>
        <pt x="1024" y="3584" on="1"/>
        <pt x="1536" y="3584" on="1"/>
        <pt x="1536" y="3072" on="1"/>
      </contour>
      <contour>
        <pt x="512" y="3584" on="1"/>
        <pt x="512" y="4096" on="1"/>
        <pt x="1024" y="4096" on="1"/>
        <pt x="1024" y="3584" on="1"/>
      </contour>
      <contour>
        <pt x="1536" y="3584" on="1"/>
        <pt x="1536" y="4096" on="1"/>
        <pt x="2048" y="4096" on="1"/>
        <pt x="2048" y="3584" on="1"/>
      </contour>
      <contour>
        <pt x="0" y="4096" on="1"/>
        <pt x="0" y="5120" on="1"/>
        <pt x="512" y="5120" on="1"/>
        <pt x="512" y="4096" on="1"/>
      </contour>
      <contour>
        <pt x="2048" y="4096" on="1"/>
        <pt x="2048" y="5120" on="1"/>
        <pt x="2560" y="5120" on="1"/>
        <pt x="2560" y="4096" on="1"/>
      </contour>
    </TTGlyph>
    <TTGlyph name="Y" xMin="0" yMin="1536" xMax="2560" yMax="5120">
      <contour>
        <pt x="1024" y="1536" on="1"/>
        <pt x="1024" y="3072" on="1"/>
        <pt x="1536" y="3072" on="1"/>
        <pt x="1536" y="1536" on="1"/>
      </contour>
      <contour>
        <pt x="512" y="3072" on="1"/>
        <pt x="512" y="3584" on="1"/>
        <pt x="1024" y="3584" on="1"/>
        <pt x="1024" y="3072" on="1"/>
      </contour>
      <contour>
        <pt x="1536" y="3072" on="1"/>
        <pt x="1536" y="3584" on="1"/>
        <pt x="2048" y="3584" on="1"/>
        <pt x="2048" y="3072" on="1"/>
      </contour>
      <contour>
        <pt x="0" y="3584" on="1"/>
        <pt x="0" y="5120" on="1"/>
        <pt x="512" y="5120" on="1"/>
        <pt x="512" y="3584" on="1"/>
      </contour>
      <contour>
        <pt x="2048" y="3584" on="1"/>
        <pt x="2048" y="5120" on="1"/>
        <pt x="2560" y="5120" on="1"/>
        <pt x="2560" y="3584" on="1"/>
      </contour>
    </TTGlyph>
    <TTGlyph name="Z" xMin="0" yMin="1536" xMax="2048" yMax="5120">
      <contour>
        <pt x="0" y="1536" on="1"/>
        <pt x="0" y="3072" on="1"/>
        <pt x="512" y="3072" on="1"/>
        <pt x="512" y="2048" on="1"/>
        <pt x="2048" y="2048" on="1"/>
        <pt x="2048" y="1536" on="1"/>
      </contour>
      <contour>
        <pt x="512" y="3072" on="1"/>
        <pt x="512" y="3584" on="1"/>
        <pt x="1024" y="3584" on="1"/>
        <pt x="1024" y="3072" on="1"/>
      </contour>
      <contour>
        <pt x="1024" y="3584" on="1"/>
        <pt x="1024" y="4096" on="1"/>
        <pt x="1536" y="4096" on="1"/>
        <pt x="1536" y="3584" on="1"/>
      </contour>
      <contour>
        <pt x="1536" y="4096" on="1"/>
        <pt x="1536" y="4608" on="1"/>
        <pt x="0" y="4608" on="1"/>
        <pt x="0" y="5120" on="1"/>
        <pt x="2048" y="5120" on="1"/>
        <pt x="2048" y="4096" on="1"/>
      </contour>
    </TTGlyph>
    <TTGlyph name="a" xMin="0" yMin="1536" xMax="2560" yMax="4096">
      <contour>
        <pt x="0" y="2048" on="1"/>
        <pt x="0" y="2560" on="1"/>
        <pt x="512" y="2560" on="1"/>
        <pt x="512" y="2048" on="1"/>
      </contour>
      <contour>
        <pt x="512" y="1536" on="1"/>
        <pt x="512" y="2048" on="1"/>
        <pt x="2048" y="2048" on="1"/>
        <pt x="2048" y="2560" on="1"/>
        <pt x="512" y="2560" on="1"/>
        <pt x="512" y="3072" on="1"/>
        <pt x="2048" y="3072" on="1"/>
        <pt x="2048" y="3584" on="1"/>
        <pt x="2560" y="3584" on="1"/>
        <pt x="2560" y="1536" on="1"/>
      </contour>
      <contour>
        <pt x="0" y="3584" on="1"/>
        <pt x="0" y="4096" on="1"/>
        <pt x="2048" y="4096" on="1"/>
        <pt x="2048" y="3584" on="1"/>
      </contour>
    </TTGlyph>
    <TTGlyph name="ampersand" xMin="0" yMin="1536" xMax="2560" yMax="5120">
      <contour>
        <pt x="512" y="1536" on="1"/>
        <pt x="512" y="2048" on="1"/>
        <pt x="1536" y="2048" on="1"/>
        <pt x="1536" y="1536" on="1"/>
      </contour>
      <contour>
        <pt x="2048" y="1536" on="1"/>
        <pt x="2048" y="2048" on="1"/>
        <pt x="2560" y="2048" on="1"/>
        <pt x="2560" y="1536" on="1"/>
      </contour>
      <contour>
        <pt x="1536" y="2048" on="1"/>
        <pt x="1536" y="2560" on="1"/>
        <pt x="2048" y="2560" on="1"/>
        <pt x="2048" y="2048" on="1"/>
      </contour>
      <contour>
        <pt x="0" y="2048" on="1"/>
        <pt x="0" y="3072" on="1"/>
        <pt x="512" y="3072" on="1"/>
        <pt x="512" y="2048" on="1"/>
      </contour>
      <contour>
        <pt x="1024" y="2560" on="1"/>
        <pt x="1024" y="3072" on="1"/>
        <pt x="1536" y="3072" on="1"/>
        <pt x="1536" y="2560" on="1"/>
      </contour>
      <contour>
        <pt x="2048" y="2560" on="1"/>
        <pt x="2048" y="3072" on="1"/>
        <pt x="2560" y="3072" on="1"/>
        <pt x="2560" y="2560" on="1"/>
      </contour>
      <contour>
        <pt x="512" y="3072" on="1"/>
        <pt x="512" y="3584" on="1"/>
        <pt x="1024" y="3584" on="1"/>
        <pt x="1024" y="3072" on="1"/>
      </contour>
      <contour>
        <pt x="0" y="3584" on="1"/>
        <pt x="0" y="4608" on="1"/>
        <pt x="512" y="4608" on="1"/>
        <pt x="512" y="3584" on="1"/>
      </contour>
      <contour>
        <pt x="1024" y="3584" on="1"/>
        <pt x="1024" y="4608" on="1"/>
        <pt x="1536" y="4608" on="1"/>
        <pt x="1536" y="3584" on="1"/>
      </contour>
      <contour>
        <pt x="512" y="4608" on="1"/>
        <pt x="512" y="5120" on="1"/>
        <pt x="1024" y="5120" on="1"/>
        <pt x="1024" y="4608" on="1"/>
      </contour>
    </TTGlyph>
    <TTGlyph name="asciicircum" xMin="0" yMin="3584" xMax="2560" yMax="5120">
      <contour>
        <pt x="0" y="3584" on="1"/>
        <pt x="0" y="4096" on="1"/>
        <pt x="512" y="4096" on="1"/>
        <pt x="512" y="3584" on="1"/>
      </contour>
      <contour>
        <pt x="2048" y="3584" on="1"/>
        <pt x="2048" y="4096" on="1"/>
        <pt x="2560" y="4096" on="1"/>
        <pt x="2560" y="3584" on="1"/>
      </contour>
      <contour>
        <pt x="512" y="4096" on="1"/>
        <pt x="512" y="4608" on="1"/>
        <pt x="1024" y="4608" on="1"/>
        <pt x="1024" y="4096" on="1"/>
      </contour>
      <contour>
        <pt x="1536" y="4096" on="1"/>
        <pt x="1536" y="4608" on="1"/>
        <pt x="2048" y="4608" on="1"/>
        <pt x="2048" y="4096" on="1"/>
      </contour>
      <contour>
        <pt x="1024" y="4608" on="1"/>
        <pt x="1024" y="5120" on="1"/>
        <pt x="1536" y="5120" on="1"/>
        <pt x="1536" y="4608" on="1"/>
      </contour>
    </TTGlyph>
    <TTGlyph name="asciitilde" xMin="0" yMin="4096" xMax="2048" yMax="5120">
      <contour>
        <pt x="0" y="4096" on="1"/>
        <pt x="0" y="4608" on="1"/>
        <pt x="512" y="4608" on="1"/>
        <pt x="512" y="4096" on="1"/>
      </contour>
      <contour>
        <pt x="1024" y="4096" on="1"/>
        <pt x="1024" y="4608" on="1"/>
        <pt x="1536" y="4608" on="1"/>
        <pt x="1536" y="4096" on="1"/>
      </contour>
      <contour>
        <pt x="512" y="4608" on="1"/>
        <pt x="512" y="5120" on="1"/>
        <pt x="1024" y="5120" on="1"/>
        <pt x="1024" y="4608" on="1"/>
      </contour>
      <contour>
        <pt x="1536" y="4608" on="1"/>
        <pt x="1536" y="5120" on="1"/>
        <pt x="2048" y="5120" on="1"/>
        <pt x="2048" y="4608" on="1"/>
      </contour>
    </TTGlyph>
    <TTGlyph name="asterisk" xMin="0" yMin="2048" xMax="2560" yMax="4608">
      <contour>
        <pt x="512" y="2048" on="1"/>
        <pt x="512" y="3072" on="1"/>
        <pt x="0" y="3072" on="1"/>
        <pt x="0" y="3584" on="1"/>
        <pt x="512" y="3584" on="1"/>
        <pt x="512" y="4608" on="1"/>
        <pt x="1024" y="4608" on="1"/>
        <pt x="1024" y="4096" on="1"/>
        <pt x="1536" y="4096" on="1"/>
        <pt x="1536" y="4608" on="1"/>
        <pt x="2048" y="4608" on="1"/>
        <pt x="2048" y="3584" on="1"/>
        <pt x="2560" y="3584" on="1"/>
        <pt x="2560" y="3072" on="1"/>
        <pt x="2048" y="3072" on="1"/>
        <pt x="2048" y="2048" on="1"/>
        <pt x="1536" y="2048" on="1"/>
        <pt x="1536" y="2560" on="1"/>
        <pt x="1024" y="2560" on="1"/>
        <pt x="1024" y="2048" on="1"/>
      </contour>
    </TTGlyph>
    <TTGlyph name="at" xMin="0" yMin="1536" xMax="2560" yMax="5120">
      <contour>
        <pt x="512" y="1536" on="1"/>
        <pt x="512" y="2048" on="1"/>
        <pt x="2048" y="2048" on="1"/>
        <pt x="2048" y="1536" on="1"/>
      </contour>
      <contour>
        <pt x="2048" y="3072" on="1"/>
        <pt x="2048" y="3584" on="1"/>
        <pt x="1536" y="3584" on="1"/>
        <pt x="1536" y="3072" on="1"/>
      </contour>
      <contour>
        <pt x="0" y="2048" on="1"/>
        <pt x="0" y="4608" on="1"/>
        <pt x="512" y="4608" on="1"/>
        <pt x="512" y="2048" on="1"/>
      </contour>
      <contour>
        <pt x="1024" y="2560" on="1"/>
        <pt x="1024" y="4096" on="1"/>
        <pt x="2048" y="4096" on="1"/>
        <pt x="2048" y="4608" on="1"/>
        <pt x="2560" y="4608" on="1"/>
        <pt x="2560" y="2560" on="1"/>
      </contour>
      <contour>
        <pt x="512" y="4608" on="1"/>
        <pt x="512" y="5120" on="1"/>
        <pt x="2048" y="5120" on="1"/>
        <pt x="2048" y="4608" on="1"/>
      </contour>
    </TTGlyph>
    <TTGlyph name="b" xMin="0" yMin="1536" xMax="2560" yMax="5120">
      <contour>
        <pt x="2048" y="2048" on="1"/>
        <pt x="2048" y="3584" on="1"/>
        <pt x="2560" y="3584" on="1"/>
        <pt x="2560" y="2048" on="1"/>
      </contour>
      <contour>
        <pt x="0" y="1536" on="1"/>
        <pt x="0" y="5120" on="1"/>
        <pt x="512" y="5120" on="1"/>
        <pt x="512" y="4096" on="1"/>
        <pt x="2048" y="4096" on="1"/>
        <pt x="2048" y="3584" on="1"/>
        <pt x="512" y="3584" on="1"/>
        <pt x="512" y="2048" on="1"/>
        <pt x="2048" y="2048" on="1"/>
        <pt x="2048" y="1536" on="1"/>
      </contour>
    </TTGlyph>
    <TTGlyph name="backslash" xMin="0" yMin="2048" xMax="2560" yMax="4608">
      <contour>
        <pt x="2048" y="2048" on="1"/>
        <pt x="2048" y="2560" on="1"/>
        <pt x="2560" y="2560" on="1"/>
        <pt x="2560" y="2048" on="1"/>
      </contour>
      <contour>
        <pt x="1536" y="2560" on="1"/>
        <pt x="1536" y="3072" on="1"/>
        <pt x="2048" y="3072" on="1"/>
        <pt x="2048" y="2560" on="1"/>
      </contour>
      <contour>
        <pt x="1024" y="3072" on="1"/>
        <pt x="1024" y="3584" on="1"/>
        <pt x="1536" y="3584" on="1"/>
        <pt x="1536" y="3072" on="1"/>
      </contour>
      <contour>
        <pt x="512" y="3584" on="1"/>
        <pt x="512" y="4096" on="1"/>
        <pt x="1024" y="4096" on="1"/>
        <pt x="1024" y="3584" on="1"/>
      </contour>
      <contour>
        <pt x="0" y="4096" on="1"/>
        <pt x="0" y="4608" on="1"/>
        <pt x="512" y="4608" on="1"/>
        <pt x="512" y="4096" on="1"/>
      </contour>
    </TTGlyph>
    <TTGlyph name="bar" xMin="1024" yMin="1536" xMax="1536" yMax="5120">
      <contour>
        <pt x="1024" y="1536" on="1"/>
        <pt x="1024" y="5120" on="1"/>
        <pt x="1536" y="5120" on="1"/>
        <pt x="1536" y="1536" on="1"/>
      </contour>
    </TTGlyph>
    <TTGlyph name="braceleft" xMin="0" yMin="1536" xMax="2048" yMax="5120">
      <contour>
        <pt x="1024" y="1536" on="1"/>
        <pt x="1024" y="2048" on="1"/>
        <pt x="2048" y="2048" on="1"/>
        <pt x="2048" y="1536" on="1"/>
      </contour>
      <contour>
        <pt x="512" y="2048" on="1"/>
        <pt x="512" y="3072" on="1"/>
        <pt x="0" y="3072" on="1"/>
        <pt x="0" y="3584" on="1"/>
        <pt x="512" y="3584" on="1"/>
        <pt x="512" y="4608" on="1"/>
        <pt x="1024" y="4608" on="1"/>
        <pt x="1024" y="2048" on="1"/>
      </contour>
      <contour>
        <pt x="1024" y="4608" on="1"/>
        <pt x="1024" y="5120" on="1"/>
        <pt x="2048" y="5120" on="1"/>
        <pt x="2048" y="4608" on="1"/>
      </contour>
    </TTGlyph>
    <TTGlyph name="braceright" xMin="512" yMin="1536" xMax="2560" yMax="5120">
      <contour>
        <pt x="512" y="1536" on="1"/>
        <pt x="512" y="2048" on="1"/>
        <pt x="1536" y="2048" on="1"/>
        <pt x="1536" y="1536" on="1"/>
      </contour>
      <contour>
        <pt x="1536" y="2048" on="1"/>
        <pt x="1536" y="4608" on="1"/>
        <pt x="2048" y="4608" on="1"/>
        <pt x="2048" y="3584" on="1"/>
        <pt x="2560" y="3584" on="1"/>
        <pt x="2560" y="3072" on="1"/>
        <pt x="2048" y="3072" on="1"/>
        <pt x="2048" y="2048" on="1"/>
      </contour>
      <contour>
        <pt x="512" y="4608" on="1"/>
        <pt x="512" y="5120" on="1"/>
        <pt x="1536" y="5120" on="1"/>
        <pt x="1536" y="4608" on="1"/>
      </contour>
    </TTGlyph>
    <TTGlyph name="bracketleft" xMin="512" yMin="1536" xMax="2048" yMax="5120">
      <contour>
        <pt x="512" y="1536" on="1"/>
        <pt x="512" y="5120" on="1"/>
        <pt x="2048" y="5120" on="1"/>
        <pt x="2048" y="4608" on="1"/>
        <pt x="1024" y="4608" on="1"/>
        <pt x="1024" y="2048" on="1"/>
        <pt x="2048" y="2048" on="1"/>
        <pt x="2048" y="1536" on="1"/>
      </contour>
    </TTGlyph>
    <TTGlyph name="bracketright" xMin="512" yMin="1536" xMax="2048" yMax="5120">
      <contour>
        <pt x="512" y="1536" on="1"/>
        <pt x="512" y="2048" on="1"/>
        <pt x="1536" y="2048" on="1"/>
        <pt x="1536" y="4608" on="1"/>
        <pt x="512" y="4608" on="1"/>
        <pt x="512" y="5120" on="1"/>
        <pt x="2048" y="5120" on="1"/>
        <pt x="2048" y="1536" on="1"/>
      </contour>
    </TTGlyph>
    <TTGlyph name="c" xMin="0" yMin="1536" xMax="2560" yMax="4096">
      <contour>
        <pt x="512" y="1536" on="1"/>
        <pt x="512" y="2048" on="1"/>
        <pt x="2048" y="2048" on="1"/>
        <pt x="2048" y="1536" on="1"/>
      </contour>
      <contour>
        <pt x="2048" y="2048" on="1"/>
        <pt x="2048" y="2560" on="1"/>
        <pt x="2560" y="2560" on="1"/>
        <pt x="2560" y="2048" on="1"/>
      </contour>
      <contour>
        <pt x="0" y="2048" on="1"/>
        <pt x="0" y="3584" on="1"/>
        <pt x="512" y="3584" on="1"/>
        <pt x="512" y="2048" on="1"/>
      </contour>
      <contour>
        <pt x="2048" y="3072" on="1"/>
        <pt x="2048" y="3584" on="1"/>
        <pt x="2560" y="3584" on="1"/>
        <pt x="2560" y="3072" on="1"/>
      </contour>
      <contour>
        <pt x="512" y="3584" on="1"/>
        <pt x="512" y="4096" on="1"/>
        <pt x="2048" y="4096" on="1"/>
        <pt x="2048" y="3584" on="1"/>
      </contour>
    </TTGlyph>
    <TTGlyph name="colon" xMin="512" yMin="1536" xMax="1536" yMax="4096">
      <contour>
        <pt x="512" y="1536" on="1"/>
        <pt x="512" y="2560" on="1"/>
        <pt x="1536" y="2560" on="1"/>
        <pt x="1536" y="1536" on="1"/>
      </contour>
      <contour>
        <pt x="512" y="3072" on="1"/>
        <pt x="512" y="4096" on="1"/>
        <pt x="1536" y="4096" on="1"/>
        <pt x="1536" y="3072" on="1"/>
      </contour>
    </TTGlyph>
    <TTGlyph name="comma" xMin="512" yMin="1024" xMax="1536" yMax="2560">
      <contour>
        <pt x="512" y="1024" on="1"/>
        <pt x="512" y="2560" on="1"/>
        <pt x="1536" y="2560" on="1"/>
        <pt x="1536" y="1536" on="1"/>
        <pt x="1024" y="1536" on="1"/>
        <pt x="1024" y="1024" on="1"/>
      </contour>
    </TTGlyph>
    <TTGlyph name="d" xMin="0" yMin="1536" xMax="2560" yMax="5120">
      <contour>
        <pt x="0" y="2048" on="1"/>
        <pt x="0" y="3584" on="1"/>
        <pt x="512" y="3584" on="1"/>
        <pt x="512" y="2048" on="1"/>
      </contour>
      <contour>
        <pt x="512" y="1536" on="1"/>
        <pt x="512" y="2048" on="1"/>
        <pt x="2048" y="2048" on="1"/>
        <pt x="2048" y="3584" on="1"/>
        <pt x="512" y="3584" on="1"/>
        <pt x="512" y="4096" on="1"/>
        <pt x="2048" y="4096" on="1"/>
        <pt x="2048" y="5120" on="1"/>
        <pt x="2560" y="5120" on="1"/>
        <pt x="2560" y="1536" on="1"/>
      </contour>
    </TTGlyph>
    <TTGlyph name="dollar" xMin="0" yMin="1536" xMax="2048" yMax="5120">
      <contour>
        <pt x="1024" y="1536" on="1"/>
        <pt x="1024" y="2048" on="1"/>
        <pt x="0" y="2048" on="1"/>
        <pt x="0" y="2560" on="1"/>
        <pt x="1536" y="2560" on="1"/>
        <pt x="1536" y="1536" on="1"/>
      </contour>
      <contour>
        <pt x="1536" y="2560" on="1"/>
        <pt x="1536" y="3072" on="1"/>
        <pt x="2048" y="3072" on="1"/>
        <pt x="2048" y="2560" on="1"/>
      </contour>
      <contour>
        <pt x="512" y="3072" on="1"/>
        <pt x="512" y="3584" on="1"/>
        <pt x="1536" y="3584" on="1"/>
        <pt x="1536" y="3072" on="1"/>
      </contour>
      <contour>
        <pt x="0" y="3584" on="1"/>
        <pt x="0" y="4096" on="1"/>
        <pt x="512" y="4096" on="1"/>
        <pt x="512" y="3584" on="1"/>
      </contour>
      <contour>
        <pt x="512" y="4096" on="1"/>
        <pt x="512" y="5120" on="1"/>
        <pt x="1024" y="5120" on="1"/>
        <pt x="1024" y="4608" on="1"/>
        <pt x="2048" y="4608" on="1"/>
        <pt x="2048" y="4096" on="1"/>
      </contour>
    </TTGlyph>
    <TTGlyph name="e" xMin="0" yMin="1536" xMax="2560" yMax="4096">
      <contour>
        <pt x="512" y="1536" on="1"/>
        <pt x="512" y="2048" on="1"/>
        <pt x="2048" y="2048" on="1"/>
        <pt x="2048" y="1536" on="1"/>
      </contour>
      <contour>
        <pt x="0" y="2048" on="1"/>
        <pt x="0" y="3584" on="1"/>
        <pt x="512" y="3584" on="1"/>
        <pt x="512" y="3072" on="1"/>
        <pt x="2048" y="3072" on="1"/>
        <pt x="2048" y="2560" on="1"/>
        <pt x="512" y="2560" on="1"/>
        <pt x="512" y="2048" on="1"/>
      </contour>
      <contour>
        <pt x="2048" y="3072" on="1"/>
        <pt x="2048" y="3584" on="1"/>
        <pt x="2560" y="3584" on="1"/>
        <pt x="2560" y="3072" on="1"/>
      </contour>
      <contour>
        <pt x="512" y="3584" on="1"/>
        <pt x="512" y="4096" on="1"/>
        <pt x="2048" y="4096" on="1"/>
        <pt x="2048" y="3584" on="1"/>
      </contour>
    </TTGlyph>
    <TTGlyph name="eight" xMin="0" yMin="1536" xMax="2560" yMax="5120">
      <contour>
        <pt x="512" y="1536" on="1"/>
        <pt x="512" y="2048" on="1"/>
        <pt x="2048" y="2048" on="1"/>
        <pt x="2048" y="1536" on="1"/>
      </contour>
      <contour>
        <pt x="0" y="2048" on="1"/>
        <pt x="0" y="3072" on="1"/>
        <pt x="512" y="3072" on="1"/>
        <pt x="512" y="2048" on="1"/>
      </contour>
      <contour>
        <pt x="2048" y="2048" on="1"/>
        <pt x="2048" y="3072" on="1"/>
        <pt x="2560" y="3072" on="1"/>
        <pt x="2560" y="2048" on="1"/>
      </contour>
      <contour>
        <pt x="512" y="3072" on="1"/>
        <pt x="512" y="3584" on="1"/>
        <pt x="2048" y="3584" on="1"/>
        <pt x="2048" y="3072" on="1"/>
      </contour>
      <contour>
        <pt x="0" y="3584" on="1"/>
        <pt x="0" y="4608" on="1"/>
        <pt x="512" y="4608" on="1"/>
        <pt x="512" y="3584" on="1"/>
      </contour>
      <contour>
        <pt x="2048" y="3584" on="1"/>
        <pt x="2048" y="4608" on="1"/>
        <pt x="2560" y="4608" on="1"/>
        <pt x="2560" y="3584" on="1"/>
      </contour>
      <contour>
        <pt x="512" y="4608" on="1"/>
        <pt x="512" y="5120" on="1"/>
        <pt x="2048" y="5120" on="1"/>
        <pt x="2048" y="4608" on="1"/>
      </contour>
    </TTGlyph>
    <TTGlyph name="equal" xMin="0" yMin="2048" xMax="2560" yMax="4096">
      <contour>
        <pt x="0" y="2048" on="1"/>
        <pt x="0" y="2560" on="1"/>
        <pt x="2560" y="2560" on="1"/>
        <pt x="2560" y="2048" on="1"/>
      </contour>
      <contour>
        <pt x="0" y="3584" on="1"/>
        <pt x="0" y="4096" on="1"/>
        <pt x="2560" y="4096" on="1"/>
        <pt x="2560" y="3584" on="1"/>
      </contour>
    </TTGlyph>
    <TTGlyph name="exclam" xMin="512" yMin="1536" xMax="2048" yMax="5120">
      <contour>
        <pt x="1024" y="1536" on="1"/>
        <pt x="1024" y="2048" on="1"/>
        <pt x="1536" y="2048" on="1"/>
        <pt x="1536" y="1536" on="1"/>
      </contour>
      <contour>
        <pt x="1024" y="2560" on="1"/>
        <pt x="1024" y="3584" on="1"/>
        <pt x="512" y="3584" on="1"/>
        <pt x="512" y="4608" on="1"/>
        <pt x="1024" y="4608" on="1"/>
        <pt x="1024" y="5120" on="1"/>
        <pt x="1536" y="5120" on="1"/>
        <pt x="1536" y="4608" on="1"/>
        <pt x="2048" y="4608" on="1"/>
        <pt x="2048" y="3584" on="1"/>
        <pt x="1536" y="3584" on="1"/>
        <pt x="1536" y="2560" on="1"/>
      </contour>
    </TTGlyph>
    <TTGlyph name="f" xMin="0" yMin="1536" xMax="2048" yMax="5120">
      <contour>
        <pt x="512" y="1536" on="1"/>
        <pt x="512" y="3072" on="1"/>
        <pt x="0" y="3072" on="1"/>
        <pt x="0" y="3584" on="1"/>
        <pt x="512" y="3584" on="1"/>
        <pt x="512" y="4608" on="1"/>
        <pt x="1024" y="4608" on="1"/>
        <pt x="1024" y="3584" on="1"/>
        <pt x="2048" y="3584" on="1"/>
        <pt x="2048" y="3072" on="1"/>
        <pt x="1024" y="3072" on="1"/>
        <pt x="1024" y="1536" on="1"/>
      </contour>
      <contour>
        <pt x="1024" y="4608" on="1"/>
        <pt x="1024" y="5120" on="1"/>
        <pt x="2048" y="5120" on="1"/>
        <pt x="2048" y="4608" on="1"/>
      </contour>
    </TTGlyph>
    <TTGlyph name="five" xMin="0" yMin="1536" xMax="2560" yMax="5120">
      <contour>
        <pt x="512" y="1536" on="1"/>
        <pt x="512" y="2048" on="1"/>
        <pt x="2048" y="2048" on="1"/>
        <pt x="2048" y="1536" on="1"/>
      </contour>
      <contour>
        <pt x="0" y="2048" on="1"/>
        <pt x="0" y="2560" on="1"/>
        <pt x="512" y="2560" on="1"/>
        <pt x="512" y="2048" on="1"/>
      </contour>
      <contour>
        <pt x="2048" y="2048" on="1"/>
        <pt x="2048" y="3072" on="1"/>
        <pt x="2560" y="3072" on="1"/>
        <pt x="2560" y="2048" on="1"/>
      </contour>
      <contour>
        <pt x="0" y="3072" on="1"/>
        <pt x="0" y="5120" on="1"/>
        <pt x="2560" y="5120" on="1"/>
        <pt x="2560" y="4608" on="1"/>
        <pt x="512" y="4608" on="1"/>
        <pt x="512" y="3584" on="1"/>
        <pt x="2048" y="3584" on="1"/>
        <pt x="2048" y="3072" on="1"/>
      </contour>
    </TTGlyph>
    <TTGlyph name="four" xMin="0" yMin="1536" xMax="2560" yMax="5120">
      <contour>
        <pt x="512" y="3584" on="1"/>
        <pt x="512" y="4096" on="1"/>
        <pt x="1024" y="4096" on="1"/>
        <pt x="1024" y="3584" on="1"/>
      </contour>
      <contour>
        <pt x="1536" y="1536" on="1"/>
        <pt x="1536" y="2560" on="1"/>
        <pt x="0" y="2560" on="1"/>
        <pt x="0" y="3584" on="1"/>
        <pt x="512" y="3584" on="1"/>
        <pt x="512" y="3072" on="1"/>
        <pt x="1536" y="3072" on="1"/>
        <pt x="1536" y="4096" on="1"/>
        <pt x="1024" y="4096" on="1"/>
        <pt x="1024" y="4608" on="1"/>
        <pt x="1536" y="4608" on="1"/>
        <pt x="1536" y="5120" on="1"/>
        <pt x="2048" y="5120" on="1"/>
        <pt x="2048" y="3072" on="1"/>
        <pt x="2560" y="3072" on="1"/>
        <pt x="2560" y="2560" on="1"/>
        <pt x="2048" y="2560" on="1"/>
        <pt x="2048" y="1536" on="1"/>
      </contour>
    </TTGlyph>
    <TTGlyph name="g" xMin="0" yMin="1024" xMax="2560" yMax="4096">
      <contour>
        <pt x="512" y="1024" on="1"/>
        <pt x="512" y="1536" on="1"/>
        <pt x="2048" y="1536" on="1"/>
        <pt x="2048" y="1024" on="1"/>
      </contour>
      <contour>
        <pt x="0" y="2560" on="1"/>
        <pt x="0" y="3584" on="1"/>
        <pt x="512" y="3584" on="1"/>
        <pt x="512" y="2560" on="1"/>
      </contour>
      <contour>
        <pt x="2048" y="1536" on="1"/>
        <pt x="2048" y="2048" on="1"/>
        <pt x="512" y="2048" on="1"/>
        <pt x="512" y="2560" on="1"/>
        <pt x="2048" y="2560" on="1"/>
        <pt x="2048" y="3584" on="1"/>
        <pt x="512" y="3584" on="1"/>
        <pt x="512" y="4096" on="1"/>
        <pt x="2560" y="4096" on="1"/>
        <pt x="2560" y="1536" on="1"/>
      </contour>
    </TTGlyph>
    <TTGlyph name="grave" xMin="512" yMin="3584" xMax="1536" yMax="5120">
      <contour>
        <pt x="1024" y="3584" on="1"/>
        <pt x="1024" y="4096" on="1"/>
        <pt x="512" y="4096" on="1"/>
        <pt x="512" y="5120" on="1"/>
        <pt x="1536" y="5120" on="1"/>
        <pt x="1536" y="3584" on="1"/>
      </contour>
    </TTGlyph>
    <TTGlyph name="greater" xMin="512" yMin="1536" xMax="2560" yMax="5120">
      <contour>
        <pt x="512" y="1536" on="1"/>
        <pt x="512" y="2048" on="1"/>
        <pt x="1024" y="2048" on="1"/>
        <pt x="1024" y="1536" on="1"/>
      </contour>
      <contour>
        <pt x="1024" y="2048" on="1"/>
        <pt x="1024" y="2560" on="1"/>
        <pt x="1536" y="2560" on="1"/>
        <pt x="1536" y="2048" on="1"/>
      </contour>
      <contour>
        <pt x="1536" y="2560" on="1"/>
        <pt x="1536" y="3072" on="1"/>
        <pt x="2048" y="3072" on="1"/>
        <pt x="2048" y="2560" on="1"/>
      </contour>
      <contour>
        <pt x="2048" y="3072" on="1"/>
        <pt x="2048" y="3584" on="1"/>
        <pt x="2560" y="3584" on="1"/>
        <pt x="2560" y="3072" on="1"/>
      </contour>
      <contour>
        <pt x="1536" y="3584" on="1"/>
        <pt x="1536" y="4096" on="1"/>
        <pt x="2048" y="4096" on="1"/>
        <pt x="2048" y="3584" on="1"/>
      </contour>
      <contour>
        <pt x="1024" y="4096" on="1"/>
        <pt x="1024" y="4608" on="1"/>
        <pt x="1536" y="4608" on="1"/>
        <pt x="1536" y="4096" on="1"/>
      </contour>
      <contour>
        <pt x="512" y="4608" on="1"/>
        <pt x="512" y="5120" on="1"/>
        <pt x="1024" y="5120" on="1"/>
        <pt x="1024" y="4608" on="1"/>
      </contour>
    </TTGlyph>
    <TTGlyph name="h" xMin="0" yMin="1536" xMax="2048" yMax="5120">
      <contour>
        <pt x="1536" y="1536" on="1"/>
        <pt x="1536" y="3584" on="1"/>
        <pt x="2048" y="3584" on="1"/>
        <pt x="2048" y="1536" on="1"/>
      </contour>
      <contour>
        <pt x="0" y="1536" on="1"/>
        <pt x="0" y="5120" on="1"/>
        <pt x="512" y="5120" on="1"/>
        <pt x="512" y="4096" on="1"/>
        <pt x="1536" y="4096" on="1"/>
        <pt x="1536" y="3584" on="1"/>
        <pt x="512" y="3584" on="1"/>
        <pt x="512" y="1536" on="1"/>
      </contour>
    </TTGlyph>
    <TTGlyph name="hyphen" xMin="0" yMin="3072" xMax="2560" yMax="3584">
      <contour>
        <pt x="0" y="3072" on="1"/>
        <pt x="0" y="3584" on="1"/>
        <pt x="2560" y="3584" on="1"/>
        <pt x="2560" y="3072" on="1"/>
      </contour>
    </TTGlyph>
    <TTGlyph name="i" xMin="1024" yMin="1536" xMax="2048" yMax="5120">
      <contour>
        <pt x="1024" y="1536" on="1"/>
        <pt x="1024" y="4096" on="1"/>
        <pt x="1536" y="4096" on="1"/>
        <pt x="1536" y="2048" on="1"/>
        <pt x="2048" y="2048" on="1"/>
        <pt x="2048" y="1536" on="1"/>
      </contour>
      <contour>
        <pt x="1024" y="4608" on="1"/>
        <pt x="1024" y="5120" on="1"/>
        <pt x="1536" y="5120" on="1"/>
        <pt x="1536" y="4608" on="1"/>
      </contour>
    </TTGlyph>
    <TTGlyph name="j" xMin="0" yMin="1024" xMax="2048" yMax="5120">
      <contour>
        <pt x="512" y="1024" on="1"/>
        <pt x="512" y="1536" on="1"/>
        <pt x="1536" y="1536" on="1"/>
        <pt x="1536" y="1024" on="1"/>
      </contour>
      <contour>
        <pt x="0" y="1536" on="1"/>
        <pt x="0" y="2048" on="1"/>
        <pt x="512" y="2048" on="1"/>
        <pt x="512" y="1536" on="1"/>
      </contour>
      <contour>
        <pt x="1536" y="1536" on="1"/>
        <pt x="1536" y="3584" on="1"/>
        <pt x="1024" y="3584" on="1"/>
        <pt x="1024" y="4096" on="1"/>
        <pt x="2048" y="4096" on="1"/>
        <pt x="2048" y="1536" on="1"/>
      </contour>
      <contour>
        <pt x="1536" y="4608" on="1"/>
        <pt x="1536" y="5120" on="1"/>
        <pt x="2048" y="5120" on="1"/>
        <pt x="2048" y="4608" on="1"/>
      </contour>
    </TTGlyph>
    <TTGlyph name="k" xMin="0" yMin="1536" xMax="2048" yMax="5120">
      <contour>
        <pt x="1536" y="1536" on="1"/>
        <pt x="1536" y="2048" on="1"/>
        <pt x="2048" y="2048" on="1"/>
        <pt x="2048" y="1536" on="1"/>
      </contour>
      <contour>
        <pt x="1024" y="2048" on="1"/>
        <pt x="1024" y="2560" on="1"/>
        <pt x="1536" y="2560" on="1"/>
        <pt x="1536" y="2048" on="1"/>
      </contour>
      <contour>
        <pt x="1024" y="3072" on="1"/>
        <pt x="1024" y="3584" on="1"/>
        <pt x="1536" y="3584" on="1"/>
        <pt x="1536" y="3072" on="1"/>
      </contour>
      <contour>
        <pt x="1536" y="3584" on="1"/>
        <pt x="1536" y="4096" on="1"/>
        <pt x="2048" y="4096" on="1"/>
        <pt x="2048" y="3584" on="1"/>
      </contour>
      <contour>
        <pt x="0" y="1536" on="1"/>
        <pt x="0" y="5120" on="1"/>
        <pt x="512" y="5120" on="1"/>
        <pt x="512" y="3072" on="1"/>
        <pt x="1024" y="3072" on="1"/>
        <pt x="1024" y="2560" on="1"/>
        <pt x="512" y="2560" on="1"/>
        <pt x="512" y="1536" on="1"/>
      </contour>
    </TTGlyph>
    <TTGlyph name="l" xMin="1024" yMin="1536" xMax="2048" yMax="5120">
      <contour>
        <pt x="1024" y="1536" on="1"/>
        <pt x="1024" y="5120" on="1"/>
        <pt x="1536" y="5120" on="1"/>
        <pt x="1536" y="2048" on="1"/>
        <pt x="2048" y="2048" on="1"/>
        <pt x="2048" y="1536" on="1"/>
      </contour>
    </TTGlyph>
    <TTGlyph name="less" xMin="0" yMin="1536" xMax="2048" yMax="5120">
      <contour>
        <pt x="1536" y="1536" on="1"/>
        <pt x="1536" y="2048" on="1"/>
        <pt x="2048" y="2048" on="1"/>
        <pt x="2048" y="1536" on="1"/>
      </contour>
      <contour>
        <pt x="1024" y="2048" on="1"/>
        <pt x="1024" y="2560" on="1"/>
        <pt x="1536" y="2560" on="1"/>
        <pt x="1536" y="2048" on="1"/>
      </contour>
      <contour>
        <pt x="512" y="2560" on="1"/>
        <pt x="512" y="3072" on="1"/>
        <pt x="1024" y="3072" on="1"/>
        <pt x="1024" y="2560" on="1"/>
      </contour>
      <contour>
        <pt x="0" y="3072" on="1"/>
        <pt x="0" y="3584" on="1"/>
        <pt x="512" y="3584" on="1"/>
        <pt x="512" y="3072" on="1"/>
      </contour>
      <contour>
        <pt x="512" y="3584" on="1"/>
        <pt x="512" y="4096" on="1"/>
        <pt x="1024" y="4096" on="1"/>
        <pt x="1024" y="3584" on="1"/>
      </contour>
      <contour>
        <pt x="1024" y="4096" on="1"/>
        <pt x="1024" y="4608" on="1"/>
        <pt x="1536" y="4608" on="1"/>
        <pt x="1536" y="4096" on="1"/>
      </contour>
      <contour>
        <pt x="1536" y="4608" on="1"/>
        <pt x="1536" y="5120" on="1"/>
        <pt x="2048" y="5120" on="1"/>
        <pt x="2048" y="4608" on="1"/>
      </contour>
    </TTGlyph>
    <TTGlyph name="m" xMin="0" yMin="1536" xMax="2560" yMax="4096">
      <contour>
        <pt x="1024" y="2560" on="1"/>
        <pt x="1024" y="3584" on="1"/>
        <pt x="1536" y="3584" on="1"/>
        <pt x="1536" y="2560" on="1"/>
      </contour>
      <contour>
        <pt x="2048" y="1536" on="1"/>
        <pt x="2048" y="3584" on="1"/>
        <pt x="2560" y="3584" on="1"/>
        <pt x="2560" y="1536" on="1"/>
      </contour>
      <contour>
        <pt x="0" y="1536" on="1"/>
        <pt x="0" y="4096" on="1"/>
        <pt x="1024" y="4096" on="1"/>
        <pt x="1024" y="3584" on="1"/>
        <pt x="512" y="3584" on="1"/>
        <pt x="512" y="1536" on="1"/>
      </contour>
      <contour>
        <pt x="1536" y="3584" on="1"/>
        <pt x="1536" y="4096" on="1"/>
        <pt x="2048" y="4096" on="1"/>
        <pt x="2048" y="3584" on="1"/>
      </contour>
    </TTGlyph>
    <TTGlyph name="n" xMin="0" yMin="1536" xMax="2048" yMax="4096">
      <contour>
        <pt x="1536" y="1536" on="1"/>
        <pt x="1536" y="3584" on="1"/>
        <pt x="2048" y="3584" on="1"/>
        <pt x="2048" y="1536" on="1"/>
      </contour>
      <contour>
        <pt x="0" y="1536" on="1"/>
        <pt x="0" y="4096" on="1"/>
        <pt x="1536" y="4096" on="1"/>
        <pt x="1536" y="3584" on="1"/>
        <pt x="512" y="3584" on="1"/>
        <pt x="512" y="1536" on="1"/>
      </contour>
    </TTGlyph>
    <TTGlyph name="nine" xMin="0" yMin="1536" xMax="2560" yMax="5120">
      <contour>
        <pt x="512" y="1536" on="1"/>
        <pt x="512" y="2048" on="1"/>
        <pt x="1536" y="2048" on="1"/>
        <pt x="1536" y="1536" on="1"/>
      </contour>
      <contour>
        <pt x="1536" y="2048" on="1"/>
        <pt x="1536" y="2560" on="1"/>
        <pt x="2048" y="2560" on="1"/>
        <pt x="2048" y="2048" on="1"/>
      </contour>
      <contour>
        <pt x="0" y="3584" on="1"/>
        <pt x="0" y="4608" on="1"/>
        <pt x="512" y="4608" on="1"/>
        <pt x="512" y="3584" on="1"/>
      </contour>
      <contour>
        <pt x="2048" y="2560" on="1"/>
        <pt x="2048" y="3072" on="1"/>
        <pt x="512" y="3072" on="1"/>
        <pt x="512" y="3584" on="1"/>
        <pt x="2048" y="3584" on="1"/>
        <pt x="2048" y="4608" on="1"/>
        <pt x="2560" y="4608" on="1"/>
        <pt x="2560" y="2560" on="1"/>
      </contour>
      <contour>
        <pt x="512" y="4608" on="1"/>
        <pt x="512" y="5120" on="1"/>
        <pt x="2048" y="5120" on="1"/>
        <pt x="2048" y="4608" on="1"/>
      </contour>
    </TTGlyph>
    <TTGlyph name="numbersign" xMin="0" yMin="1536" xMax="2560" yMax="4608">
      <contour>
        <pt x="1536" y="2560" on="1"/>
        <pt x="1536" y="3584" on="1"/>
        <pt x="1024" y="3584" on="1"/>
        <pt x="1024" y="2560" on="1"/>
      </contour>
      <contour>
        <pt x="512" y="1536" on="1"/>
        <pt x="512" y="2048" on="1"/>
        <pt x="0" y="2048" on="1"/>
        <pt x="0" y="2560" on="1"/>
        <pt x="512" y="2560" on="1"/>
        <pt x="512" y="3584" on="1"/>
        <pt x="0" y="3584" on="1"/>
        <pt x="0" y="4096" on="1"/>
        <pt x="512" y="4096" on="1"/>
        <pt x="512" y="4608" on="1"/>
        <pt x="1024" y="4608" on="1"/>
        <pt x="1024" y="4096" on="1"/>
        <pt x="1536" y="4096" on="1"/>
        <pt x="1536" y="4608" on="1"/>
        <pt x="2048" y="4608" on="1"/>
        <pt x="2048" y="4096" on="1"/>
        <pt x="2560" y="4096" on="1"/>
        <pt x="2560" y="3584" on="1"/>
        <pt x="2048" y="3584" on="1"/>
        <pt x="2048" y="2560" on="1"/>
        <pt x="2560" y="2560" on="1"/>
        <pt x="2560" y="2048" on="1"/>
        <pt x="2048" y="2048" on="1"/>
        <pt x="2048" y="1536" on="1"/>
        <pt x="1536" y="1536" on="1"/>
        <pt x="1536" y="2048" on="1"/>
        <pt x="1024" y="2048" on="1"/>
        <pt x="1024" y="1536" on="1"/>
      </contour>
    </TTGlyph>
    <TTGlyph name="o" xMin="0" yMin="1536" xMax="2560" yMax="4096">
      <contour>
        <pt x="512" y="1536" on="1"/>
        <pt x="512" y="2048" on="1"/>
        <pt x="2048" y="2048" on="1"/>
        <pt x="2048" y="1536" on="1"/>
      </contour>
      <contour>
        <pt x="0" y="2048" on="1"/>
        <pt x="0" y="3584" on="1"/>
        <pt x="512" y="3584" on="1"/>
        <pt x="512" y="2048" on="1"/>
      </contour>
      <contour>
        <pt x="2048" y="2048" on="1"/>
        <pt x="2048" y="3584" on="1"/>
        <pt x="2560" y="3584" on="1"/>
        <pt x="2560" y="2048" on="1"/>
      </contour>
      <contour>
        <pt x="512" y="3584" on="1"/>
        <pt x="512" y="4096" on="1"/>
        <pt x="2048" y="4096" on="1"/>
        <pt x="2048" y="3584" on="1"/>
      </contour>
    </TTGlyph>
    <TTGlyph name="one" xMin="512" yMin="1536" xMax="2048" yMax="5120">
      <contour>
        <pt x="512" y="1536" on="1"/>
        <pt x="512" y="2048" on="1"/>
        <pt x="1024" y="2048" on="1"/>
        <pt x="1024" y="4096" on="1"/>
        <pt x="512" y="4096" on="1"/>
        <pt x="512" y="4608" on="1"/>
        <pt x="1024" y="4608" on="1"/>
        <pt x="1024" y="5120" on="1"/>
        <pt x="1536" y="5120" on="1"/>
        <pt x="1536" y="2048" on="1"/>
        <pt x="2048" y="2048" on="1"/>
        <pt x="2048" y="1536" on="1"/>
      </contour>
    </TTGlyph>
    <TTGlyph name="p" xMin="0" yMin="1024" xMax="2560" yMax="4096">
      <contour>
        <pt x="2048" y="2048" on="1"/>
        <pt x="2048" y="3584" on="1"/>
        <pt x="2560" y="3584" on="1"/>
        <pt x="2560" y="2048" on="1"/>
      </contour>
      <contour>
        <pt x="0" y="1024" on="1"/>
        <pt x="0" y="4096" on="1"/>
        <pt x="2048" y="4096" on="1"/>
        <pt x="2048" y="3584" on="1"/>
        <pt x="512" y="3584" on="1"/>
        <pt x="512" y="2048" on="1"/>
        <pt x="2048" y="2048" on="1"/>
        <pt x="2048" y="1536" on="1"/>
        <pt x="512" y="1536" on="1"/>
        <pt x="512" y="1024" on="1"/>
      </contour>
    </TTGlyph>
    <TTGlyph name="parenleft" xMin="1024" yMin="1536" xMax="2048" yMax="5120">
      <contour>
        <pt x="1536" y="1536" on="1"/>
        <pt x="1536" y="2048" on="1"/>
        <pt x="2048" y="2048" on="1"/>
        <pt x="2048" y="1536" on="1"/>
      </contour>
      <contour>
        <pt x="1024" y="2048" on="1"/>
        <pt x="1024" y="4608" on="1"/>
        <pt x="1536" y="4608" on="1"/>
        <pt x="1536" y="2048" on="1"/>
      </contour>
      <contour>
        <pt x="1536" y="4608" on="1"/>
        <pt x="1536" y="5120" on="1"/>
        <pt x="2048" y="5120" on="1"/>
        <pt x="2048" y="4608" on="1"/>
      </contour>
    </TTGlyph>
    <TTGlyph name="parenright" xMin="1024" yMin="1536" xMax="2048" yMax="5120">
      <contour>
        <pt x="1024" y="1536" on="1"/>
        <pt x="1024" y="2048" on="1"/>
        <pt x="1536" y="2048" on="1"/>
        <pt x="1536" y="1536" on="1"/>
      </contour>
      <contour>
        <pt x="1536" y="2048" on="1"/>
        <pt x="1536" y="4608" on="1"/>
        <pt x="2048" y="4608" on="1"/>
        <pt x="2048" y="2048" on="1"/>
      </contour>
      <contour>
        <pt x="1024" y="4608" on="1"/>
        <pt x="1024" y="5120" on="1"/>
        <pt x="1536" y="5120" on="1"/>
        <pt x="1536" y="4608" on="1"/>
      </contour>
    </TTGlyph>
    <TTGlyph name="percent" xMin="0" yMin="1536" xMax="2560" yMax="5120">
      <contour>
        <pt x="0" y="1536" on="1"/>
        <pt x="0" y="2560" on="1"/>
        <pt x="512" y="2560" on="1"/>
        <pt x="512" y="1536" on="1"/>
      </contour>
      <contour>
        <pt x="1536" y="1536" on="1"/>
        <pt x="1536" y="2560" on="1"/>
        <pt x="2560" y="2560" on="1"/>
        <pt x="2560" y="1536" on="1"/>
      </contour>
      <contour>
        <pt x="512" y="2560" on="1"/>
        <pt x="512" y="3072" on="1"/>
        <pt x="1024" y="3072" on="1"/>
        <pt x="1024" y="2560" on="1"/>
      </contour>
      <contour>
        <pt x="1024" y="3072" on="1"/>
        <pt x="1024" y="3584" on="1"/>
        <pt x="1536" y="3584" on="1"/>
        <pt x="1536" y="3072" on="1"/>
      </contour>
      <contour>
        <pt x="1536" y="3584" on="1"/>
        <pt x="1536" y="4096" on="1"/>
        <pt x="2048" y="4096" on="1"/>
        <pt x="2048" y="3584" on="1"/>
      </contour>
      <contour>
        <pt x="0" y="4096" on="1"/>
        <pt x="0" y="5120" on="1"/>
        <pt x="1024" y="5120" on="1"/>
        <pt x="1024" y="4096" on="1"/>
      </contour>
      <contour>
        <pt x="2048" y="4096" on="1"/>
        <pt x="2048" y="5120" on="1"/>
        <pt x="2560" y="5120" on="1"/>
        <pt x="2560" y="4096" on="1"/>
      </contour>
    </TTGlyph>
    <TTGlyph name="period" xMin="512" yMin="1536" xMax="1536" yMax="2560">
      <contour>
        <pt x="512" y="1536" on="1"/>
        <pt x="512" y="2560" on="1"/>
        <pt x="1536" y="2560" on="1"/>
        <pt x="1536" y="1536" on="1"/>
      </contour>
    </TTGlyph>
    <TTGlyph name="plus" xMin="0" yMin="2048" xMax="2560" yMax="4608">
      <contour>
        <pt x="1024" y="2048" on="1"/>
        <pt x="1024" y="3072" on="1"/>
        <pt x="0" y="3072" on="1"/>
        <pt x="0" y="3584" on="1"/>
        <pt x="1024" y="3584" on="1"/>
        <pt x="1024" y="4608" on="1"/>
        <pt x="1536" y="4608" on="1"/>
        <pt x="1536" y="3584" on="1"/>
        <pt x="2560" y="3584" on="1"/>
        <pt x="2560" y="3072" on="1"/>
        <pt x="1536" y="3072" on="1"/>
        <pt x="1536" y="2048" on="1"/>
      </contour>
    </TTGlyph>
    <TTGlyph name="q" xMin="0" yMin="1024" xMax="2560" yMax="4096">
      <contour>
        <pt x="0" y="2048" on="1"/>
        <pt x="0" y="3584" on="1"/>
        <pt x="512" y="3584" on="1"/>
        <pt x="512" y="2048" on="1"/>
      </contour>
      <contour>
        <pt x="2048" y="1024" on="1"/>
        <pt x="2048" y="1536" on="1"/>
        <pt x="512" y="1536" on="1"/>
        <pt x="512" y="2048" on="1"/>
        <pt x="2048" y="2048" on="1"/>
        <pt x="2048" y="3584" on="1"/>
        <pt x="512" y="3584" on="1"/>
        <pt x="512" y="4096" on="1"/>
        <pt x="2560" y="4096" on="1"/>
        <pt x="2560" y="1024" on="1"/>
      </contour>
    </TTGlyph>
    <TTGlyph name="question" xMin="0" yMin="1536" xMax="2560" yMax="5120">
      <contour>
        <pt x="1024" y="1536" on="1"/>
        <pt x="1024" y="2048" on="1"/>
        <pt x="1536" y="2048" on="1"/>
        <pt x="1536" y="1536" on="1"/>
      </contour>
      <contour>
        <pt x="1024" y="2560" on="1"/>
        <pt x="1024" y="3584" on="1"/>
        <pt x="2048" y="3584" on="1"/>
        <pt x="2048" y="3072" on="1"/>
        <pt x="1536" y="3072" on="1"/>
        <pt x="1536" y="2560" on="1"/>
      </contour>
      <contour>
        <pt x="0" y="4096" on="1"/>
        <pt x="0" y="4608" on="1"/>
        <pt x="512" y="4608" on="1"/>
        <pt x="512" y="4096" on="1"/>
      </contour>
      <contour>
        <pt x="2048" y="3584" on="1"/>
        <pt x="2048" y="4608" on="1"/>
        <pt x="2560" y="4608" on="1"/>
        <pt x="2560" y="3584" on="1"/>
      </contour>
      <contour>
        <pt x="512" y="4608" on="1"/>
        <pt x="512" y="5120" on="1"/>
        <pt x="2048" y="5120" on="1"/>
        <pt x="2048" y="4608" on="1"/>
      </contour>
    </TTGlyph>
    <TTGlyph name="quotedbl" xMin="0" yMin="3584" xMax="2560" yMax="5120">
      <contour>
        <pt x="0" y="3584" on="1"/>
        <pt x="0" y="5120" on="1"/>
        <pt x="1024" y="5120" on="1"/>
        <pt x="1024" y="4096" on="1"/>
        <pt x="512" y="4096" on="1"/>
        <pt x="512" y="3584" on="1"/>
      </contour>
      <contour>
        <pt x="1536" y="3584" on="1"/>
        <pt x="1536" y="5120" on="1"/>
        <pt x="2560" y="5120" on="1"/>
        <pt x="2560" y="4096" on="1"/>
        <pt x="2048" y="4096" on="1"/>
        <pt x="2048" y="3584" on="1"/>
      </contour>
    </TTGlyph>
    <TTGlyph name="quotesingle" xMin="512" yMin="3584" xMax="1536" yMax="5120">
      <contour>
        <pt x="512" y="3584" on="1"/>
        <pt x="512" y="5120" on="1"/>
        <pt x="1536" y="5120" on="1"/>
        <pt x="1536" y="4096" on="1"/>
        <pt x="1024" y="4096" on="1"/>
        <pt x="1024" y="3584" on="1"/>
      </contour>
    </TTGlyph>
    <TTGlyph name="r" xMin="0" yMin="1536" xMax="2560" yMax="4096">
      <contour>
        <pt x="0" y="1536" on="1"/>
        <pt x="0" y="2048" on="1"/>
        <pt x="512" y="2048" on="1"/>
        <pt x="512" y="3584" on="1"/>
        <pt x="1024" y="3584" on="1"/>
        <pt x="1024" y="2048" on="1"/>
        <pt x="1536" y="2048" on="1"/>
        <pt x="1536" y="1536" on="1"/>
      </contour>
      <contour>
        <pt x="2048" y="3072" on="1"/>
        <pt x="2048" y="3584" on="1"/>
        <pt x="2560" y="3584" on="1"/>
        <pt x="2560" y="3072" on="1"/>
      </contour>
      <contour>
        <pt x="0" y="3584" on="1"/>
        <pt x="0" y="4096" on="1"/>
        <pt x="512" y="4096" on="1"/>
        <pt x="512" y="3584" on="1"/>
      </contour>
      <contour>
        <pt x="1024" y="3584" on="1"/>
        <pt x="1024" y="4096" on="1"/>
        <pt x="2048" y="4096" on="1"/>
        <pt x="2048" y="3584" on="1"/>
      </contour>
    </TTGlyph>
    <TTGlyph name="s" xMin="0" yMin="1536" xMax="2560" yMax="4096">
      <contour>
        <pt x="512" y="1536" on="1"/>
        <pt x="512" y="2048" on="1"/>
        <pt x="2048" y="2048" on="1"/>
        <pt x="2048" y="1536" on="1"/>
      </contour>
      <contour>
        <pt x="2048" y="2048" on="1"/>
        <pt x="2048" y="2560" on="1"/>
        <pt x="2560" y="2560" on="1"/>
        <pt x="2560" y="2048" on="1"/>
      </contour>
      <contour>
        <pt x="512" y="2560" on="1"/>
        <pt x="512" y="3072" on="1"/>
        <pt x="2048" y="3072" on="1"/>
        <pt x="2048" y="2560" on="1"/>
      </contour>
      <contour>
        <pt x="0" y="3072" on="1"/>
        <pt x="0" y="3584" on="1"/>
        <pt x="512" y="3584" on="1"/>
        <pt x="512" y="3072" on="1"/>
      </contour>
      <contour>
        <pt x="512" y="3584" on="1"/>
        <pt x="512" y="4096" on="1"/>
        <pt x="2048" y="4096" on="1"/>
        <pt x="2048" y="3584" on="1"/>
      </contour>
    </TTGlyph>
    <TTGlyph name="semicolon" xMin="512" yMin="1024" xMax="1536" yMax="4096">
      <contour>
        <pt x="512" y="1024" on="1"/>
        <pt x="512" y="2560" on="1"/>
        <pt x="1536" y="2560" on="1"/>
        <pt x="1536" y="1536" on="1"/>
        <pt x="1024" y="1536" on="1"/>
        <pt x="1024" y="1024" on="1"/>
      </contour>
      <contour>
        <pt x="512" y="3072" on="1"/>
        <pt x="512" y="4096" on="1"/>
        <pt x="1536" y="4096" on="1"/>
        <pt x="1536" y="3072" on="1"/>
      </contour>
    </TTGlyph>
    <TTGlyph name="seven" xMin="0" yMin="1536" xMax="2560" yMax="5120">
      <contour>
        <pt x="512" y="1536" on="1"/>
        <pt x="512" y="3072" on="1"/>
        <pt x="1024" y="3072" on="1"/>
        <pt x="1024" y="1536" on="1"/>
      </contour>
      <contour>
        <pt x="1024" y="3072" on="1"/>
        <pt x="1024" y="3584" on="1"/>
        <pt x="1536" y="3584" on="1"/>
        <pt x="1536" y="3072" on="1"/>
      </contour>
      <contour>
        <pt x="1536" y="3584" on="1"/>
        <pt x="1536" y="4096" on="1"/>
        <pt x="2048" y="4096" on="1"/>
        <pt x="2048" y="3584" on="1"/>
      </contour>
      <contour>
        <pt x="2048" y="4096" on="1"/>
        <pt x="2048" y="4608" on="1"/>
        <pt x="0" y="4608" on="1"/>
        <pt x="0" y="5120" on="1"/>
        <pt x="2560" y="5120" on="1"/>
        <pt x="2560" y="4096" on="1"/>
      </contour>
    </TTGlyph>
    <TTGlyph name="six" xMin="0" yMin="1536" xMax="2560" yMax="5120">
      <contour>
        <pt x="512" y="1536" on="1"/>
        <pt x="512" y="2048" on="1"/>
        <pt x="2048" y="2048" on="1"/>
        <pt x="2048" y="1536" on="1"/>
      </contour>
      <contour>
        <pt x="2048" y="2048" on="1"/>
        <pt x="2048" y="3072" on="1"/>
        <pt x="2560" y="3072" on="1"/>
        <pt x="2560" y="2048" on="1"/>
      </contour>
      <contour>
        <pt x="0" y="2048" on="1"/>
        <pt x="0" y="4096" on="1"/>
        <pt x="512" y="4096" on="1"/>
        <pt x="512" y="3584" on="1"/>
        <pt x="2048" y="3584" on="1"/>
        <pt x="2048" y="3072" on="1"/>
        <pt x="512" y="3072" on="1"/>
        <pt x="512" y="2048" on="1"/>
      </contour>
      <contour>
        <pt x="512" y="4096" on="1"/>
        <pt x="512" y="4608" on="1"/>
        <pt x="1024" y="4608" on="1"/>
        <pt x="1024" y="4096" on="1"/>
      </contour>
      <contour>
        <pt x="1024" y="4608" on="1"/>
        <pt x="1024" y="5120" on="1"/>
        <pt x="2048" y="5120" on="1"/>
        <pt x="2048" y="4608" on="1"/>
      </contour>
    </TTGlyph>
    <TTGlyph name="slash" xMin="0" yMin="2048" xMax="2560" yMax="4608">
      <contour>
        <pt x="0" y="2048" on="1"/>
        <pt x="0" y="2560" on="1"/>
        <pt x="512" y="2560" on="1"/>
        <pt x="512" y="2048" on="1"/>
      </contour>
      <contour>
        <pt x="512" y="2560" on="1"/>
        <pt x="512" y="3072" on="1"/>
        <pt x="1024" y="3072" on="1"/>
        <pt x="1024" y="2560" on="1"/>
      </contour>
      <contour>
        <pt x="1024" y="3072" on="1"/>
        <pt x="1024" y="3584" on="1"/>
        <pt x="1536" y="3584" on="1"/>
        <pt x="1536" y="3072" on="1"/>
      </contour>
      <contour>
        <pt x="1536" y="3584" on="1"/>
        <pt x="1536" y="4096" on="1"/>
        <pt x="2048" y="4096" on="1"/>
        <pt x="2048" y="3584" on="1"/>
      </contour>
      <contour>
        <pt x="2048" y="4096" on="1"/>
        <pt x="2048" y="4608" on="1"/>
        <pt x="2560" y="4608" on="1"/>
        <pt x="2560" y="4096" on="1"/>
      </contour>
    </TTGlyph>
    <TTGlyph name="t" xMin="0" yMin="1536" xMax="2048" yMax="4608">
      <contour>
        <pt x="1024" y="1536" on="1"/>
        <pt x="1024" y="2048" on="1"/>
        <pt x="1536" y="2048" on="1"/>
        <pt x="1536" y="1536" on="1"/>
      </contour>
      <contour>
        <pt x="1536" y="2048" on="1"/>
        <pt x="1536" y="2560" on="1"/>
        <pt x="2048" y="2560" on="1"/>
        <pt x="2048" y="2048" on="1"/>
      </contour>
      <contour>
        <pt x="512" y="2048" on="1"/>
        <pt x="512" y="3584" on="1"/>
        <pt x="0" y="3584" on="1"/>
        <pt x="0" y="4096" on="1"/>
        <pt x="512" y="4096" on="1"/>
        <pt x="512" y="4608" on="1"/>
        <pt x="1024" y="4608" on="1"/>
        <pt x="1024" y="4096" on="1"/>
        <pt x="2048" y="4096" on="1"/>
        <pt x="2048" y="3584" on="1"/>
        <pt x="1024" y="3584" on="1"/>
        <pt x="1024" y="2048" on="1"/>
      </contour>
    </TTGlyph>
    <TTGlyph name="three" xMin="0" yMin="1536" xMax="2560" yMax="5120">
      <contour>
        <pt x="512" y="1536" on="1"/>
        <pt x="512" y="2048" on="1"/>
        <pt x="2048" y="2048" on="1"/>
        <pt x="2048" y="1536" on="1"/>
      </contour>
      <contour>
        <pt x="0" y="2048" on="1"/>
        <pt x="0" y="2560" on="1"/>
        <pt x="512" y="2560" on="1"/>
        <pt x="512" y="2048" on="1"/>
      </contour>
      <contour>
        <pt x="2048" y="2048" on="1"/>
        <pt x="2048" y="3072" on="1"/>
        <pt x="2560" y="3072" on="1"/>
        <pt x="2560" y="2048" on="1"/>
      </contour>
      <contour>
        <pt x="512" y="3072" on="1"/>
        <pt x="512" y="3584" on="1"/>
        <pt x="2048" y="3584" on="1"/>
        <pt x="2048" y="3072" on="1"/>
      </contour>
      <contour>
        <pt x="0" y="4096" on="1"/>
        <pt x="0" y="4608" on="1"/>
        <pt x="512" y="4608" on="1"/>
        <pt x="512" y="4096" on="1"/>
      </contour>
      <contour>
        <pt x="2048" y="3584" on="1"/>
        <pt x="2048" y="4608" on="1"/>
        <pt x="2560" y="4608" on="1"/>
        <pt x="2560" y="3584" on="1"/>
      </contour>
      <contour>
        <pt x="512" y="4608" on="1"/>
        <pt x="512" y="5120" on="1"/>
        <pt x="2048" y="5120" on="1"/>
        <pt x="2048" y="4608" on="1"/>
      </contour>
    </TTGlyph>
    <TTGlyph name="two" xMin="0" yMin="1536" xMax="2560" yMax="5120">
      <contour>
        <pt x="0" y="1536" on="1"/>
        <pt x="0" y="2560" on="1"/>
        <pt x="512" y="2560" on="1"/>
        <pt x="512" y="2048" on="1"/>
        <pt x="2560" y="2048" on="1"/>
        <pt x="2560" y="1536" on="1"/>
      </contour>
      <contour>
        <pt x="512" y="2560" on="1"/>
        <pt x="512" y="3072" on="1"/>
        <pt x="1024" y="3072" on="1"/>
        <pt x="1024" y="2560" on="1"/>
      </contour>
      <contour>
        <pt x="1024" y="3072" on="1"/>
        <pt x="1024" y="3584" on="1"/>
        <pt x="2048" y="3584" on="1"/>
        <pt x="2048" y="3072" on="1"/>
      </contour>
      <contour>
        <pt x="0" y="4096" on="1"/>
        <pt x="0" y="4608" on="1"/>
        <pt x="512" y="4608" on="1"/>
        <pt x="512" y="4096" on="1"/>
      </contour>
      <contour>
        <pt x="2048" y="3584" on="1"/>
        <pt x="2048" y="4608" on="1"/>
        <pt x="2560" y="4608" on="1"/>
        <pt x="2560" y="3584" on="1"/>
      </contour>
      <contour>
        <pt x="512" y="4608" on="1"/>
        <pt x="512" y="5120" on="1"/>
        <pt x="2048" y="5120" on="1"/>
        <pt x="2048" y="4608" on="1"/>
      </contour>
    </TTGlyph>
    <TTGlyph name="u" xMin="0" yMin="1536" xMax="2048" yMax="4096">
      <contour>
        <pt x="512" y="1536" on="1"/>
        <pt x="512" y="2048" on="1"/>
        <pt x="1024" y="2048" on="1"/>
        <pt x="1024" y="1536" on="1"/>
      </contour>
      <contour>
        <pt x="0" y="2048" on="1"/>
        <pt x="0" y="4096" on="1"/>
        <pt x="512" y="4096" on="1"/>
        <pt x="512" y="2048" on="1"/>
      </contour>
      <contour>
        <pt x="1536" y="1536" on="1"/>
        <pt x="1536" y="2048" on="1"/>
        <pt x="1024" y="2048" on="1"/>
        <pt x="1024" y="2560" on="1"/>
        <pt x="1536" y="2560" on="1"/>
        <pt x="1536" y="4096" on="1"/>
        <pt x="2048" y="4096" on="1"/>
        <pt x="2048" y="1536" on="1"/>
      </contour>
    </TTGlyph>
    <TTGlyph name="underscore" xMin="-512" yMin="1024" xMax="2560" yMax="1536">
      <contour>
        <pt x="-512" y="1024" on="1"/>
        <pt x="-512" y="1536" on="1"/>
        <pt x="2560" y="1536" on="1"/>
        <pt x="2560" y="1024" on="1"/>
      </contour>
    </TTGlyph>
    <TTGlyph name="uni060C" xMin="512" yMin="1536" xMax="1536" yMax="3072">
      <contour>
        <pt x="512" y="1536" on="1"/>
        <pt x="512" y="3072" on="1"/>
        <pt x="1024" y="3072" on="1"/>
        <pt x="1024" y="2560" on="1"/>
        <pt x="1536" y="2560" on="1"/>
        <pt x="1536" y="1536" on="1"/>
      </contour>
    </TTGlyph>
    <TTGlyph name="uni061B" xMin="512" yMin="1536" xMax="1536" yMax="4608">
      <contour>
        <pt x="512" y="1536" on="1"/>
        <pt x="512" y="2560" on="1"/>
        <pt x="1536" y="2560" on="1"/>
        <pt x="1536" y="1536" on="1"/>
      </contour>
      <contour>
        <pt x="512" y="3072" on="1"/>
        <pt x="512" y="4608" on="1"/>
        <pt x="1024" y="4608" on="1"/>
        <pt x="1024" y="4096" on="1"/>
        <pt x="1536" y="4096" on="1"/>
        <pt x="1536" y="3072" on="1"/>
      </contour>
    </TTGlyph>
    <TTGlyph name="uni061E" xMin="0" yMin="2048" xMax="3072" yMax="4608">
      <contour>
        <pt x="0" y="2048" on="1"/>
        <pt x="0" y="3072" on="1"/>
        <pt x="1024" y="3072" on="1"/>
        <pt x="1024" y="2048" on="1"/>
      </contour>
      <contour>
        <pt x="2048" y="2048" on="1"/>
        <pt x="2048" y="3072" on="1"/>
        <pt x="3072" y="3072" on="1"/>
        <pt x="3072" y="2048" on="1"/>
      </contour>
      <contour>
        <pt x="1024" y="3584" on="1"/>
        <pt x="1024" y="4608" on="1"/>
        <pt x="2048" y="4608" on="1"/>
        <pt x="2048" y="3584" on="1"/>
      </contour>
    </TTGlyph>
    <TTGlyph name="uni061F" xMin="0" yMin="1536" xMax="2560" yMax="5120">
      <contour>
        <pt x="1024" y="1536" on="1"/>
        <pt x="1024" y="2048" on="1"/>
        <pt x="1536" y="2048" on="1"/>
        <pt x="1536" y="1536" on="1"/>
      </contour>
      <contour>
        <pt x="1024" y="2560" on="1"/>
        <pt x="1024" y="3072" on="1"/>
        <pt x="512" y="3072" on="1"/>
        <pt x="512" y="3584" on="1"/>
        <pt x="1536" y="3584" on="1"/>
        <pt x="1536" y="2560" on="1"/>
      </contour>
      <contour>
        <pt x="0" y="3584" on="1"/>
        <pt x="0" y="4608" on="1"/>
        <pt x="512" y="4608" on="1"/>
        <pt x="512" y="3584" on="1"/>
      </contour>
      <contour>
        <pt x="2048" y="4096" on="1"/>
        <pt x="2048" y="4608" on="1"/>
        <pt x="2560" y="4608" on="1"/>
        <pt x="2560" y="4096" on="1"/>
      </contour>
      <contour>
        <pt x="512" y="4608" on="1"/>
        <pt x="512" y="5120" on="1"/>
        <pt x="2048" y="5120" on="1"/>
        <pt x="2048" y="4608" on="1"/>
      </contour>
    </TTGlyph>
    <TTGlyph name="uni0621" xMin="0" yMin="1536" xMax="1536" yMax="2560">
      <contour>
        <pt x="0" y="1536" on="1"/>
        <pt x="0" y="2048" on="1"/>
        <pt x="512" y="2048" on="1"/>
        <pt x="512" y="2560" on="1"/>
        <pt x="1536" y="2560" on="1"/>
        <pt x="1536" y="2048" on="1"/>
        <pt x="1024" y="2048" on="1"/>
        <pt x="1024" y="1536" on="1"/>
      </contour>
    </TTGlyph>
    <TTGlyph name="uni0622" xMin="0" yMin="1536" xMax="1536" yMax="5632">
      <contour>
        <pt x="512" y="1536" on="1"/>
        <pt x="512" y="4608" on="1"/>
        <pt x="1024" y="4608" on="1"/>
        <pt x="1024" y="1536" on="1"/>
      </contour>
      <contour>
        <pt x="0" y="5120" on="1"/>
        <pt x="0" y="5632" on="1"/>
        <pt x="1536" y="5632" on="1"/>
        <pt x="1536" y="5120" on="1"/>
      </contour>
    </TTGlyph>
    <TTGlyph name="uni0623" xMin="0" yMin="1536" xMax="1536" yMax="6144">
      <contour>
        <pt x="512" y="1536" on="1"/>
        <pt x="512" y="4608" on="1"/>
        <pt x="1024" y="4608" on="1"/>
        <pt x="1024" y="1536" on="1"/>
      </contour>
      <contour>
        <pt x="0" y="5120" on="1"/>
        <pt x="0" y="5632" on="1"/>
        <pt x="512" y="5632" on="1"/>
        <pt x="512" y="6144" on="1"/>
        <pt x="1536" y="6144" on="1"/>
        <pt x="1536" y="5632" on="1"/>
        <pt x="1024" y="5632" on="1"/>
        <pt x="1024" y="5120" on="1"/>
      </contour>
    </TTGlyph>
    <TTGlyph name="uni0624" xMin="512" yMin="0" xMax="2560" yMax="5120">
      <contour>
        <pt x="512" y="0" on="1"/>
        <pt x="512" y="512" on="1"/>
        <pt x="2048" y="512" on="1"/>
        <pt x="2048" y="0" on="1"/>
      </contour>
      <contour>
        <pt x="512" y="2048" on="1"/>
        <pt x="512" y="3072" on="1"/>
        <pt x="1024" y="3072" on="1"/>
        <pt x="1024" y="2048" on="1"/>
      </contour>
      <contour>
        <pt x="2048" y="512" on="1"/>
        <pt x="2048" y="1536" on="1"/>
        <pt x="1024" y="1536" on="1"/>
        <pt x="1024" y="2048" on="1"/>
        <pt x="2048" y="2048" on="1"/>
        <pt x="2048" y="3072" on="1"/>
        <pt x="1024" y="3072" on="1"/>
        <pt x="1024" y="3584" on="1"/>
        <pt x="2560" y="3584" on="1"/>
        <pt x="2560" y="512" on="1"/>
      </contour>
      <contour>
        <pt x="512" y="4096" on="1"/>
        <pt x="512" y="4608" on="1"/>
        <pt x="1024" y="4608" on="1"/>
        <pt x="1024" y="5120" on="1"/>
        <pt x="2048" y="5120" on="1"/>
        <pt x="2048" y="4608" on="1"/>
        <pt x="1536" y="4608" on="1"/>
        <pt x="1536" y="4096" on="1"/>
      </contour>
    </TTGlyph>
    <TTGlyph name="uni0625" xMin="0" yMin="0" xMax="1536" yMax="4608">
      <contour>
        <pt x="0" y="0" on="1"/>
        <pt x="0" y="512" on="1"/>
        <pt x="512" y="512" on="1"/>
        <pt x="512" y="1024" on="1"/>
        <pt x="1536" y="1024" on="1"/>
        <pt x="1536" y="512" on="1"/>
        <pt x="1024" y="512" on="1"/>
        <pt x="1024" y="0" on="1"/>
      </contour>
      <contour>
        <pt x="512" y="1536" on="1"/>
        <pt x="512" y="4608" on="1"/>
        <pt x="1024" y="4608" on="1"/>
        <pt x="1024" y="1536" on="1"/>
      </contour>
    </TTGlyph>
    <TTGlyph name="uni0626" xMin="0" yMin="1536" xMax="3072" yMax="4608">
      <contour>
        <pt x="512" y="1536" on="1"/>
        <pt x="512" y="2048" on="1"/>
        <pt x="2560" y="2048" on="1"/>
        <pt x="2560" y="1536" on="1"/>
      </contour>
      <contour>
        <pt x="2560" y="2048" on="1"/>
        <pt x="2560" y="2560" on="1"/>
        <pt x="3072" y="2560" on="1"/>
        <pt x="3072" y="2048" on="1"/>
      </contour>
      <contour>
        <pt x="0" y="2048" on="1"/>
        <pt x="0" y="3072" on="1"/>
        <pt x="512" y="3072" on="1"/>
        <pt x="512" y="2048" on="1"/>
      </contour>
      <contour>
        <pt x="2048" y="2560" on="1"/>
        <pt x="2048" y="3072" on="1"/>
        <pt x="2560" y="3072" on="1"/>
        <pt x="2560" y="2560" on="1"/>
      </contour>
      <contour>
        <pt x="2560" y="3072" on="1"/>
        <pt x="2560" y="3584" on="1"/>
        <pt x="3072" y="3584" on="1"/>
        <pt x="3072" y="3072" on="1"/>
      </contour>
      <contour>
        <pt x="512" y="3584" on="1"/>
        <pt x="512" y="4096" on="1"/>
        <pt x="1024" y="4096" on="1"/>
        <pt x="1024" y="4608" on="1"/>
        <pt x="2048" y="4608" on="1"/>
        <pt x="2048" y="4096" on="1"/>
        <pt x="1536" y="4096" on="1"/>
        <pt x="1536" y="3584" on="1"/>
      </contour>
    </TTGlyph>
    <TTGlyph name="uni0627" xMin="512" yMin="1536" xMax="1024" yMax="4608">
      <contour>
        <pt x="512" y="1536" on="1"/>
        <pt x="512" y="4608" on="1"/>
        <pt x="1024" y="4608" on="1"/>
        <pt x="1024" y="1536" on="1"/>
      </contour>
    </TTGlyph>
    <TTGlyph name="uni0628" xMin="0" yMin="512" xMax="3072" yMax="3584">
      <contour>
        <pt x="1536" y="512" on="1"/>
        <pt x="1536" y="1024" on="1"/>
        <pt x="2048" y="1024" on="1"/>
        <pt x="2048" y="512" on="1"/>
      </contour>
      <contour>
        <pt x="0" y="2048" on="1"/>
        <pt x="0" y="3584" on="1"/>
        <pt x="512" y="3584" on="1"/>
        <pt x="512" y="2048" on="1"/>
      </contour>
      <contour>
        <pt x="512" y="1536" on="1"/>
        <pt x="512" y="2048" on="1"/>
        <pt x="2560" y="2048" on="1"/>
        <pt x="2560" y="3584" on="1"/>
        <pt x="3072" y="3584" on="1"/>
        <pt x="3072" y="1536" on="1"/>
      </contour>
    </TTGlyph>
    <TTGlyph name="uni0629" xMin="0" yMin="1536" xMax="2048" yMax="4608">
      <contour>
        <pt x="512" y="1536" on="1"/>
        <pt x="512" y="2048" on="1"/>
        <pt x="1536" y="2048" on="1"/>
        <pt x="1536" y="1536" on="1"/>
      </contour>
      <contour>
        <pt x="1536" y="2048" on="1"/>
        <pt x="1536" y="3072" on="1"/>
        <pt x="2048" y="3072" on="1"/>
        <pt x="2048" y="2048" on="1"/>
      </contour>
      <contour>
        <pt x="0" y="2048" on="1"/>
        <pt x="0" y="3584" on="1"/>
        <pt x="1536" y="3584" on="1"/>
        <pt x="1536" y="3072" on="1"/>
        <pt x="512" y="3072" on="1"/>
        <pt x="512" y="2048" on="1"/>
      </contour>
      <contour>
        <pt x="0" y="4096" on="1"/>
        <pt x="0" y="4608" on="1"/>
        <pt x="1536" y="4608" on="1"/>
        <pt x="1536" y="4096" on="1"/>
      </contour>
    </TTGlyph>
    <TTGlyph name="uni062A" xMin="0" yMin="1536" xMax="3072" yMax="4608">
      <contour>
        <pt x="0" y="2048" on="1"/>
        <pt x="0" y="3584" on="1"/>
        <pt x="512" y="3584" on="1"/>
        <pt x="512" y="2048" on="1"/>
      </contour>
      <contour>
        <pt x="512" y="1536" on="1"/>
        <pt x="512" y="2048" on="1"/>
        <pt x="2560" y="2048" on="1"/>
        <pt x="2560" y="3584" on="1"/>
        <pt x="3072" y="3584" on="1"/>
        <pt x="3072" y="1536" on="1"/>
      </contour>
      <contour>
        <pt x="512" y="4096" on="1"/>
        <pt x="512" y="4608" on="1"/>
        <pt x="2048" y="4608" on="1"/>
        <pt x="2048" y="4096" on="1"/>
      </contour>
    </TTGlyph>
    <TTGlyph name="uni062B" xMin="0" yMin="1536" xMax="3072" yMax="5120">
      <contour>
        <pt x="0" y="2048" on="1"/>
        <pt x="0" y="3584" on="1"/>
        <pt x="512" y="3584" on="1"/>
        <pt x="512" y="2048" on="1"/>
      </contour>
      <contour>
        <pt x="512" y="1536" on="1"/>
        <pt x="512" y="2048" on="1"/>
        <pt x="2560" y="2048" on="1"/>
        <pt x="2560" y="3584" on="1"/>
        <pt x="3072" y="3584" on="1"/>
        <pt x="3072" y="1536" on="1"/>
      </contour>
      <contour>
        <pt x="512" y="4096" on="1"/>
        <pt x="512" y="4608" on="1"/>
        <pt x="1024" y="4608" on="1"/>
        <pt x="1024" y="5120" on="1"/>
        <pt x="1536" y="5120" on="1"/>
        <pt x="1536" y="4608" on="1"/>
        <pt x="2048" y="4608" on="1"/>
        <pt x="2048" y="4096" on="1"/>
      </contour>
    </TTGlyph>
    <TTGlyph name="uni062C" xMin="0" yMin="0" xMax="2048" yMax="3584">
      <contour>
        <pt x="512" y="0" on="1"/>
        <pt x="512" y="512" on="1"/>
        <pt x="2048" y="512" on="1"/>
        <pt x="2048" y="0" on="1"/>
      </contour>
      <contour>
        <pt x="0" y="512" on="1"/>
        <pt x="0" y="2048" on="1"/>
        <pt x="1536" y="2048" on="1"/>
        <pt x="1536" y="3072" on="1"/>
        <pt x="2048" y="3072" on="1"/>
        <pt x="2048" y="1536" on="1"/>
        <pt x="1536" y="1536" on="1"/>
        <pt x="1536" y="1024" on="1"/>
        <pt x="1024" y="1024" on="1"/>
        <pt x="1024" y="1536" on="1"/>
        <pt x="512" y="1536" on="1"/>
        <pt x="512" y="512" on="1"/>
      </contour>
      <contour>
        <pt x="0" y="3072" on="1"/>
        <pt x="0" y="3584" on="1"/>
        <pt x="1536" y="3584" on="1"/>
        <pt x="1536" y="3072" on="1"/>
      </contour>
    </TTGlyph>
    <TTGlyph name="uni062D" xMin="0" yMin="0" xMax="2048" yMax="3584">
      <contour>
        <pt x="512" y="0" on="1"/>
        <pt x="512" y="512" on="1"/>
        <pt x="2048" y="512" on="1"/>
        <pt x="2048" y="0" on="1"/>
      </contour>
      <contour>
        <pt x="0" y="512" on="1"/>
        <pt x="0" y="2048" on="1"/>
        <pt x="1536" y="2048" on="1"/>
        <pt x="1536" y="3072" on="1"/>
        <pt x="2048" y="3072" on="1"/>
        <pt x="2048" y="1536" on="1"/>
        <pt x="512" y="1536" on="1"/>
        <pt x="512" y="512" on="1"/>
      </contour>
      <contour>
        <pt x="0" y="3072" on="1"/>
        <pt x="0" y="3584" on="1"/>
        <pt x="1536" y="3584" on="1"/>
        <pt x="1536" y="3072" on="1"/>
      </contour>
    </TTGlyph>
    <TTGlyph name="uni062E" xMin="0" yMin="0" xMax="2048" yMax="4608">
      <contour>
        <pt x="512" y="0" on="1"/>
        <pt x="512" y="512" on="1"/>
        <pt x="2048" y="512" on="1"/>
        <pt x="2048" y="0" on="1"/>
      </contour>
      <contour>
        <pt x="0" y="512" on="1"/>
        <pt x="0" y="2048" on="1"/>
        <pt x="1536" y="2048" on="1"/>
        <pt x="1536" y="3072" on="1"/>
        <pt x="2048" y="3072" on="1"/>
        <pt x="2048" y="1536" on="1"/>
        <pt x="512" y="1536" on="1"/>
        <pt x="512" y="512" on="1"/>
      </contour>
      <contour>
        <pt x="0" y="3072" on="1"/>
        <pt x="0" y="3584" on="1"/>
        <pt x="1536" y="3584" on="1"/>
        <pt x="1536" y="3072" on="1"/>
      </contour>
      <contour>
        <pt x="1024" y="4096" on="1"/>
        <pt x="1024" y="4608" on="1"/>
        <pt x="1536" y="4608" on="1"/>
        <pt x="1536" y="4096" on="1"/>
      </contour>
    </TTGlyph>
    <TTGlyph name="uni062F" xMin="512" yMin="1536" xMax="2560" yMax="3584">
      <contour>
        <pt x="512" y="1536" on="1"/>
        <pt x="512" y="2048" on="1"/>
        <pt x="2048" y="2048" on="1"/>
        <pt x="2048" y="3072" on="1"/>
        <pt x="2560" y="3072" on="1"/>
        <pt x="2560" y="1536" on="1"/>
      </contour>
      <contour>
        <pt x="1024" y="3072" on="1"/>
        <pt x="1024" y="3584" on="1"/>
        <pt x="2048" y="3584" on="1"/>
        <pt x="2048" y="3072" on="1"/>
      </contour>
    </TTGlyph>
    <TTGlyph name="uni0630" xMin="512" yMin="1536" xMax="2560" yMax="4608">
      <contour>
        <pt x="512" y="1536" on="1"/>
        <pt x="512" y="2048" on="1"/>
        <pt x="2048" y="2048" on="1"/>
        <pt x="2048" y="3072" on="1"/>
        <pt x="2560" y="3072" on="1"/>
        <pt x="2560" y="1536" on="1"/>
      </contour>
      <contour>
        <pt x="1024" y="3072" on="1"/>
        <pt x="1024" y="3584" on="1"/>
        <pt x="2048" y="3584" on="1"/>
        <pt x="2048" y="3072" on="1"/>
      </contour>
      <contour>
        <pt x="1024" y="4096" on="1"/>
        <pt x="1024" y="4608" on="1"/>
        <pt x="1536" y="4608" on="1"/>
        <pt x="1536" y="4096" on="1"/>
      </contour>
    </TTGlyph>
    <TTGlyph name="uni0631" xMin="0" yMin="0" xMax="2048" yMax="2560">
      <contour>
        <pt x="0" y="0" on="1"/>
        <pt x="0" y="512" on="1"/>
        <pt x="1536" y="512" on="1"/>
        <pt x="1536" y="0" on="1"/>
      </contour>
      <contour>
        <pt x="1536" y="512" on="1"/>
        <pt x="1536" y="2560" on="1"/>
        <pt x="2048" y="2560" on="1"/>
        <pt x="2048" y="512" on="1"/>
      </contour>
    </TTGlyph>
    <TTGlyph name="uni0632" xMin="0" yMin="0" xMax="2048" yMax="3584">
      <contour>
        <pt x="0" y="0" on="1"/>
        <pt x="0" y="512" on="1"/>
        <pt x="1536" y="512" on="1"/>
        <pt x="1536" y="0" on="1"/>
      </contour>
      <contour>
        <pt x="1536" y="512" on="1"/>
        <pt x="1536" y="2560" on="1"/>
        <pt x="2048" y="2560" on="1"/>
        <pt x="2048" y="512" on="1"/>
      </contour>
      <contour>
        <pt x="1536" y="3072" on="1"/>
        <pt x="1536" y="3584" on="1"/>
        <pt x="2048" y="3584" on="1"/>
        <pt x="2048" y="3072" on="1"/>
      </contour>
    </TTGlyph>
    <TTGlyph name="uni0633" xMin="0" yMin="1024" xMax="4096" yMax="3072">
      <contour>
        <pt x="512" y="1024" on="1"/>
        <pt x="512" y="1536" on="1"/>
        <pt x="1536" y="1536" on="1"/>
        <pt x="1536" y="1024" on="1"/>
      </contour>
      <contour>
        <pt x="0" y="1536" on="1"/>
        <pt x="0" y="3072" on="1"/>
        <pt x="512" y="3072" on="1"/>
        <pt x="512" y="1536" on="1"/>
      </contour>
      <contour>
        <pt x="1536" y="1536" on="1"/>
        <pt x="1536" y="3072" on="1"/>
        <pt x="2048" y="3072" on="1"/>
        <pt x="2048" y="2048" on="1"/>
        <pt x="2560" y="2048" on="1"/>
        <pt x="2560" y="3072" on="1"/>
        <pt x="3072" y="3072" on="1"/>
        <pt x="3072" y="2048" on="1"/>
        <pt x="3584" y="2048" on="1"/>
        <pt x="3584" y="1536" on="1"/>
      </contour>
      <contour>
        <pt x="3584" y="2048" on="1"/>
        <pt x="3584" y="3072" on="1"/>
        <pt x="4096" y="3072" on="1"/>
        <pt x="4096" y="2048" on="1"/>
      </contour>
    </TTGlyph>
    <TTGlyph name="uni0634" xMin="0" yMin="1024" xMax="4096" yMax="4608">
      <contour>
        <pt x="512" y="1024" on="1"/>
        <pt x="512" y="1536" on="1"/>
        <pt x="1536" y="1536" on="1"/>
        <pt x="1536" y="1024" on="1"/>
      </contour>
      <contour>
        <pt x="0" y="1536" on="1"/>
        <pt x="0" y="3072" on="1"/>
        <pt x="512" y="3072" on="1"/>
        <pt x="512" y="1536" on="1"/>
      </contour>
      <contour>
        <pt x="1536" y="1536" on="1"/>
        <pt x="1536" y="3072" on="1"/>
        <pt x="2048" y="3072" on="1"/>
        <pt x="2048" y="2048" on="1"/>
        <pt x="2560" y="2048" on="1"/>
        <pt x="2560" y="3072" on="1"/>
        <pt x="3072" y="3072" on="1"/>
        <pt x="3072" y="2048" on="1"/>
        <pt x="3584" y="2048" on="1"/>
        <pt x="3584" y="1536" on="1"/>
      </contour>
      <contour>
        <pt x="3584" y="2048" on="1"/>
        <pt x="3584" y="3072" on="1"/>
        <pt x="4096" y="3072" on="1"/>
        <pt x="4096" y="2048" on="1"/>
      </contour>
      <contour>
        <pt x="2048" y="3584" on="1"/>
        <pt x="2048" y="4096" on="1"/>
        <pt x="2560" y="4096" on="1"/>
        <pt x="2560" y="4608" on="1"/>
        <pt x="3072" y="4608" on="1"/>
        <pt x="3072" y="4096" on="1"/>
        <pt x="3584" y="4096" on="1"/>
        <pt x="3584" y="3584" on="1"/>
      </contour>
    </TTGlyph>
    <TTGlyph name="uni0635" xMin="0" yMin="1024" xMax="4096" yMax="3584">
      <contour>
        <pt x="512" y="1024" on="1"/>
        <pt x="512" y="1536" on="1"/>
        <pt x="1536" y="1536" on="1"/>
        <pt x="1536" y="1024" on="1"/>
      </contour>
      <contour>
        <pt x="0" y="1536" on="1"/>
        <pt x="0" y="3072" on="1"/>
        <pt x="512" y="3072" on="1"/>
        <pt x="512" y="1536" on="1"/>
      </contour>
      <contour>
        <pt x="1536" y="1536" on="1"/>
        <pt x="1536" y="3072" on="1"/>
        <pt x="2560" y="3072" on="1"/>
        <pt x="2560" y="2560" on="1"/>
        <pt x="2048" y="2560" on="1"/>
        <pt x="2048" y="2048" on="1"/>
        <pt x="3584" y="2048" on="1"/>
        <pt x="3584" y="1536" on="1"/>
      </contour>
      <contour>
        <pt x="3584" y="2048" on="1"/>
        <pt x="3584" y="3072" on="1"/>
        <pt x="4096" y="3072" on="1"/>
        <pt x="4096" y="2048" on="1"/>
      </contour>
      <contour>
        <pt x="2560" y="3072" on="1"/>
        <pt x="2560" y="3584" on="1"/>
        <pt x="3584" y="3584" on="1"/>
        <pt x="3584" y="3072" on="1"/>
      </contour>
    </TTGlyph>
    <TTGlyph name="uni0636" xMin="0" yMin="1024" xMax="4096" yMax="4608">
      <contour>
        <pt x="512" y="1024" on="1"/>
        <pt x="512" y="1536" on="1"/>
        <pt x="1536" y="1536" on="1"/>
        <pt x="1536" y="1024" on="1"/>
      </contour>
      <contour>
        <pt x="0" y="1536" on="1"/>
        <pt x="0" y="3072" on="1"/>
        <pt x="512" y="3072" on="1"/>
        <pt x="512" y="1536" on="1"/>
      </contour>
      <contour>
        <pt x="1536" y="1536" on="1"/>
        <pt x="1536" y="3072" on="1"/>
        <pt x="2560" y="3072" on="1"/>
        <pt x="2560" y="2560" on="1"/>
        <pt x="2048" y="2560" on="1"/>
        <pt x="2048" y="2048" on="1"/>
        <pt x="3584" y="2048" on="1"/>
        <pt x="3584" y="1536" on="1"/>
      </contour>
      <contour>
        <pt x="3584" y="2048" on="1"/>
        <pt x="3584" y="3072" on="1"/>
        <pt x="4096" y="3072" on="1"/>
        <pt x="4096" y="2048" on="1"/>
      </contour>
      <contour>
        <pt x="2560" y="3072" on="1"/>
        <pt x="2560" y="3584" on="1"/>
        <pt x="3584" y="3584" on="1"/>
        <pt x="3584" y="3072" on="1"/>
      </contour>
      <contour>
        <pt x="2560" y="4096" on="1"/>
        <pt x="2560" y="4608" on="1"/>
        <pt x="3072" y="4608" on="1"/>
        <pt x="3072" y="4096" on="1"/>
      </contour>
    </TTGlyph>
    <TTGlyph name="uni0637" xMin="0" yMin="1536" xMax="3072" yMax="4608">
      <contour>
        <pt x="2560" y="2048" on="1"/>
        <pt x="2560" y="3072" on="1"/>
        <pt x="3072" y="3072" on="1"/>
        <pt x="3072" y="2048" on="1"/>
      </contour>
      <contour>
        <pt x="1536" y="3072" on="1"/>
        <pt x="1536" y="3584" on="1"/>
        <pt x="2560" y="3584" on="1"/>
        <pt x="2560" y="3072" on="1"/>
      </contour>
      <contour>
        <pt x="0" y="1536" on="1"/>
        <pt x="0" y="2048" on="1"/>
        <pt x="512" y="2048" on="1"/>
        <pt x="512" y="4608" on="1"/>
        <pt x="1024" y="4608" on="1"/>
        <pt x="1024" y="3072" on="1"/>
        <pt x="1536" y="3072" on="1"/>
        <pt x="1536" y="2560" on="1"/>
        <pt x="1024" y="2560" on="1"/>
        <pt x="1024" y="2048" on="1"/>
        <pt x="2560" y="2048" on="1"/>
        <pt x="2560" y="1536" on="1"/>
      </contour>
    </TTGlyph>
    <TTGlyph name="uni0638" xMin="0" yMin="1536" xMax="3072" yMax="4608">
      <contour>
        <pt x="2560" y="2048" on="1"/>
        <pt x="2560" y="3072" on="1"/>
        <pt x="3072" y="3072" on="1"/>
        <pt x="3072" y="2048" on="1"/>
      </contour>
      <contour>
        <pt x="1536" y="3072" on="1"/>
        <pt x="1536" y="3584" on="1"/>
        <pt x="2560" y="3584" on="1"/>
        <pt x="2560" y="3072" on="1"/>
      </contour>
      <contour>
        <pt x="0" y="1536" on="1"/>
        <pt x="0" y="2048" on="1"/>
        <pt x="512" y="2048" on="1"/>
        <pt x="512" y="4608" on="1"/>
        <pt x="1024" y="4608" on="1"/>
        <pt x="1024" y="3072" on="1"/>
        <pt x="1536" y="3072" on="1"/>
        <pt x="1536" y="2560" on="1"/>
        <pt x="1024" y="2560" on="1"/>
        <pt x="1024" y="2048" on="1"/>
        <pt x="2560" y="2048" on="1"/>
        <pt x="2560" y="1536" on="1"/>
      </contour>
      <contour>
        <pt x="1536" y="4096" on="1"/>
        <pt x="1536" y="4608" on="1"/>
        <pt x="2048" y="4608" on="1"/>
        <pt x="2048" y="4096" on="1"/>
      </contour>
    </TTGlyph>
    <TTGlyph name="uni0639" xMin="0" yMin="512" xMax="2048" yMax="3584">
      <contour>
        <pt x="512" y="512" on="1"/>
        <pt x="512" y="1024" on="1"/>
        <pt x="2048" y="1024" on="1"/>
        <pt x="2048" y="512" on="1"/>
      </contour>
      <contour>
        <pt x="0" y="1024" on="1"/>
        <pt x="0" y="2048" on="1"/>
        <pt x="512" y="2048" on="1"/>
        <pt x="512" y="1024" on="1"/>
      </contour>
      <contour>
        <pt x="512" y="2048" on="1"/>
        <pt x="512" y="2560" on="1"/>
        <pt x="2048" y="2560" on="1"/>
        <pt x="2048" y="2048" on="1"/>
      </contour>
      <contour>
        <pt x="0" y="2560" on="1"/>
        <pt x="0" y="3072" on="1"/>
        <pt x="512" y="3072" on="1"/>
        <pt x="512" y="2560" on="1"/>
      </contour>
      <contour>
        <pt x="512" y="3072" on="1"/>
        <pt x="512" y="3584" on="1"/>
        <pt x="1536" y="3584" on="1"/>
        <pt x="1536" y="3072" on="1"/>
      </contour>
    </TTGlyph>
    <TTGlyph name="uni063A" xMin="0" yMin="512" xMax="2048" yMax="4608">
      <contour>
        <pt x="512" y="512" on="1"/>
        <pt x="512" y="1024" on="1"/>
        <pt x="2048" y="1024" on="1"/>
        <pt x="2048" y="512" on="1"/>
      </contour>
      <contour>
        <pt x="0" y="1024" on="1"/>
        <pt x="0" y="2048" on="1"/>
        <pt x="512" y="2048" on="1"/>
        <pt x="512" y="1024" on="1"/>
      </contour>
      <contour>
        <pt x="512" y="2048" on="1"/>
        <pt x="512" y="2560" on="1"/>
        <pt x="2048" y="2560" on="1"/>
        <pt x="2048" y="2048" on="1"/>
      </contour>
      <contour>
        <pt x="0" y="2560" on="1"/>
        <pt x="0" y="3072" on="1"/>
        <pt x="512" y="3072" on="1"/>
        <pt x="512" y="2560" on="1"/>
      </contour>
      <contour>
        <pt x="512" y="3072" on="1"/>
        <pt x="512" y="3584" on="1"/>
        <pt x="1536" y="3584" on="1"/>
        <pt x="1536" y="3072" on="1"/>
      </contour>
      <contour>
        <pt x="512" y="4096" on="1"/>
        <pt x="512" y="4608" on="1"/>
        <pt x="1024" y="4608" on="1"/>
        <pt x="1024" y="4096" on="1"/>
      </contour>
    </TTGlyph>
    <TTGlyph name="uni0640" xMin="0" yMin="1536" xMax="3072" yMax="2048">
      <contour>
        <pt x="0" y="1536" on="1"/>
        <pt x="0" y="2048" on="1"/>
        <pt x="3072" y="2048" on="1"/>
        <pt x="3072" y="1536" on="1"/>
      </contour>
    </TTGlyph>
    <TTGlyph name="uni0641" xMin="0" yMin="1536" xMax="3584" yMax="5120">
      <contour>
        <pt x="0" y="2048" on="1"/>
        <pt x="0" y="3584" on="1"/>
        <pt x="512" y="3584" on="1"/>
        <pt x="512" y="2048" on="1"/>
      </contour>
      <contour>
        <pt x="1536" y="2560" on="1"/>
        <pt x="1536" y="3584" on="1"/>
        <pt x="2048" y="3584" on="1"/>
        <pt x="2048" y="2560" on="1"/>
      </contour>
      <contour>
        <pt x="512" y="1536" on="1"/>
        <pt x="512" y="2048" on="1"/>
        <pt x="2048" y="2048" on="1"/>
        <pt x="2048" y="2560" on="1"/>
        <pt x="3072" y="2560" on="1"/>
        <pt x="3072" y="3584" on="1"/>
        <pt x="2048" y="3584" on="1"/>
        <pt x="2048" y="4096" on="1"/>
        <pt x="3584" y="4096" on="1"/>
        <pt x="3584" y="1536" on="1"/>
      </contour>
      <contour>
        <pt x="2560" y="4608" on="1"/>
        <pt x="2560" y="5120" on="1"/>
        <pt x="3072" y="5120" on="1"/>
        <pt x="3072" y="4608" on="1"/>
      </contour>
    </TTGlyph>
    <TTGlyph name="uni0642" xMin="0" yMin="512" xMax="3072" yMax="4608">
      <contour>
        <pt x="512" y="512" on="1"/>
        <pt x="512" y="1024" on="1"/>
        <pt x="2560" y="1024" on="1"/>
        <pt x="2560" y="512" on="1"/>
      </contour>
      <contour>
        <pt x="0" y="1024" on="1"/>
        <pt x="0" y="2560" on="1"/>
        <pt x="512" y="2560" on="1"/>
        <pt x="512" y="1024" on="1"/>
      </contour>
      <contour>
        <pt x="1024" y="2048" on="1"/>
        <pt x="1024" y="3072" on="1"/>
        <pt x="1536" y="3072" on="1"/>
        <pt x="1536" y="2048" on="1"/>
      </contour>
      <contour>
        <pt x="2560" y="1024" on="1"/>
        <pt x="2560" y="1536" on="1"/>
        <pt x="1536" y="1536" on="1"/>
        <pt x="1536" y="2048" on="1"/>
        <pt x="2560" y="2048" on="1"/>
        <pt x="2560" y="3072" on="1"/>
        <pt x="1536" y="3072" on="1"/>
        <pt x="1536" y="3584" on="1"/>
        <pt x="3072" y="3584" on="1"/>
        <pt x="3072" y="1024" on="1"/>
      </contour>
      <contour>
        <pt x="1536" y="4096" on="1"/>
        <pt x="1536" y="4608" on="1"/>
        <pt x="3072" y="4608" on="1"/>
        <pt x="3072" y="4096" on="1"/>
      </contour>
    </TTGlyph>
    <TTGlyph name="uni0643" xMin="0" yMin="1536" xMax="3072" yMax="4608">
      <contour>
        <pt x="0" y="2048" on="1"/>
        <pt x="0" y="3072" on="1"/>
        <pt x="512" y="3072" on="1"/>
        <pt x="512" y="2048" on="1"/>
      </contour>
      <contour>
        <pt x="512" y="3584" on="1"/>
        <pt x="512" y="4096" on="1"/>
        <pt x="1024" y="4096" on="1"/>
        <pt x="1024" y="4608" on="1"/>
        <pt x="2048" y="4608" on="1"/>
        <pt x="2048" y="4096" on="1"/>
        <pt x="1536" y="4096" on="1"/>
        <pt x="1536" y="3584" on="1"/>
      </contour>
      <contour>
        <pt x="512" y="1536" on="1"/>
        <pt x="512" y="2048" on="1"/>
        <pt x="2560" y="2048" on="1"/>
        <pt x="2560" y="4608" on="1"/>
        <pt x="3072" y="4608" on="1"/>
        <pt x="3072" y="1536" on="1"/>
      </contour>
    </TTGlyph>
    <TTGlyph name="uni0644" xMin="0" yMin="512" xMax="2560" yMax="4608">
      <contour>
        <pt x="512" y="512" on="1"/>
        <pt x="512" y="1024" on="1"/>
        <pt x="2048" y="1024" on="1"/>
        <pt x="2048" y="512" on="1"/>
      </contour>
      <contour>
        <pt x="0" y="1024" on="1"/>
        <pt x="0" y="2048" on="1"/>
        <pt x="512" y="2048" on="1"/>
        <pt x="512" y="1024" on="1"/>
      </contour>
      <contour>
        <pt x="512" y="2048" on="1"/>
        <pt x="512" y="2560" on="1"/>
        <pt x="1024" y="2560" on="1"/>
        <pt x="1024" y="2048" on="1"/>
      </contour>
      <contour>
        <pt x="2048" y="1024" on="1"/>
        <pt x="2048" y="4608" on="1"/>
        <pt x="2560" y="4608" on="1"/>
        <pt x="2560" y="1024" on="1"/>
      </contour>
    </TTGlyph>
    <TTGlyph name="uni0645" xMin="0" yMin="0" xMax="2560" yMax="3584">
      <contour>
        <pt x="0" y="0" on="1"/>
        <pt x="0" y="2048" on="1"/>
        <pt x="512" y="2048" on="1"/>
        <pt x="512" y="3584" on="1"/>
        <pt x="2048" y="3584" on="1"/>
        <pt x="2048" y="3072" on="1"/>
        <pt x="1024" y="3072" on="1"/>
        <pt x="1024" y="2048" on="1"/>
        <pt x="2048" y="2048" on="1"/>
        <pt x="2048" y="3072" on="1"/>
        <pt x="2560" y="3072" on="1"/>
        <pt x="2560" y="1536" on="1"/>
        <pt x="512" y="1536" on="1"/>
        <pt x="512" y="0" on="1"/>
      </contour>
    </TTGlyph>
    <TTGlyph name="uni0646" xMin="0" yMin="512" xMax="2560" yMax="3584">
      <contour>
        <pt x="512" y="512" on="1"/>
        <pt x="512" y="1024" on="1"/>
        <pt x="2048" y="1024" on="1"/>
        <pt x="2048" y="512" on="1"/>
      </contour>
      <contour>
        <pt x="0" y="1024" on="1"/>
        <pt x="0" y="2560" on="1"/>
        <pt x="512" y="2560" on="1"/>
        <pt x="512" y="1024" on="1"/>
      </contour>
      <contour>
        <pt x="2048" y="1024" on="1"/>
        <pt x="2048" y="2560" on="1"/>
        <pt x="2560" y="2560" on="1"/>
        <pt x="2560" y="1024" on="1"/>
      </contour>
      <contour>
        <pt x="1024" y="3072" on="1"/>
        <pt x="1024" y="3584" on="1"/>
        <pt x="1536" y="3584" on="1"/>
        <pt x="1536" y="3072" on="1"/>
      </contour>
    </TTGlyph>
    <TTGlyph name="uni0647" xMin="512" yMin="1536" xMax="2560" yMax="3584">
      <contour>
        <pt x="1024" y="1536" on="1"/>
        <pt x="1024" y="2048" on="1"/>
        <pt x="2048" y="2048" on="1"/>
        <pt x="2048" y="1536" on="1"/>
      </contour>
      <contour>
        <pt x="2048" y="2048" on="1"/>
        <pt x="2048" y="3072" on="1"/>
        <pt x="2560" y="3072" on="1"/>
        <pt x="2560" y="2048" on="1"/>
      </contour>
      <contour>
        <pt x="512" y="2048" on="1"/>
        <pt x="512" y="3584" on="1"/>
        <pt x="2048" y="3584" on="1"/>
        <pt x="2048" y="3072" on="1"/>
        <pt x="1024" y="3072" on="1"/>
        <pt x="1024" y="2048" on="1"/>
      </contour>
    </TTGlyph>
    <TTGlyph name="uni0648" xMin="512" yMin="0" xMax="2560" yMax="3584">
      <contour>
        <pt x="512" y="0" on="1"/>
        <pt x="512" y="512" on="1"/>
        <pt x="2048" y="512" on="1"/>
        <pt x="2048" y="0" on="1"/>
      </contour>
      <contour>
        <pt x="512" y="2048" on="1"/>
        <pt x="512" y="3072" on="1"/>
        <pt x="1024" y="3072" on="1"/>
        <pt x="1024" y="2048" on="1"/>
      </contour>
      <contour>
        <pt x="2048" y="512" on="1"/>
        <pt x="2048" y="1536" on="1"/>
        <pt x="1024" y="1536" on="1"/>
        <pt x="1024" y="2048" on="1"/>
        <pt x="2048" y="2048" on="1"/>
        <pt x="2048" y="3072" on="1"/>
        <pt x="1024" y="3072" on="1"/>
        <pt x="1024" y="3584" on="1"/>
        <pt x="2560" y="3584" on="1"/>
        <pt x="2560" y="512" on="1"/>
      </contour>
    </TTGlyph>
    <TTGlyph name="uni0649" xMin="0" yMin="1024" xMax="3072" yMax="3072">
      <contour>
        <pt x="512" y="1024" on="1"/>
        <pt x="512" y="1536" on="1"/>
        <pt x="2560" y="1536" on="1"/>
        <pt x="2560" y="1024" on="1"/>
      </contour>
      <contour>
        <pt x="2560" y="1536" on="1"/>
        <pt x="2560" y="2048" on="1"/>
        <pt x="3072" y="2048" on="1"/>
        <pt x="3072" y="1536" on="1"/>
      </contour>
      <contour>
        <pt x="0" y="1536" on="1"/>
        <pt x="0" y="2560" on="1"/>
        <pt x="512" y="2560" on="1"/>
        <pt x="512" y="1536" on="1"/>
      </contour>
      <contour>
        <pt x="2048" y="2048" on="1"/>
        <pt x="2048" y="2560" on="1"/>
        <pt x="2560" y="2560" on="1"/>
        <pt x="2560" y="2048" on="1"/>
      </contour>
      <contour>
        <pt x="512" y="2560" on="1"/>
        <pt x="512" y="3072" on="1"/>
        <pt x="1024" y="3072" on="1"/>
        <pt x="1024" y="2560" on="1"/>
      </contour>
      <contour>
        <pt x="2560" y="2560" on="1"/>
        <pt x="2560" y="3072" on="1"/>
        <pt x="3072" y="3072" on="1"/>
        <pt x="3072" y="2560" on="1"/>
      </contour>
    </TTGlyph>
    <TTGlyph name="uni064A" xMin="0" yMin="0" xMax="3072" yMax="3072">
      <contour>
        <pt x="512" y="0" on="1"/>
        <pt x="512" y="512" on="1"/>
        <pt x="2048" y="512" on="1"/>
        <pt x="2048" y="0" on="1"/>
      </contour>
      <contour>
        <pt x="512" y="1024" on="1"/>
        <pt x="512" y="1536" on="1"/>
        <pt x="2560" y="1536" on="1"/>
        <pt x="2560" y="1024" on="1"/>
      </contour>
      <contour>
        <pt x="2560" y="1536" on="1"/>
        <pt x="2560" y="2048" on="1"/>
        <pt x="3072" y="2048" on="1"/>
        <pt x="3072" y="1536" on="1"/>
      </contour>
      <contour>
        <pt x="0" y="1536" on="1"/>
        <pt x="0" y="2560" on="1"/>
        <pt x="512" y="2560" on="1"/>
        <pt x="512" y="1536" on="1"/>
      </contour>
      <contour>
        <pt x="2048" y="2048" on="1"/>
        <pt x="2048" y="2560" on="1"/>
        <pt x="2560" y="2560" on="1"/>
        <pt x="2560" y="2048" on="1"/>
      </contour>
      <contour>
        <pt x="512" y="2560" on="1"/>
        <pt x="512" y="3072" on="1"/>
        <pt x="1024" y="3072" on="1"/>
        <pt x="1024" y="2560" on="1"/>
      </contour>
      <contour>
        <pt x="2560" y="2560" on="1"/>
        <pt x="2560" y="3072" on="1"/>
        <pt x="3072" y="3072" on="1"/>
        <pt x="3072" y="2560" on="1"/>
      </contour>
    </TTGlyph>
    <TTGlyph name="uni064B" xMin="0" yMin="5120" xMax="2048" yMax="6144">
      <contour>
        <pt x="0" y="5120" on="1"/>
        <pt x="0" y="5632" on="1"/>
        <pt x="512" y="5632" on="1"/>
        <pt x="512" y="5120" on="1"/>
      </contour>
      <contour>
        <pt x="1024" y="5120" on="1"/>
        <pt x="1024" y="5632" on="1"/>
        <pt x="1536" y="5632" on="1"/>
        <pt x="1536" y="5120" on="1"/>
      </contour>
      <contour>
        <pt x="512" y="5632" on="1"/>
        <pt x="512" y="6144" on="1"/>
        <pt x="1024" y="6144" on="1"/>
        <pt x="1024" y="5632" on="1"/>
      </contour>
      <contour>
        <pt x="1536" y="5632" on="1"/>
        <pt x="1536" y="6144" on="1"/>
        <pt x="2048" y="6144" on="1"/>
        <pt x="2048" y="5632" on="1"/>
      </contour>
    </TTGlyph>
    <TTGlyph name="uni064C" xMin="0" yMin="5120" xMax="2048" yMax="6144">
      <contour>
        <pt x="0" y="5120" on="1"/>
        <pt x="0" y="5632" on="1"/>
        <pt x="512" y="5632" on="1"/>
        <pt x="512" y="5120" on="1"/>
      </contour>
      <contour>
        <pt x="1024" y="5120" on="1"/>
        <pt x="1024" y="5632" on="1"/>
        <pt x="1536" y="5632" on="1"/>
        <pt x="1536" y="5120" on="1"/>
      </contour>
      <contour>
        <pt x="512" y="5632" on="1"/>
        <pt x="512" y="6144" on="1"/>
        <pt x="1024" y="6144" on="1"/>
        <pt x="1024" y="5632" on="1"/>
      </contour>
      <contour>
        <pt x="1536" y="5632" on="1"/>
        <pt x="1536" y="6144" on="1"/>
        <pt x="2048" y="6144" on="1"/>
        <pt x="2048" y="5632" on="1"/>
      </contour>
    </TTGlyph>
    <TTGlyph name="uni064D" xMin="0" yMin="0" xMax="2048" yMax="1024">
      <contour>
        <pt x="0" y="0" on="1"/>
        <pt x="0" y="512" on="1"/>
        <pt x="512" y="512" on="1"/>
        <pt x="512" y="0" on="1"/>
      </contour>
      <contour>
        <pt x="1024" y="0" on="1"/>
        <pt x="1024" y="512" on="1"/>
        <pt x="1536" y="512" on="1"/>
        <pt x="1536" y="0" on="1"/>
      </contour>
      <contour>
        <pt x="512" y="512" on="1"/>
        <pt x="512" y="1024" on="1"/>
        <pt x="1024" y="1024" on="1"/>
        <pt x="1024" y="512" on="1"/>
      </contour>
      <contour>
        <pt x="1536" y="512" on="1"/>
        <pt x="1536" y="1024" on="1"/>
        <pt x="2048" y="1024" on="1"/>
        <pt x="2048" y="512" on="1"/>
      </contour>
    </TTGlyph>
    <TTGlyph name="uni064E" xMin="0" yMin="5120" xMax="1024" yMax="6144">
      <contour>
        <pt x="0" y="5120" on="1"/>
        <pt x="0" y="5632" on="1"/>
        <pt x="512" y="5632" on="1"/>
        <pt x="512" y="5120" on="1"/>
      </contour>
      <contour>
        <pt x="512" y="5632" on="1"/>
        <pt x="512" y="6144" on="1"/>
        <pt x="1024" y="6144" on="1"/>
        <pt x="1024" y="5632" on="1"/>
      </contour>
    </TTGlyph>
    <TTGlyph name="uni064F" xMin="0" yMin="5120" xMax="1024" yMax="6144">
      <contour>
        <pt x="0" y="5120" on="1"/>
        <pt x="0" y="5632" on="1"/>
        <pt x="512" y="5632" on="1"/>
        <pt x="512" y="5120" on="1"/>
      </contour>
      <contour>
        <pt x="512" y="5632" on="1"/>
        <pt x="512" y="6144" on="1"/>
        <pt x="1024" y="6144" on="1"/>
        <pt x="1024" y="5632" on="1"/>
      </contour>
    </TTGlyph>
    <TTGlyph name="uni0650" xMin="0" yMin="0" xMax="1024" yMax="1024">
      <contour>
        <pt x="0" y="0" on="1"/>
        <pt x="0" y="512" on="1"/>
        <pt x="512" y="512" on="1"/>
        <pt x="512" y="0" on="1"/>
      </contour>
      <contour>
        <pt x="512" y="512" on="1"/>
        <pt x="512" y="1024" on="1"/>
        <pt x="1024" y="1024" on="1"/>
        <pt x="1024" y="512" on="1"/>
      </contour>
    </TTGlyph>
    <TTGlyph name="uni0651" xMin="0" yMin="5120" xMax="1536" yMax="6144">
      <contour>
        <pt x="512" y="5120" on="1"/>
        <pt x="512" y="5632" on="1"/>
        <pt x="1024" y="5632" on="1"/>
        <pt x="1024" y="5120" on="1"/>
      </contour>
      <contour>
        <pt x="0" y="5632" on="1"/>
        <pt x="0" y="6144" on="1"/>
        <pt x="512" y="6144" on="1"/>
        <pt x="512" y="5632" on="1"/>
      </contour>
      <contour>
        <pt x="1024" y="5632" on="1"/>
        <pt x="1024" y="6144" on="1"/>
        <pt x="1536" y="6144" on="1"/>
        <pt x="1536" y="5632" on="1"/>
      </contour>
    </TTGlyph>
    <TTGlyph name="uni0652" xMin="0" yMin="5120" xMax="1536" yMax="6656">
      <contour>
        <pt x="512" y="5120" on="1"/>
        <pt x="512" y="5632" on="1"/>
        <pt x="1024" y="5632" on="1"/>
        <pt x="1024" y="5120" on="1"/>
      </contour>
      <contour>
        <pt x="0" y="5632" on="1"/>
        <pt x="0" y="6144" on="1"/>
        <pt x="512" y="6144" on="1"/>
        <pt x="512" y="5632" on="1"/>
      </contour>
      <contour>
        <pt x="1024" y="5632" on="1"/>
        <pt x="1024" y="6144" on="1"/>
        <pt x="1536" y="6144" on="1"/>
        <pt x="1536" y="5632" on="1"/>
      </contour>
      <contour>
        <pt x="512" y="6144" on="1"/>
        <pt x="512" y="6656" on="1"/>
        <pt x="1024" y="6656" on="1"/>
        <pt x="1024" y="6144" on="1"/>
      </contour>
    </TTGlyph>
    <TTGlyph name="uni0660" xMin="512" yMin="2560" xMax="1536" yMax="3584">
      <contour>
        <pt x="512" y="2560" on="1"/>
        <pt x="512" y="3584" on="1"/>
        <pt x="1536" y="3584" on="1"/>
        <pt x="1536" y="2560" on="1"/>
      </contour>
    </TTGlyph>
    <TTGlyph name="uni0661" xMin="1024" yMin="1536" xMax="1536" yMax="4608">
      <contour>
        <pt x="1024" y="1536" on="1"/>
        <pt x="1024" y="4608" on="1"/>
        <pt x="1536" y="4608" on="1"/>
        <pt x="1536" y="1536" on="1"/>
      </contour>
    </TTGlyph>
    <TTGlyph name="uni0662" xMin="512" yMin="1536" xMax="2560" yMax="4608">
      <contour>
        <pt x="512" y="1536" on="1"/>
        <pt x="512" y="4608" on="1"/>
        <pt x="2560" y="4608" on="1"/>
        <pt x="2560" y="4096" on="1"/>
        <pt x="1024" y="4096" on="1"/>
        <pt x="1024" y="1536" on="1"/>
      </contour>
    </TTGlyph>
    <TTGlyph name="uni0663" xMin="0" yMin="1536" xMax="2560" yMax="4608">
      <contour>
        <pt x="0" y="1536" on="1"/>
        <pt x="0" y="4608" on="1"/>
        <pt x="512" y="4608" on="1"/>
        <pt x="512" y="3584" on="1"/>
        <pt x="1024" y="3584" on="1"/>
        <pt x="1024" y="4608" on="1"/>
        <pt x="1536" y="4608" on="1"/>
        <pt x="1536" y="3584" on="1"/>
        <pt x="2048" y="3584" on="1"/>
        <pt x="2048" y="3072" on="1"/>
        <pt x="512" y="3072" on="1"/>
        <pt x="512" y="1536" on="1"/>
      </contour>
      <contour>
        <pt x="2048" y="3584" on="1"/>
        <pt x="2048" y="4608" on="1"/>
        <pt x="2560" y="4608" on="1"/>
        <pt x="2560" y="3584" on="1"/>
      </contour>
    </TTGlyph>
    <TTGlyph name="uni0664" xMin="512" yMin="1536" xMax="2560" yMax="4608">
      <contour>
        <pt x="1024" y="1536" on="1"/>
        <pt x="1024" y="2048" on="1"/>
        <pt x="2560" y="2048" on="1"/>
        <pt x="2560" y="1536" on="1"/>
      </contour>
      <contour>
        <pt x="512" y="2048" on="1"/>
        <pt x="512" y="3072" on="1"/>
        <pt x="1024" y="3072" on="1"/>
        <pt x="1024" y="2048" on="1"/>
      </contour>
      <contour>
        <pt x="1024" y="3072" on="1"/>
        <pt x="1024" y="3584" on="1"/>
        <pt x="2048" y="3584" on="1"/>
        <pt x="2048" y="3072" on="1"/>
      </contour>
      <contour>
        <pt x="512" y="3584" on="1"/>
        <pt x="512" y="4096" on="1"/>
        <pt x="1024" y="4096" on="1"/>
        <pt x="1024" y="3584" on="1"/>
      </contour>
      <contour>
        <pt x="1024" y="4096" on="1"/>
        <pt x="1024" y="4608" on="1"/>
        <pt x="2560" y="4608" on="1"/>
        <pt x="2560" y="4096" on="1"/>
      </contour>
    </TTGlyph>
    <TTGlyph name="uni0665" xMin="512" yMin="2048" xMax="2560" yMax="4096">
      <contour>
        <pt x="1024" y="2048" on="1"/>
        <pt x="1024" y="2560" on="1"/>
        <pt x="2048" y="2560" on="1"/>
        <pt x="2048" y="2048" on="1"/>
      </contour>
      <contour>
        <pt x="512" y="2560" on="1"/>
        <pt x="512" y="3584" on="1"/>
        <pt x="1024" y="3584" on="1"/>
        <pt x="1024" y="2560" on="1"/>
      </contour>
      <contour>
        <pt x="2048" y="2560" on="1"/>
        <pt x="2048" y="3584" on="1"/>
        <pt x="1024" y="3584" on="1"/>
        <pt x="1024" y="4096" on="1"/>
        <pt x="2560" y="4096" on="1"/>
        <pt x="2560" y="2560" on="1"/>
      </contour>
    </TTGlyph>
    <TTGlyph name="uni0666" xMin="0" yMin="1536" xMax="2048" yMax="4608">
      <contour>
        <pt x="1536" y="1536" on="1"/>
        <pt x="1536" y="4096" on="1"/>
        <pt x="0" y="4096" on="1"/>
        <pt x="0" y="4608" on="1"/>
        <pt x="2048" y="4608" on="1"/>
        <pt x="2048" y="1536" on="1"/>
      </contour>
    </TTGlyph>
    <TTGlyph name="uni0667" xMin="0" yMin="1536" xMax="2560" yMax="4608">
      <contour>
        <pt x="1024" y="1536" on="1"/>
        <pt x="1024" y="2048" on="1"/>
        <pt x="1536" y="2048" on="1"/>
        <pt x="1536" y="1536" on="1"/>
      </contour>
      <contour>
        <pt x="512" y="2048" on="1"/>
        <pt x="512" y="3072" on="1"/>
        <pt x="1024" y="3072" on="1"/>
        <pt x="1024" y="2048" on="1"/>
      </contour>
      <contour>
        <pt x="1536" y="2048" on="1"/>
        <pt x="1536" y="3072" on="1"/>
        <pt x="2048" y="3072" on="1"/>
        <pt x="2048" y="2048" on="1"/>
      </contour>
      <contour>
        <pt x="0" y="3072" on="1"/>
        <pt x="0" y="4608" on="1"/>
        <pt x="512" y="4608" on="1"/>
        <pt x="512" y="3072" on="1"/>
      </contour>
      <contour>
        <pt x="2048" y="3072" on="1"/>
        <pt x="2048" y="4608" on="1"/>
        <pt x="2560" y="4608" on="1"/>
        <pt x="2560" y="3072" on="1"/>
      </contour>
    </TTGlyph>
    <TTGlyph name="uni0668" xMin="0" yMin="1536" xMax="2560" yMax="4608">
      <contour>
        <pt x="0" y="1536" on="1"/>
        <pt x="0" y="3072" on="1"/>
        <pt x="512" y="3072" on="1"/>
        <pt x="512" y="1536" on="1"/>
      </contour>
      <contour>
        <pt x="2048" y="1536" on="1"/>
        <pt x="2048" y="3072" on="1"/>
        <pt x="2560" y="3072" on="1"/>
        <pt x="2560" y="1536" on="1"/>
      </contour>
      <contour>
        <pt x="512" y="3072" on="1"/>
        <pt x="512" y="4096" on="1"/>
        <pt x="1024" y="4096" on="1"/>
        <pt x="1024" y="3072" on="1"/>
      </contour>
      <contour>
        <pt x="1536" y="3072" on="1"/>
        <pt x="1536" y="4096" on="1"/>
        <pt x="2048" y="4096" on="1"/>
        <pt x="2048" y="3072" on="1"/>
      </contour>
      <contour>
        <pt x="1024" y="4096" on="1"/>
        <pt x="1024" y="4608" on="1"/>
        <pt x="1536" y="4608" on="1"/>
        <pt x="1536" y="4096" on="1"/>
      </contour>
    </TTGlyph>
    <TTGlyph name="uni0669" xMin="512" yMin="1536" xMax="2560" yMax="4608">
      <contour>
        <pt x="512" y="3072" on="1"/>
        <pt x="512" y="4096" on="1"/>
        <pt x="1024" y="4096" on="1"/>
        <pt x="1024" y="3072" on="1"/>
      </contour>
      <contour>
        <pt x="2048" y="1536" on="1"/>
        <pt x="2048" y="2560" on="1"/>
        <pt x="1024" y="2560" on="1"/>
        <pt x="1024" y="3072" on="1"/>
        <pt x="2048" y="3072" on="1"/>
        <pt x="2048" y="4096" on="1"/>
        <pt x="1024" y="4096" on="1"/>
        <pt x="1024" y="4608" on="1"/>
        <pt x="2560" y="4608" on="1"/>
        <pt x="2560" y="1536" on="1"/>
      </contour>
    </TTGlyph>
    <TTGlyph name="uni066A" xMin="0" yMin="1536" xMax="2560" yMax="5120">
      <contour>
        <pt x="0" y="1536" on="1"/>
        <pt x="0" y="2560" on="1"/>
        <pt x="512" y="2560" on="1"/>
        <pt x="512" y="1536" on="1"/>
      </contour>
      <contour>
        <pt x="1536" y="1536" on="1"/>
        <pt x="1536" y="2560" on="1"/>
        <pt x="2560" y="2560" on="1"/>
        <pt x="2560" y="1536" on="1"/>
      </contour>
      <contour>
        <pt x="512" y="2560" on="1"/>
        <pt x="512" y="3072" on="1"/>
        <pt x="1024" y="3072" on="1"/>
        <pt x="1024" y="2560" on="1"/>
      </contour>
      <contour>
        <pt x="1024" y="3072" on="1"/>
        <pt x="1024" y="3584" on="1"/>
        <pt x="1536" y="3584" on="1"/>
        <pt x="1536" y="3072" on="1"/>
      </contour>
      <contour>
        <pt x="1536" y="3584" on="1"/>
        <pt x="1536" y="4096" on="1"/>
        <pt x="2048" y="4096" on="1"/>
        <pt x="2048" y="3584" on="1"/>
      </contour>
      <contour>
        <pt x="0" y="4096" on="1"/>
        <pt x="0" y="5120" on="1"/>
        <pt x="1024" y="5120" on="1"/>
        <pt x="1024" y="4096" on="1"/>
      </contour>
      <contour>
        <pt x="2048" y="4096" on="1"/>
        <pt x="2048" y="5120" on="1"/>
        <pt x="2560" y="5120" on="1"/>
        <pt x="2560" y="4096" on="1"/>
      </contour>
    </TTGlyph>
    <TTGlyph name="uniFE82" xMin="0" yMin="1536" xMax="2048" yMax="5632">
      <contour>
        <pt x="512" y="1536" on="1"/>
        <pt x="512" y="4608" on="1"/>
        <pt x="1024" y="4608" on="1"/>
        <pt x="1024" y="2048" on="1"/>
        <pt x="2048" y="2048" on="1"/>
        <pt x="2048" y="1536" on="1"/>
      </contour>
      <contour>
        <pt x="0" y="5120" on="1"/>
        <pt x="0" y="5632" on="1"/>
        <pt x="1536" y="5632" on="1"/>
        <pt x="1536" y="5120" on="1"/>
      </contour>
    </TTGlyph>
    <TTGlyph name="uniFE84" xMin="0" yMin="1536" xMax="2048" yMax="6144">
      <contour>
        <pt x="512" y="1536" on="1"/>
        <pt x="512" y="4608" on="1"/>
        <pt x="1024" y="4608" on="1"/>
        <pt x="1024" y="2048" on="1"/>
        <pt x="2048" y="2048" on="1"/>
        <pt x="2048" y="1536" on="1"/>
      </contour>
      <contour>
        <pt x="0" y="5120" on="1"/>
        <pt x="0" y="5632" on="1"/>
        <pt x="512" y="5632" on="1"/>
        <pt x="512" y="6144" on="1"/>
        <pt x="1536" y="6144" on="1"/>
        <pt x="1536" y="5632" on="1"/>
        <pt x="1024" y="5632" on="1"/>
        <pt x="1024" y="5120" on="1"/>
      </contour>
    </TTGlyph>
    <TTGlyph name="uniFE86" xMin="512" yMin="0" xMax="3072" yMax="5120">
      <contour>
        <pt x="512" y="0" on="1"/>
        <pt x="512" y="512" on="1"/>
        <pt x="2048" y="512" on="1"/>
        <pt x="2048" y="0" on="1"/>
      </contour>
      <contour>
        <pt x="512" y="2048" on="1"/>
        <pt x="512" y="3072" on="1"/>
        <pt x="1024" y="3072" on="1"/>
        <pt x="1024" y="2048" on="1"/>
      </contour>
      <contour>
        <pt x="2048" y="512" on="1"/>
        <pt x="2048" y="1536" on="1"/>
        <pt x="1024" y="1536" on="1"/>
        <pt x="1024" y="2048" on="1"/>
        <pt x="2048" y="2048" on="1"/>
        <pt x="2048" y="3072" on="1"/>
        <pt x="1024" y="3072" on="1"/>
        <pt x="1024" y="3584" on="1"/>
        <pt x="2560" y="3584" on="1"/>
        <pt x="2560" y="2048" on="1"/>
        <pt x="3072" y="2048" on="1"/>
        <pt x="3072" y="1536" on="1"/>
        <pt x="2560" y="1536" on="1"/>
        <pt x="2560" y="512" on="1"/>
      </contour>
      <contour>
        <pt x="512" y="4096" on="1"/>
        <pt x="512" y="4608" on="1"/>
        <pt x="1024" y="4608" on="1"/>
        <pt x="1024" y="5120" on="1"/>
        <pt x="2048" y="5120" on="1"/>
        <pt x="2048" y="4608" on="1"/>
        <pt x="1536" y="4608" on="1"/>
        <pt x="1536" y="4096" on="1"/>
      </contour>
    </TTGlyph>
    <TTGlyph name="uniFE88" xMin="0" yMin="0" xMax="2048" yMax="4608">
      <contour>
        <pt x="0" y="0" on="1"/>
        <pt x="0" y="512" on="1"/>
        <pt x="512" y="512" on="1"/>
        <pt x="512" y="1024" on="1"/>
        <pt x="1536" y="1024" on="1"/>
        <pt x="1536" y="512" on="1"/>
        <pt x="1024" y="512" on="1"/>
        <pt x="1024" y="0" on="1"/>
      </contour>
      <contour>
        <pt x="512" y="1536" on="1"/>
        <pt x="512" y="4608" on="1"/>
        <pt x="1024" y="4608" on="1"/>
        <pt x="1024" y="2048" on="1"/>
        <pt x="2048" y="2048" on="1"/>
        <pt x="2048" y="1536" on="1"/>
      </contour>
    </TTGlyph>
    <TTGlyph name="uniFE8A" xMin="0" yMin="1024" xMax="4096" yMax="4096">
      <contour>
        <pt x="512" y="1024" on="1"/>
        <pt x="512" y="1536" on="1"/>
        <pt x="2560" y="1536" on="1"/>
        <pt x="2560" y="1024" on="1"/>
      </contour>
      <contour>
        <pt x="2560" y="1536" on="1"/>
        <pt x="2560" y="2048" on="1"/>
        <pt x="3072" y="2048" on="1"/>
        <pt x="3072" y="1536" on="1"/>
      </contour>
      <contour>
        <pt x="0" y="1536" on="1"/>
        <pt x="0" y="2560" on="1"/>
        <pt x="512" y="2560" on="1"/>
        <pt x="512" y="1536" on="1"/>
      </contour>
      <contour>
        <pt x="2048" y="2048" on="1"/>
        <pt x="2048" y="2560" on="1"/>
        <pt x="2560" y="2560" on="1"/>
        <pt x="2560" y="2048" on="1"/>
      </contour>
      <contour>
        <pt x="3584" y="2048" on="1"/>
        <pt x="3584" y="2560" on="1"/>
        <pt x="4096" y="2560" on="1"/>
        <pt x="4096" y="2048" on="1"/>
      </contour>
      <contour>
        <pt x="2560" y="2560" on="1"/>
        <pt x="2560" y="3072" on="1"/>
        <pt x="3584" y="3072" on="1"/>
        <pt x="3584" y="2560" on="1"/>
      </contour>
      <contour>
        <pt x="512" y="3072" on="1"/>
        <pt x="512" y="3584" on="1"/>
        <pt x="1024" y="3584" on="1"/>
        <pt x="1024" y="4096" on="1"/>
        <pt x="2048" y="4096" on="1"/>
        <pt x="2048" y="3584" on="1"/>
        <pt x="1536" y="3584" on="1"/>
        <pt x="1536" y="3072" on="1"/>
      </contour>
    </TTGlyph>
    <TTGlyph name="uniFE8B" xMin="0" yMin="1536" xMax="2048" yMax="5120">
      <contour>
        <pt x="0" y="1536" on="1"/>
        <pt x="0" y="2048" on="1"/>
        <pt x="1024" y="2048" on="1"/>
        <pt x="1024" y="1536" on="1"/>
      </contour>
      <contour>
        <pt x="1024" y="2048" on="1"/>
        <pt x="1024" y="3584" on="1"/>
        <pt x="1536" y="3584" on="1"/>
        <pt x="1536" y="2048" on="1"/>
      </contour>
      <contour>
        <pt x="512" y="4096" on="1"/>
        <pt x="512" y="4608" on="1"/>
        <pt x="1024" y="4608" on="1"/>
        <pt x="1024" y="5120" on="1"/>
        <pt x="2048" y="5120" on="1"/>
        <pt x="2048" y="4608" on="1"/>
        <pt x="1536" y="4608" on="1"/>
        <pt x="1536" y="4096" on="1"/>
      </contour>
    </TTGlyph>
    <TTGlyph name="uniFE8C" xMin="0" yMin="1536" xMax="2560" yMax="5120">
      <contour>
        <pt x="0" y="1536" on="1"/>
        <pt x="0" y="2048" on="1"/>
        <pt x="1024" y="2048" on="1"/>
        <pt x="1024" y="3584" on="1"/>
        <pt x="1536" y="3584" on="1"/>
        <pt x="1536" y="2048" on="1"/>
        <pt x="2560" y="2048" on="1"/>
        <pt x="2560" y="1536" on="1"/>
      </contour>
      <contour>
        <pt x="512" y="4096" on="1"/>
        <pt x="512" y="4608" on="1"/>
        <pt x="1024" y="4608" on="1"/>
        <pt x="1024" y="5120" on="1"/>
        <pt x="2048" y="5120" on="1"/>
        <pt x="2048" y="4608" on="1"/>
        <pt x="1536" y="4608" on="1"/>
        <pt x="1536" y="4096" on="1"/>
      </contour>
    </TTGlyph>
    <TTGlyph name="uniFE8E" xMin="512" yMin="1536" xMax="2048" yMax="4608">
      <contour>
        <pt x="512" y="1536" on="1"/>
        <pt x="512" y="4608" on="1"/>
        <pt x="1024" y="4608" on="1"/>
        <pt x="1024" y="2048" on="1"/>
        <pt x="2048" y="2048" on="1"/>
        <pt x="2048" y="1536" on="1"/>
      </contour>
    </TTGlyph>
    <TTGlyph name="uniFE90" xMin="0" yMin="512" xMax="3584" yMax="3584">
      <contour>
        <pt x="1536" y="512" on="1"/>
        <pt x="1536" y="1024" on="1"/>
        <pt x="2048" y="1024" on="1"/>
        <pt x="2048" y="512" on="1"/>
      </contour>
      <contour>
        <pt x="0" y="2048" on="1"/>
        <pt x="0" y="3584" on="1"/>
        <pt x="512" y="3584" on="1"/>
        <pt x="512" y="2048" on="1"/>
      </contour>
      <contour>
        <pt x="512" y="1536" on="1"/>
        <pt x="512" y="2048" on="1"/>
        <pt x="2560" y="2048" on="1"/>
        <pt x="2560" y="3584" on="1"/>
        <pt x="3072" y="3584" on="1"/>
        <pt x="3072" y="2048" on="1"/>
        <pt x="3584" y="2048" on="1"/>
        <pt x="3584" y="1536" on="1"/>
      </contour>
    </TTGlyph>
    <TTGlyph name="uniFE91" xMin="0" yMin="512" xMax="1536" yMax="3584">
      <contour>
        <pt x="512" y="512" on="1"/>
        <pt x="512" y="1024" on="1"/>
        <pt x="1024" y="1024" on="1"/>
        <pt x="1024" y="512" on="1"/>
      </contour>
      <contour>
        <pt x="0" y="1536" on="1"/>
        <pt x="0" y="2048" on="1"/>
        <pt x="1024" y="2048" on="1"/>
        <pt x="1024" y="1536" on="1"/>
      </contour>
      <contour>
        <pt x="1024" y="2048" on="1"/>
        <pt x="1024" y="3584" on="1"/>
        <pt x="1536" y="3584" on="1"/>
        <pt x="1536" y="2048" on="1"/>
      </contour>
    </TTGlyph>
    <TTGlyph name="uniFE92" xMin="0" yMin="512" xMax="2560" yMax="3584">
      <contour>
        <pt x="1024" y="512" on="1"/>
        <pt x="1024" y="1024" on="1"/>
        <pt x="1536" y="1024" on="1"/>
        <pt x="1536" y="512" on="1"/>
      </contour>
      <contour>
        <pt x="0" y="1536" on="1"/>
        <pt x="0" y="2048" on="1"/>
        <pt x="1024" y="2048" on="1"/>
        <pt x="1024" y="3584" on="1"/>
        <pt x="1536" y="3584" on="1"/>
        <pt x="1536" y="2048" on="1"/>
        <pt x="2560" y="2048" on="1"/>
        <pt x="2560" y="1536" on="1"/>
      </contour>
    </TTGlyph>
    <TTGlyph name="uniFE94" xMin="0" yMin="1536" xMax="3072" yMax="4608">
      <contour>
        <pt x="0" y="2048" on="1"/>
        <pt x="0" y="3072" on="1"/>
        <pt x="512" y="3072" on="1"/>
        <pt x="512" y="2048" on="1"/>
      </contour>
      <contour>
        <pt x="512" y="1536" on="1"/>
        <pt x="512" y="2048" on="1"/>
        <pt x="1536" y="2048" on="1"/>
        <pt x="1536" y="3072" on="1"/>
        <pt x="512" y="3072" on="1"/>
        <pt x="512" y="3584" on="1"/>
        <pt x="2048" y="3584" on="1"/>
        <pt x="2048" y="2048" on="1"/>
        <pt x="3072" y="2048" on="1"/>
        <pt x="3072" y="1536" on="1"/>
      </contour>
      <contour>
        <pt x="512" y="4096" on="1"/>
        <pt x="512" y="4608" on="1"/>
        <pt x="2048" y="4608" on="1"/>
        <pt x="2048" y="4096" on="1"/>
      </contour>
    </TTGlyph>
    <TTGlyph name="uniFE96" xMin="0" yMin="1536" xMax="3584" yMax="4608">
      <contour>
        <pt x="0" y="2048" on="1"/>
        <pt x="0" y="3584" on="1"/>
        <pt x="512" y="3584" on="1"/>
        <pt x="512" y="2048" on="1"/>
      </contour>
      <contour>
        <pt x="512" y="1536" on="1"/>
        <pt x="512" y="2048" on="1"/>
        <pt x="2560" y="2048" on="1"/>
        <pt x="2560" y="3584" on="1"/>
        <pt x="3072" y="3584" on="1"/>
        <pt x="3072" y="2048" on="1"/>
        <pt x="3584" y="2048" on="1"/>
        <pt x="3584" y="1536" on="1"/>
      </contour>
      <contour>
        <pt x="512" y="4096" on="1"/>
        <pt x="512" y="4608" on="1"/>
        <pt x="2048" y="4608" on="1"/>
        <pt x="2048" y="4096" on="1"/>
      </contour>
    </TTGlyph>
    <TTGlyph name="uniFE97" xMin="0" yMin="1536" xMax="2048" yMax="4608">
      <contour>
        <pt x="0" y="1536" on="1"/>
        <pt x="0" y="2048" on="1"/>
        <pt x="1024" y="2048" on="1"/>
        <pt x="1024" y="1536" on="1"/>
      </contour>
      <contour>
        <pt x="1024" y="2048" on="1"/>
        <pt x="1024" y="3584" on="1"/>
        <pt x="1536" y="3584" on="1"/>
        <pt x="1536" y="2048" on="1"/>
      </contour>
      <contour>
        <pt x="512" y="4096" on="1"/>
        <pt x="512" y="4608" on="1"/>
        <pt x="2048" y="4608" on="1"/>
        <pt x="2048" y="4096" on="1"/>
      </contour>
    </TTGlyph>
    <TTGlyph name="uniFE98" xMin="0" yMin="1536" xMax="2560" yMax="4608">
      <contour>
        <pt x="0" y="1536" on="1"/>
        <pt x="0" y="2048" on="1"/>
        <pt x="1024" y="2048" on="1"/>
        <pt x="1024" y="3584" on="1"/>
        <pt x="1536" y="3584" on="1"/>
        <pt x="1536" y="2048" on="1"/>
        <pt x="2560" y="2048" on="1"/>
        <pt x="2560" y="1536" on="1"/>
      </contour>
      <contour>
        <pt x="512" y="4096" on="1"/>
        <pt x="512" y="4608" on="1"/>
        <pt x="2048" y="4608" on="1"/>
        <pt x="2048" y="4096" on="1"/>
      </contour>
    </TTGlyph>
    <TTGlyph name="uniFE9A" xMin="0" yMin="1536" xMax="3584" yMax="5120">
      <contour>
        <pt x="0" y="2048" on="1"/>
        <pt x="0" y="3584" on="1"/>
        <pt x="512" y="3584" on="1"/>
        <pt x="512" y="2048" on="1"/>
      </contour>
      <contour>
        <pt x="512" y="1536" on="1"/>
        <pt x="512" y="2048" on="1"/>
        <pt x="2560" y="2048" on="1"/>
        <pt x="2560" y="3584" on="1"/>
        <pt x="3072" y="3584" on="1"/>
        <pt x="3072" y="2048" on="1"/>
        <pt x="3584" y="2048" on="1"/>
        <pt x="3584" y="1536" on="1"/>
      </contour>
      <contour>
        <pt x="512" y="4096" on="1"/>
        <pt x="512" y="4608" on="1"/>
        <pt x="1024" y="4608" on="1"/>
        <pt x="1024" y="5120" on="1"/>
        <pt x="1536" y="5120" on="1"/>
        <pt x="1536" y="4608" on="1"/>
        <pt x="2048" y="4608" on="1"/>
        <pt x="2048" y="4096" on="1"/>
      </contour>
    </TTGlyph>
    <TTGlyph name="uniFE9B" xMin="0" yMin="1536" xMax="2048" yMax="5120">
      <contour>
        <pt x="0" y="1536" on="1"/>
        <pt x="0" y="2048" on="1"/>
        <pt x="1024" y="2048" on="1"/>
        <pt x="1024" y="1536" on="1"/>
      </contour>
      <contour>
        <pt x="1024" y="2048" on="1"/>
        <pt x="1024" y="3584" on="1"/>
        <pt x="1536" y="3584" on="1"/>
        <pt x="1536" y="2048" on="1"/>
      </contour>
      <contour>
        <pt x="512" y="4096" on="1"/>
        <pt x="512" y="4608" on="1"/>
        <pt x="1024" y="4608" on="1"/>
        <pt x="1024" y="5120" on="1"/>
        <pt x="1536" y="5120" on="1"/>
        <pt x="1536" y="4608" on="1"/>
        <pt x="2048" y="4608" on="1"/>
        <pt x="2048" y="4096" on="1"/>
      </contour>
    </TTGlyph>
    <TTGlyph name="uniFE9C" xMin="0" yMin="1536" xMax="2560" yMax="5120">
      <contour>
        <pt x="0" y="1536" on="1"/>
        <pt x="0" y="2048" on="1"/>
        <pt x="1024" y="2048" on="1"/>
        <pt x="1024" y="3584" on="1"/>
        <pt x="1536" y="3584" on="1"/>
        <pt x="1536" y="2048" on="1"/>
        <pt x="2560" y="2048" on="1"/>
        <pt x="2560" y="1536" on="1"/>
      </contour>
      <contour>
        <pt x="512" y="4096" on="1"/>
        <pt x="512" y="4608" on="1"/>
        <pt x="1024" y="4608" on="1"/>
        <pt x="1024" y="5120" on="1"/>
        <pt x="1536" y="5120" on="1"/>
        <pt x="1536" y="4608" on="1"/>
        <pt x="2048" y="4608" on="1"/>
        <pt x="2048" y="4096" on="1"/>
      </contour>
    </TTGlyph>
    <TTGlyph name="uniFE9E" xMin="0" yMin="0" xMax="2560" yMax="3584">
      <contour>
        <pt x="512" y="0" on="1"/>
        <pt x="512" y="512" on="1"/>
        <pt x="2048" y="512" on="1"/>
        <pt x="2048" y="0" on="1"/>
      </contour>
      <contour>
        <pt x="0" y="512" on="1"/>
        <pt x="0" y="2048" on="1"/>
        <pt x="1536" y="2048" on="1"/>
        <pt x="1536" y="3072" on="1"/>
        <pt x="2048" y="3072" on="1"/>
        <pt x="2048" y="2048" on="1"/>
        <pt x="2560" y="2048" on="1"/>
        <pt x="2560" y="1536" on="1"/>
        <pt x="1536" y="1536" on="1"/>
        <pt x="1536" y="1024" on="1"/>
        <pt x="1024" y="1024" on="1"/>
        <pt x="1024" y="1536" on="1"/>
        <pt x="512" y="1536" on="1"/>
        <pt x="512" y="512" on="1"/>
      </contour>
      <contour>
        <pt x="0" y="3072" on="1"/>
        <pt x="0" y="3584" on="1"/>
        <pt x="1536" y="3584" on="1"/>
        <pt x="1536" y="3072" on="1"/>
      </contour>
    </TTGlyph>
    <TTGlyph name="uniFE9F" xMin="0" yMin="512" xMax="2560" yMax="3584">
      <contour>
        <pt x="1024" y="512" on="1"/>
        <pt x="1024" y="1024" on="1"/>
        <pt x="1536" y="1024" on="1"/>
        <pt x="1536" y="512" on="1"/>
      </contour>
      <contour>
        <pt x="0" y="1536" on="1"/>
        <pt x="0" y="2048" on="1"/>
        <pt x="2048" y="2048" on="1"/>
        <pt x="2048" y="2560" on="1"/>
        <pt x="2560" y="2560" on="1"/>
        <pt x="2560" y="1536" on="1"/>
      </contour>
      <contour>
        <pt x="1536" y="2560" on="1"/>
        <pt x="1536" y="3072" on="1"/>
        <pt x="2048" y="3072" on="1"/>
        <pt x="2048" y="2560" on="1"/>
      </contour>
      <contour>
        <pt x="512" y="3072" on="1"/>
        <pt x="512" y="3584" on="1"/>
        <pt x="1536" y="3584" on="1"/>
        <pt x="1536" y="3072" on="1"/>
      </contour>
    </TTGlyph>
    <TTGlyph name="uniFEA0" xMin="0" yMin="512" xMax="3072" yMax="3584">
      <contour>
        <pt x="1024" y="512" on="1"/>
        <pt x="1024" y="1024" on="1"/>
        <pt x="1536" y="1024" on="1"/>
        <pt x="1536" y="512" on="1"/>
      </contour>
      <contour>
        <pt x="0" y="1536" on="1"/>
        <pt x="0" y="2048" on="1"/>
        <pt x="2048" y="2048" on="1"/>
        <pt x="2048" y="2560" on="1"/>
        <pt x="2560" y="2560" on="1"/>
        <pt x="2560" y="2048" on="1"/>
        <pt x="3072" y="2048" on="1"/>
        <pt x="3072" y="1536" on="1"/>
      </contour>
      <contour>
        <pt x="1536" y="2560" on="1"/>
        <pt x="1536" y="3072" on="1"/>
        <pt x="2048" y="3072" on="1"/>
        <pt x="2048" y="2560" on="1"/>
      </contour>
      <contour>
        <pt x="512" y="3072" on="1"/>
        <pt x="512" y="3584" on="1"/>
        <pt x="1536" y="3584" on="1"/>
        <pt x="1536" y="3072" on="1"/>
      </contour>
    </TTGlyph>
    <TTGlyph name="uniFEA2" xMin="0" yMin="0" xMax="2560" yMax="3584">
      <contour>
        <pt x="512" y="0" on="1"/>
        <pt x="512" y="512" on="1"/>
        <pt x="2048" y="512" on="1"/>
        <pt x="2048" y="0" on="1"/>
      </contour>
      <contour>
        <pt x="0" y="512" on="1"/>
        <pt x="0" y="2048" on="1"/>
        <pt x="1536" y="2048" on="1"/>
        <pt x="1536" y="3072" on="1"/>
        <pt x="2048" y="3072" on="1"/>
        <pt x="2048" y="2048" on="1"/>
        <pt x="2560" y="2048" on="1"/>
        <pt x="2560" y="1536" on="1"/>
        <pt x="512" y="1536" on="1"/>
        <pt x="512" y="512" on="1"/>
      </contour>
      <contour>
        <pt x="0" y="3072" on="1"/>
        <pt x="0" y="3584" on="1"/>
        <pt x="1536" y="3584" on="1"/>
        <pt x="1536" y="3072" on="1"/>
      </contour>
    </TTGlyph>
    <TTGlyph name="uniFEA3" xMin="0" yMin="1536" xMax="2560" yMax="3584">
      <contour>
        <pt x="0" y="1536" on="1"/>
        <pt x="0" y="2048" on="1"/>
        <pt x="2048" y="2048" on="1"/>
        <pt x="2048" y="2560" on="1"/>
        <pt x="2560" y="2560" on="1"/>
        <pt x="2560" y="1536" on="1"/>
      </contour>
      <contour>
        <pt x="1536" y="2560" on="1"/>
        <pt x="1536" y="3072" on="1"/>
        <pt x="2048" y="3072" on="1"/>
        <pt x="2048" y="2560" on="1"/>
      </contour>
      <contour>
        <pt x="512" y="3072" on="1"/>
        <pt x="512" y="3584" on="1"/>
        <pt x="1536" y="3584" on="1"/>
        <pt x="1536" y="3072" on="1"/>
      </contour>
    </TTGlyph>
    <TTGlyph name="uniFEA4" xMin="0" yMin="1536" xMax="3072" yMax="3584">
      <contour>
        <pt x="0" y="1536" on="1"/>
        <pt x="0" y="2048" on="1"/>
        <pt x="2048" y="2048" on="1"/>
        <pt x="2048" y="2560" on="1"/>
        <pt x="2560" y="2560" on="1"/>
        <pt x="2560" y="2048" on="1"/>
        <pt x="3072" y="2048" on="1"/>
        <pt x="3072" y="1536" on="1"/>
      </contour>
      <contour>
        <pt x="1536" y="2560" on="1"/>
        <pt x="1536" y="3072" on="1"/>
        <pt x="2048" y="3072" on="1"/>
        <pt x="2048" y="2560" on="1"/>
      </contour>
      <contour>
        <pt x="512" y="3072" on="1"/>
        <pt x="512" y="3584" on="1"/>
        <pt x="1536" y="3584" on="1"/>
        <pt x="1536" y="3072" on="1"/>
      </contour>
    </TTGlyph>
    <TTGlyph name="uniFEA6" xMin="0" yMin="0" xMax="2560" yMax="4608">
      <contour>
        <pt x="512" y="0" on="1"/>
        <pt x="512" y="512" on="1"/>
        <pt x="2048" y="512" on="1"/>
        <pt x="2048" y="0" on="1"/>
      </contour>
      <contour>
        <pt x="0" y="512" on="1"/>
        <pt x="0" y="2048" on="1"/>
        <pt x="1536" y="2048" on="1"/>
        <pt x="1536" y="3072" on="1"/>
        <pt x="2048" y="3072" on="1"/>
        <pt x="2048" y="2048" on="1"/>
        <pt x="2560" y="2048" on="1"/>
        <pt x="2560" y="1536" on="1"/>
        <pt x="512" y="1536" on="1"/>
        <pt x="512" y="512" on="1"/>
      </contour>
      <contour>
        <pt x="0" y="3072" on="1"/>
        <pt x="0" y="3584" on="1"/>
        <pt x="1536" y="3584" on="1"/>
        <pt x="1536" y="3072" on="1"/>
      </contour>
      <contour>
        <pt x="1024" y="4096" on="1"/>
        <pt x="1024" y="4608" on="1"/>
        <pt x="1536" y="4608" on="1"/>
        <pt x="1536" y="4096" on="1"/>
      </contour>
    </TTGlyph>
    <TTGlyph name="uniFEA7" xMin="0" yMin="1536" xMax="2560" yMax="4608">
      <contour>
        <pt x="0" y="1536" on="1"/>
        <pt x="0" y="2048" on="1"/>
        <pt x="2048" y="2048" on="1"/>
        <pt x="2048" y="2560" on="1"/>
        <pt x="2560" y="2560" on="1"/>
        <pt x="2560" y="1536" on="1"/>
      </contour>
      <contour>
        <pt x="1536" y="2560" on="1"/>
        <pt x="1536" y="3072" on="1"/>
        <pt x="2048" y="3072" on="1"/>
        <pt x="2048" y="2560" on="1"/>
      </contour>
      <contour>
        <pt x="512" y="3072" on="1"/>
        <pt x="512" y="3584" on="1"/>
        <pt x="1536" y="3584" on="1"/>
        <pt x="1536" y="3072" on="1"/>
      </contour>
      <contour>
        <pt x="1024" y="4096" on="1"/>
        <pt x="1024" y="4608" on="1"/>
        <pt x="1536" y="4608" on="1"/>
        <pt x="1536" y="4096" on="1"/>
      </contour>
    </TTGlyph>
    <TTGlyph name="uniFEA8" xMin="0" yMin="1536" xMax="3072" yMax="4608">
      <contour>
        <pt x="0" y="1536" on="1"/>
        <pt x="0" y="2048" on="1"/>
        <pt x="2048" y="2048" on="1"/>
        <pt x="2048" y="2560" on="1"/>
        <pt x="2560" y="2560" on="1"/>
        <pt x="2560" y="2048" on="1"/>
        <pt x="3072" y="2048" on="1"/>
        <pt x="3072" y="1536" on="1"/>
      </contour>
      <contour>
        <pt x="1536" y="2560" on="1"/>
        <pt x="1536" y="3072" on="1"/>
        <pt x="2048" y="3072" on="1"/>
        <pt x="2048" y="2560" on="1"/>
      </contour>
      <contour>
        <pt x="512" y="3072" on="1"/>
        <pt x="512" y="3584" on="1"/>
        <pt x="1536" y="3584" on="1"/>
        <pt x="1536" y="3072" on="1"/>
      </contour>
      <contour>
        <pt x="1024" y="4096" on="1"/>
        <pt x="1024" y="4608" on="1"/>
        <pt x="1536" y="4608" on="1"/>
        <pt x="1536" y="4096" on="1"/>
      </contour>
    </TTGlyph>
    <TTGlyph name="uniFEAA" xMin="512" yMin="1536" xMax="3072" yMax="3584">
      <contour>
        <pt x="512" y="1536" on="1"/>
        <pt x="512" y="2048" on="1"/>
        <pt x="2048" y="2048" on="1"/>
        <pt x="2048" y="3072" on="1"/>
        <pt x="2560" y="3072" on="1"/>
        <pt x="2560" y="2048" on="1"/>
        <pt x="3072" y="2048" on="1"/>
        <pt x="3072" y="1536" on="1"/>
      </contour>
      <contour>
        <pt x="1024" y="3072" on="1"/>
        <pt x="1024" y="3584" on="1"/>
        <pt x="2048" y="3584" on="1"/>
        <pt x="2048" y="3072" on="1"/>
      </contour>
    </TTGlyph>
    <TTGlyph name="uniFEAC" xMin="512" yMin="1536" xMax="3072" yMax="4608">
      <contour>
        <pt x="512" y="1536" on="1"/>
        <pt x="512" y="2048" on="1"/>
        <pt x="2048" y="2048" on="1"/>
        <pt x="2048" y="3072" on="1"/>
        <pt x="2560" y="3072" on="1"/>
        <pt x="2560" y="2048" on="1"/>
        <pt x="3072" y="2048" on="1"/>
        <pt x="3072" y="1536" on="1"/>
      </contour>
      <contour>
        <pt x="1024" y="3072" on="1"/>
        <pt x="1024" y="3584" on="1"/>
        <pt x="2048" y="3584" on="1"/>
        <pt x="2048" y="3072" on="1"/>
      </contour>
      <contour>
        <pt x="1024" y="4096" on="1"/>
        <pt x="1024" y="4608" on="1"/>
        <pt x="1536" y="4608" on="1"/>
        <pt x="1536" y="4096" on="1"/>
      </contour>
    </TTGlyph>
    <TTGlyph name="uniFEAE" xMin="0" yMin="0" xMax="2560" yMax="2560">
      <contour>
        <pt x="0" y="0" on="1"/>
        <pt x="0" y="512" on="1"/>
        <pt x="1536" y="512" on="1"/>
        <pt x="1536" y="0" on="1"/>
      </contour>
      <contour>
        <pt x="1536" y="512" on="1"/>
        <pt x="1536" y="2560" on="1"/>
        <pt x="2048" y="2560" on="1"/>
        <pt x="2048" y="2048" on="1"/>
        <pt x="2560" y="2048" on="1"/>
        <pt x="2560" y="1536" on="1"/>
        <pt x="2048" y="1536" on="1"/>
        <pt x="2048" y="512" on="1"/>
      </contour>
    </TTGlyph>
    <TTGlyph name="uniFEB0" xMin="0" yMin="0" xMax="2560" yMax="3584">
      <contour>
        <pt x="0" y="0" on="1"/>
        <pt x="0" y="512" on="1"/>
        <pt x="1536" y="512" on="1"/>
        <pt x="1536" y="0" on="1"/>
      </contour>
      <contour>
        <pt x="1536" y="512" on="1"/>
        <pt x="1536" y="2560" on="1"/>
        <pt x="2048" y="2560" on="1"/>
        <pt x="2048" y="2048" on="1"/>
        <pt x="2560" y="2048" on="1"/>
        <pt x="2560" y="1536" on="1"/>
        <pt x="2048" y="1536" on="1"/>
        <pt x="2048" y="512" on="1"/>
      </contour>
      <contour>
        <pt x="1536" y="3072" on="1"/>
        <pt x="1536" y="3584" on="1"/>
        <pt x="2048" y="3584" on="1"/>
        <pt x="2048" y="3072" on="1"/>
      </contour>
    </TTGlyph>
    <TTGlyph name="uniFEB2" xMin="0" yMin="1024" xMax="4608" yMax="3072">
      <contour>
        <pt x="512" y="1024" on="1"/>
        <pt x="512" y="1536" on="1"/>
        <pt x="1536" y="1536" on="1"/>
        <pt x="1536" y="1024" on="1"/>
      </contour>
      <contour>
        <pt x="0" y="1536" on="1"/>
        <pt x="0" y="3072" on="1"/>
        <pt x="512" y="3072" on="1"/>
        <pt x="512" y="1536" on="1"/>
      </contour>
      <contour>
        <pt x="1536" y="1536" on="1"/>
        <pt x="1536" y="3072" on="1"/>
        <pt x="2048" y="3072" on="1"/>
        <pt x="2048" y="2048" on="1"/>
        <pt x="2560" y="2048" on="1"/>
        <pt x="2560" y="3072" on="1"/>
        <pt x="3072" y="3072" on="1"/>
        <pt x="3072" y="2048" on="1"/>
        <pt x="3584" y="2048" on="1"/>
        <pt x="3584" y="3072" on="1"/>
        <pt x="4096" y="3072" on="1"/>
        <pt x="4096" y="2048" on="1"/>
        <pt x="4608" y="2048" on="1"/>
        <pt x="4608" y="1536" on="1"/>
      </contour>
    </TTGlyph>
    <TTGlyph name="uniFEB3" xMin="0" yMin="1536" xMax="3072" yMax="3072">
      <contour>
        <pt x="0" y="1536" on="1"/>
        <pt x="0" y="2048" on="1"/>
        <pt x="512" y="2048" on="1"/>
        <pt x="512" y="3072" on="1"/>
        <pt x="1024" y="3072" on="1"/>
        <pt x="1024" y="2048" on="1"/>
        <pt x="1536" y="2048" on="1"/>
        <pt x="1536" y="3072" on="1"/>
        <pt x="2048" y="3072" on="1"/>
        <pt x="2048" y="2048" on="1"/>
        <pt x="2560" y="2048" on="1"/>
        <pt x="2560" y="1536" on="1"/>
      </contour>
      <contour>
        <pt x="2560" y="2048" on="1"/>
        <pt x="2560" y="3072" on="1"/>
        <pt x="3072" y="3072" on="1"/>
        <pt x="3072" y="2048" on="1"/>
      </contour>
    </TTGlyph>
    <TTGlyph name="uniFEB4" xMin="0" yMin="1536" xMax="3584" yMax="3072">
      <contour>
        <pt x="0" y="1536" on="1"/>
        <pt x="0" y="2048" on="1"/>
        <pt x="512" y="2048" on="1"/>
        <pt x="512" y="3072" on="1"/>
        <pt x="1024" y="3072" on="1"/>
        <pt x="1024" y="2048" on="1"/>
        <pt x="1536" y="2048" on="1"/>
        <pt x="1536" y="3072" on="1"/>
        <pt x="2048" y="3072" on="1"/>
        <pt x="2048" y="2048" on="1"/>
        <pt x="2560" y="2048" on="1"/>
        <pt x="2560" y="3072" on="1"/>
        <pt x="3072" y="3072" on="1"/>
        <pt x="3072" y="2048" on="1"/>
        <pt x="3584" y="2048" on="1"/>
        <pt x="3584" y="1536" on="1"/>
      </contour>
    </TTGlyph>
    <TTGlyph name="uniFEB6" xMin="0" yMin="1024" xMax="4608" yMax="4608">
      <contour>
        <pt x="512" y="1024" on="1"/>
        <pt x="512" y="1536" on="1"/>
        <pt x="1536" y="1536" on="1"/>
        <pt x="1536" y="1024" on="1"/>
      </contour>
      <contour>
        <pt x="0" y="1536" on="1"/>
        <pt x="0" y="3072" on="1"/>
        <pt x="512" y="3072" on="1"/>
        <pt x="512" y="1536" on="1"/>
      </contour>
      <contour>
        <pt x="1536" y="1536" on="1"/>
        <pt x="1536" y="3072" on="1"/>
        <pt x="2048" y="3072" on="1"/>
        <pt x="2048" y="2048" on="1"/>
        <pt x="2560" y="2048" on="1"/>
        <pt x="2560" y="3072" on="1"/>
        <pt x="3072" y="3072" on="1"/>
        <pt x="3072" y="2048" on="1"/>
        <pt x="3584" y="2048" on="1"/>
        <pt x="3584" y="3072" on="1"/>
        <pt x="4096" y="3072" on="1"/>
        <pt x="4096" y="2048" on="1"/>
        <pt x="4608" y="2048" on="1"/>
        <pt x="4608" y="1536" on="1"/>
      </contour>
      <contour>
        <pt x="2048" y="3584" on="1"/>
        <pt x="2048" y="4096" on="1"/>
        <pt x="2560" y="4096" on="1"/>
        <pt x="2560" y="4608" on="1"/>
        <pt x="3072" y="4608" on="1"/>
        <pt x="3072" y="4096" on="1"/>
        <pt x="3584" y="4096" on="1"/>
        <pt x="3584" y="3584" on="1"/>
      </contour>
    </TTGlyph>
    <TTGlyph name="uniFEB7" xMin="0" yMin="1536" xMax="3072" yMax="4608">
      <contour>
        <pt x="0" y="1536" on="1"/>
        <pt x="0" y="2048" on="1"/>
        <pt x="512" y="2048" on="1"/>
        <pt x="512" y="3072" on="1"/>
        <pt x="1024" y="3072" on="1"/>
        <pt x="1024" y="2048" on="1"/>
        <pt x="1536" y="2048" on="1"/>
        <pt x="1536" y="3072" on="1"/>
        <pt x="2048" y="3072" on="1"/>
        <pt x="2048" y="2048" on="1"/>
        <pt x="2560" y="2048" on="1"/>
        <pt x="2560" y="1536" on="1"/>
      </contour>
      <contour>
        <pt x="2560" y="2048" on="1"/>
        <pt x="2560" y="3072" on="1"/>
        <pt x="3072" y="3072" on="1"/>
        <pt x="3072" y="2048" on="1"/>
      </contour>
      <contour>
        <pt x="1024" y="3584" on="1"/>
        <pt x="1024" y="4096" on="1"/>
        <pt x="1536" y="4096" on="1"/>
        <pt x="1536" y="4608" on="1"/>
        <pt x="2048" y="4608" on="1"/>
        <pt x="2048" y="4096" on="1"/>
        <pt x="2560" y="4096" on="1"/>
        <pt x="2560" y="3584" on="1"/>
      </contour>
    </TTGlyph>
    <TTGlyph name="uniFEB8" xMin="0" yMin="1536" xMax="3584" yMax="4608">
      <contour>
        <pt x="0" y="1536" on="1"/>
        <pt x="0" y="2048" on="1"/>
        <pt x="512" y="2048" on="1"/>
        <pt x="512" y="3072" on="1"/>
        <pt x="1024" y="3072" on="1"/>
        <pt x="1024" y="2048" on="1"/>
        <pt x="1536" y="2048" on="1"/>
        <pt x="1536" y="3072" on="1"/>
        <pt x="2048" y="3072" on="1"/>
        <pt x="2048" y="2048" on="1"/>
        <pt x="2560" y="2048" on="1"/>
        <pt x="2560" y="3072" on="1"/>
        <pt x="3072" y="3072" on="1"/>
        <pt x="3072" y="2048" on="1"/>
        <pt x="3584" y="2048" on="1"/>
        <pt x="3584" y="1536" on="1"/>
      </contour>
      <contour>
        <pt x="1024" y="3584" on="1"/>
        <pt x="1024" y="4096" on="1"/>
        <pt x="1536" y="4096" on="1"/>
        <pt x="1536" y="4608" on="1"/>
        <pt x="2048" y="4608" on="1"/>
        <pt x="2048" y="4096" on="1"/>
        <pt x="2560" y="4096" on="1"/>
        <pt x="2560" y="3584" on="1"/>
      </contour>
    </TTGlyph>
    <TTGlyph name="uniFEBA" xMin="0" yMin="1024" xMax="4608" yMax="3584">
      <contour>
        <pt x="512" y="1024" on="1"/>
        <pt x="512" y="1536" on="1"/>
        <pt x="1536" y="1536" on="1"/>
        <pt x="1536" y="1024" on="1"/>
      </contour>
      <contour>
        <pt x="0" y="1536" on="1"/>
        <pt x="0" y="3072" on="1"/>
        <pt x="512" y="3072" on="1"/>
        <pt x="512" y="1536" on="1"/>
      </contour>
      <contour>
        <pt x="1536" y="1536" on="1"/>
        <pt x="1536" y="3072" on="1"/>
        <pt x="2560" y="3072" on="1"/>
        <pt x="2560" y="2560" on="1"/>
        <pt x="2048" y="2560" on="1"/>
        <pt x="2048" y="2048" on="1"/>
        <pt x="3584" y="2048" on="1"/>
        <pt x="3584" y="3072" on="1"/>
        <pt x="4096" y="3072" on="1"/>
        <pt x="4096" y="2048" on="1"/>
        <pt x="4608" y="2048" on="1"/>
        <pt x="4608" y="1536" on="1"/>
      </contour>
      <contour>
        <pt x="2560" y="3072" on="1"/>
        <pt x="2560" y="3584" on="1"/>
        <pt x="3584" y="3584" on="1"/>
        <pt x="3584" y="3072" on="1"/>
      </contour>
    </TTGlyph>
    <TTGlyph name="uniFEBB" xMin="0" yMin="1536" xMax="3072" yMax="3584">
      <contour>
        <pt x="0" y="1536" on="1"/>
        <pt x="0" y="2048" on="1"/>
        <pt x="512" y="2048" on="1"/>
        <pt x="512" y="3072" on="1"/>
        <pt x="1536" y="3072" on="1"/>
        <pt x="1536" y="2560" on="1"/>
        <pt x="1024" y="2560" on="1"/>
        <pt x="1024" y="2048" on="1"/>
        <pt x="2560" y="2048" on="1"/>
        <pt x="2560" y="3072" on="1"/>
        <pt x="3072" y="3072" on="1"/>
        <pt x="3072" y="1536" on="1"/>
      </contour>
      <contour>
        <pt x="1536" y="3072" on="1"/>
        <pt x="1536" y="3584" on="1"/>
        <pt x="2560" y="3584" on="1"/>
        <pt x="2560" y="3072" on="1"/>
      </contour>
    </TTGlyph>
    <TTGlyph name="uniFEBC" xMin="0" yMin="1536" xMax="3584" yMax="3584">
      <contour>
        <pt x="0" y="1536" on="1"/>
        <pt x="0" y="2048" on="1"/>
        <pt x="512" y="2048" on="1"/>
        <pt x="512" y="3072" on="1"/>
        <pt x="1536" y="3072" on="1"/>
        <pt x="1536" y="2560" on="1"/>
        <pt x="1024" y="2560" on="1"/>
        <pt x="1024" y="2048" on="1"/>
        <pt x="2560" y="2048" on="1"/>
        <pt x="2560" y="3072" on="1"/>
        <pt x="3072" y="3072" on="1"/>
        <pt x="3072" y="2048" on="1"/>
        <pt x="3584" y="2048" on="1"/>
        <pt x="3584" y="1536" on="1"/>
      </contour>
      <contour>
        <pt x="1536" y="3072" on="1"/>
        <pt x="1536" y="3584" on="1"/>
        <pt x="2560" y="3584" on="1"/>
        <pt x="2560" y="3072" on="1"/>
      </contour>
    </TTGlyph>
    <TTGlyph name="uniFEBE" xMin="0" yMin="1024" xMax="4608" yMax="4608">
      <contour>
        <pt x="512" y="1024" on="1"/>
        <pt x="512" y="1536" on="1"/>
        <pt x="1536" y="1536" on="1"/>
        <pt x="1536" y="1024" on="1"/>
      </contour>
      <contour>
        <pt x="0" y="1536" on="1"/>
        <pt x="0" y="3072" on="1"/>
        <pt x="512" y="3072" on="1"/>
        <pt x="512" y="1536" on="1"/>
      </contour>
      <contour>
        <pt x="1536" y="1536" on="1"/>
        <pt x="1536" y="3072" on="1"/>
        <pt x="2560" y="3072" on="1"/>
        <pt x="2560" y="2560" on="1"/>
        <pt x="2048" y="2560" on="1"/>
        <pt x="2048" y="2048" on="1"/>
        <pt x="3584" y="2048" on="1"/>
        <pt x="3584" y="3072" on="1"/>
        <pt x="4096" y="3072" on="1"/>
        <pt x="4096" y="2048" on="1"/>
        <pt x="4608" y="2048" on="1"/>
        <pt x="4608" y="1536" on="1"/>
      </contour>
      <contour>
        <pt x="2560" y="3072" on="1"/>
        <pt x="2560" y="3584" on="1"/>
        <pt x="3584" y="3584" on="1"/>
        <pt x="3584" y="3072" on="1"/>
      </contour>
      <contour>
        <pt x="2560" y="4096" on="1"/>
        <pt x="2560" y="4608" on="1"/>
        <pt x="3072" y="4608" on="1"/>
        <pt x="3072" y="4096" on="1"/>
      </contour>
    </TTGlyph>
    <TTGlyph name="uniFEBF" xMin="0" yMin="1536" xMax="3072" yMax="4608">
      <contour>
        <pt x="0" y="1536" on="1"/>
        <pt x="0" y="2048" on="1"/>
        <pt x="512" y="2048" on="1"/>
        <pt x="512" y="3072" on="1"/>
        <pt x="1536" y="3072" on="1"/>
        <pt x="1536" y="2560" on="1"/>
        <pt x="1024" y="2560" on="1"/>
        <pt x="1024" y="2048" on="1"/>
        <pt x="2560" y="2048" on="1"/>
        <pt x="2560" y="3072" on="1"/>
        <pt x="3072" y="3072" on="1"/>
        <pt x="3072" y="1536" on="1"/>
      </contour>
      <contour>
        <pt x="1536" y="3072" on="1"/>
        <pt x="1536" y="3584" on="1"/>
        <pt x="2560" y="3584" on="1"/>
        <pt x="2560" y="3072" on="1"/>
      </contour>
      <contour>
        <pt x="1536" y="4096" on="1"/>
        <pt x="1536" y="4608" on="1"/>
        <pt x="2048" y="4608" on="1"/>
        <pt x="2048" y="4096" on="1"/>
      </contour>
    </TTGlyph>
    <TTGlyph name="uniFEC0" xMin="0" yMin="1536" xMax="3584" yMax="4608">
      <contour>
        <pt x="0" y="1536" on="1"/>
        <pt x="0" y="2048" on="1"/>
        <pt x="512" y="2048" on="1"/>
        <pt x="512" y="3072" on="1"/>
        <pt x="1536" y="3072" on="1"/>
        <pt x="1536" y="2560" on="1"/>
        <pt x="1024" y="2560" on="1"/>
        <pt x="1024" y="2048" on="1"/>
        <pt x="2560" y="2048" on="1"/>
        <pt x="2560" y="3072" on="1"/>
        <pt x="3072" y="3072" on="1"/>
        <pt x="3072" y="2048" on="1"/>
        <pt x="3584" y="2048" on="1"/>
        <pt x="3584" y="1536" on="1"/>
      </contour>
      <contour>
        <pt x="1536" y="3072" on="1"/>
        <pt x="1536" y="3584" on="1"/>
        <pt x="2560" y="3584" on="1"/>
        <pt x="2560" y="3072" on="1"/>
      </contour>
      <contour>
        <pt x="1536" y="4096" on="1"/>
        <pt x="1536" y="4608" on="1"/>
        <pt x="2048" y="4608" on="1"/>
        <pt x="2048" y="4096" on="1"/>
      </contour>
    </TTGlyph>
    <TTGlyph name="uniFEC2" xMin="0" yMin="1536" xMax="3584" yMax="4608">
      <contour>
        <pt x="1536" y="3072" on="1"/>
        <pt x="1536" y="3584" on="1"/>
        <pt x="2560" y="3584" on="1"/>
        <pt x="2560" y="3072" on="1"/>
      </contour>
      <contour>
        <pt x="0" y="1536" on="1"/>
        <pt x="0" y="2048" on="1"/>
        <pt x="512" y="2048" on="1"/>
        <pt x="512" y="4608" on="1"/>
        <pt x="1024" y="4608" on="1"/>
        <pt x="1024" y="3072" on="1"/>
        <pt x="1536" y="3072" on="1"/>
        <pt x="1536" y="2560" on="1"/>
        <pt x="1024" y="2560" on="1"/>
        <pt x="1024" y="2048" on="1"/>
        <pt x="2560" y="2048" on="1"/>
        <pt x="2560" y="3072" on="1"/>
        <pt x="3072" y="3072" on="1"/>
        <pt x="3072" y="2048" on="1"/>
        <pt x="3584" y="2048" on="1"/>
        <pt x="3584" y="1536" on="1"/>
      </contour>
    </TTGlyph>
    <TTGlyph name="uniFEC3" xMin="0" yMin="1536" xMax="3072" yMax="4608">
      <contour>
        <pt x="1536" y="3072" on="1"/>
        <pt x="1536" y="3584" on="1"/>
        <pt x="2560" y="3584" on="1"/>
        <pt x="2560" y="3072" on="1"/>
      </contour>
      <contour>
        <pt x="0" y="1536" on="1"/>
        <pt x="0" y="2048" on="1"/>
        <pt x="512" y="2048" on="1"/>
        <pt x="512" y="4608" on="1"/>
        <pt x="1024" y="4608" on="1"/>
        <pt x="1024" y="3072" on="1"/>
        <pt x="1536" y="3072" on="1"/>
        <pt x="1536" y="2560" on="1"/>
        <pt x="1024" y="2560" on="1"/>
        <pt x="1024" y="2048" on="1"/>
        <pt x="2560" y="2048" on="1"/>
        <pt x="2560" y="3072" on="1"/>
        <pt x="3072" y="3072" on="1"/>
        <pt x="3072" y="1536" on="1"/>
      </contour>
    </TTGlyph>
    <TTGlyph name="uniFEC4" xMin="0" yMin="1536" xMax="3584" yMax="4608">
      <contour>
        <pt x="1536" y="3072" on="1"/>
        <pt x="1536" y="3584" on="1"/>
        <pt x="2560" y="3584" on="1"/>
        <pt x="2560" y="3072" on="1"/>
      </contour>
      <contour>
        <pt x="0" y="1536" on="1"/>
        <pt x="0" y="2048" on="1"/>
        <pt x="512" y="2048" on="1"/>
        <pt x="512" y="4608" on="1"/>
        <pt x="1024" y="4608" on="1"/>
        <pt x="1024" y="3072" on="1"/>
        <pt x="1536" y="3072" on="1"/>
        <pt x="1536" y="2560" on="1"/>
        <pt x="1024" y="2560" on="1"/>
        <pt x="1024" y="2048" on="1"/>
        <pt x="2560" y="2048" on="1"/>
        <pt x="2560" y="3072" on="1"/>
        <pt x="3072" y="3072" on="1"/>
        <pt x="3072" y="2048" on="1"/>
        <pt x="3584" y="2048" on="1"/>
        <pt x="3584" y="1536" on="1"/>
      </contour>
    </TTGlyph>
    <TTGlyph name="uniFEC6" xMin="0" yMin="1536" xMax="3584" yMax="4608">
      <contour>
        <pt x="1536" y="3072" on="1"/>
        <pt x="1536" y="3584" on="1"/>
        <pt x="2560" y="3584" on="1"/>
        <pt x="2560" y="3072" on="1"/>
      </contour>
      <contour>
        <pt x="0" y="1536" on="1"/>
        <pt x="0" y="2048" on="1"/>
        <pt x="512" y="2048" on="1"/>
        <pt x="512" y="4608" on="1"/>
        <pt x="1024" y="4608" on="1"/>
        <pt x="1024" y="3072" on="1"/>
        <pt x="1536" y="3072" on="1"/>
        <pt x="1536" y="2560" on="1"/>
        <pt x="1024" y="2560" on="1"/>
        <pt x="1024" y="2048" on="1"/>
        <pt x="2560" y="2048" on="1"/>
        <pt x="2560" y="3072" on="1"/>
        <pt x="3072" y="3072" on="1"/>
        <pt x="3072" y="2048" on="1"/>
        <pt x="3584" y="2048" on="1"/>
        <pt x="3584" y="1536" on="1"/>
      </contour>
      <contour>
        <pt x="1536" y="4096" on="1"/>
        <pt x="1536" y="4608" on="1"/>
        <pt x="2048" y="4608" on="1"/>
        <pt x="2048" y="4096" on="1"/>
      </contour>
    </TTGlyph>
    <TTGlyph name="uniFEC7" xMin="0" yMin="1536" xMax="3072" yMax="4608">
      <contour>
        <pt x="1536" y="3072" on="1"/>
        <pt x="1536" y="3584" on="1"/>
        <pt x="2560" y="3584" on="1"/>
        <pt x="2560" y="3072" on="1"/>
      </contour>
      <contour>
        <pt x="0" y="1536" on="1"/>
        <pt x="0" y="2048" on="1"/>
        <pt x="512" y="2048" on="1"/>
        <pt x="512" y="4608" on="1"/>
        <pt x="1024" y="4608" on="1"/>
        <pt x="1024" y="3072" on="1"/>
        <pt x="1536" y="3072" on="1"/>
        <pt x="1536" y="2560" on="1"/>
        <pt x="1024" y="2560" on="1"/>
        <pt x="1024" y="2048" on="1"/>
        <pt x="2560" y="2048" on="1"/>
        <pt x="2560" y="3072" on="1"/>
        <pt x="3072" y="3072" on="1"/>
        <pt x="3072" y="1536" on="1"/>
      </contour>
      <contour>
        <pt x="1536" y="4096" on="1"/>
        <pt x="1536" y="4608" on="1"/>
        <pt x="2048" y="4608" on="1"/>
        <pt x="2048" y="4096" on="1"/>
      </contour>
    </TTGlyph>
    <TTGlyph name="uniFEC8" xMin="0" yMin="1536" xMax="3584" yMax="4608">
      <contour>
        <pt x="1536" y="3072" on="1"/>
        <pt x="1536" y="3584" on="1"/>
        <pt x="2560" y="3584" on="1"/>
        <pt x="2560" y="3072" on="1"/>
      </contour>
      <contour>
        <pt x="0" y="1536" on="1"/>
        <pt x="0" y="2048" on="1"/>
        <pt x="512" y="2048" on="1"/>
        <pt x="512" y="4608" on="1"/>
        <pt x="1024" y="4608" on="1"/>
        <pt x="1024" y="3072" on="1"/>
        <pt x="1536" y="3072" on="1"/>
        <pt x="1536" y="2560" on="1"/>
        <pt x="1024" y="2560" on="1"/>
        <pt x="1024" y="2048" on="1"/>
        <pt x="2560" y="2048" on="1"/>
        <pt x="2560" y="3072" on="1"/>
        <pt x="3072" y="3072" on="1"/>
        <pt x="3072" y="2048" on="1"/>
        <pt x="3584" y="2048" on="1"/>
        <pt x="3584" y="1536" on="1"/>
      </contour>
      <contour>
        <pt x="1536" y="4096" on="1"/>
        <pt x="1536" y="4608" on="1"/>
        <pt x="2048" y="4608" on="1"/>
        <pt x="2048" y="4096" on="1"/>
      </contour>
    </TTGlyph>
    <TTGlyph name="uniFECA" xMin="0" yMin="0" xMax="2560" yMax="3584">
      <contour>
        <pt x="512" y="0" on="1"/>
        <pt x="512" y="512" on="1"/>
        <pt x="2048" y="512" on="1"/>
        <pt x="2048" y="0" on="1"/>
      </contour>
      <contour>
        <pt x="0" y="512" on="1"/>
        <pt x="0" y="1536" on="1"/>
        <pt x="512" y="1536" on="1"/>
        <pt x="512" y="512" on="1"/>
      </contour>
      <contour>
        <pt x="512" y="1536" on="1"/>
        <pt x="512" y="2048" on="1"/>
        <pt x="0" y="2048" on="1"/>
        <pt x="0" y="3072" on="1"/>
        <pt x="512" y="3072" on="1"/>
        <pt x="512" y="3584" on="1"/>
        <pt x="1536" y="3584" on="1"/>
        <pt x="1536" y="2048" on="1"/>
        <pt x="2560" y="2048" on="1"/>
        <pt x="2560" y="1536" on="1"/>
      </contour>
    </TTGlyph>
    <TTGlyph name="uniFECB" xMin="0" yMin="1536" xMax="2560" yMax="3584">
      <contour>
        <pt x="0" y="1536" on="1"/>
        <pt x="0" y="2048" on="1"/>
        <pt x="512" y="2048" on="1"/>
        <pt x="512" y="3072" on="1"/>
        <pt x="1024" y="3072" on="1"/>
        <pt x="1024" y="2048" on="1"/>
        <pt x="2560" y="2048" on="1"/>
        <pt x="2560" y="1536" on="1"/>
      </contour>
      <contour>
        <pt x="1024" y="3072" on="1"/>
        <pt x="1024" y="3584" on="1"/>
        <pt x="2048" y="3584" on="1"/>
        <pt x="2048" y="3072" on="1"/>
      </contour>
    </TTGlyph>
    <TTGlyph name="uniFECC" xMin="0" yMin="1536" xMax="3072" yMax="3584">
      <contour>
        <pt x="0" y="1536" on="1"/>
        <pt x="0" y="2048" on="1"/>
        <pt x="1024" y="2048" on="1"/>
        <pt x="1024" y="2560" on="1"/>
        <pt x="512" y="2560" on="1"/>
        <pt x="512" y="3584" on="1"/>
        <pt x="2048" y="3584" on="1"/>
        <pt x="2048" y="3072" on="1"/>
        <pt x="2560" y="3072" on="1"/>
        <pt x="2560" y="2560" on="1"/>
        <pt x="2048" y="2560" on="1"/>
        <pt x="2048" y="2048" on="1"/>
        <pt x="3072" y="2048" on="1"/>
        <pt x="3072" y="1536" on="1"/>
      </contour>
    </TTGlyph>
    <TTGlyph name="uniFECE" xMin="0" yMin="0" xMax="2560" yMax="4608">
      <contour>
        <pt x="512" y="0" on="1"/>
        <pt x="512" y="512" on="1"/>
        <pt x="2048" y="512" on="1"/>
        <pt x="2048" y="0" on="1"/>
      </contour>
      <contour>
        <pt x="0" y="512" on="1"/>
        <pt x="0" y="1536" on="1"/>
        <pt x="512" y="1536" on="1"/>
        <pt x="512" y="512" on="1"/>
      </contour>
      <contour>
        <pt x="512" y="1536" on="1"/>
        <pt x="512" y="2048" on="1"/>
        <pt x="0" y="2048" on="1"/>
        <pt x="0" y="3072" on="1"/>
        <pt x="512" y="3072" on="1"/>
        <pt x="512" y="3584" on="1"/>
        <pt x="1536" y="3584" on="1"/>
        <pt x="1536" y="2048" on="1"/>
        <pt x="2560" y="2048" on="1"/>
        <pt x="2560" y="1536" on="1"/>
      </contour>
      <contour>
        <pt x="512" y="4096" on="1"/>
        <pt x="512" y="4608" on="1"/>
        <pt x="1024" y="4608" on="1"/>
        <pt x="1024" y="4096" on="1"/>
      </contour>
    </TTGlyph>
    <TTGlyph name="uniFECF" xMin="0" yMin="1536" xMax="2560" yMax="4608">
      <contour>
        <pt x="0" y="1536" on="1"/>
        <pt x="0" y="2048" on="1"/>
        <pt x="512" y="2048" on="1"/>
        <pt x="512" y="3072" on="1"/>
        <pt x="1024" y="3072" on="1"/>
        <pt x="1024" y="2048" on="1"/>
        <pt x="2560" y="2048" on="1"/>
        <pt x="2560" y="1536" on="1"/>
      </contour>
      <contour>
        <pt x="1024" y="3072" on="1"/>
        <pt x="1024" y="3584" on="1"/>
        <pt x="2048" y="3584" on="1"/>
        <pt x="2048" y="3072" on="1"/>
      </contour>
      <contour>
        <pt x="1024" y="4096" on="1"/>
        <pt x="1024" y="4608" on="1"/>
        <pt x="1536" y="4608" on="1"/>
        <pt x="1536" y="4096" on="1"/>
      </contour>
    </TTGlyph>
    <TTGlyph name="uniFED0" xMin="0" yMin="1536" xMax="3072" yMax="4608">
      <contour>
        <pt x="0" y="1536" on="1"/>
        <pt x="0" y="2048" on="1"/>
        <pt x="1024" y="2048" on="1"/>
        <pt x="1024" y="2560" on="1"/>
        <pt x="512" y="2560" on="1"/>
        <pt x="512" y="3584" on="1"/>
        <pt x="2048" y="3584" on="1"/>
        <pt x="2048" y="3072" on="1"/>
        <pt x="2560" y="3072" on="1"/>
        <pt x="2560" y="2560" on="1"/>
        <pt x="2048" y="2560" on="1"/>
        <pt x="2048" y="2048" on="1"/>
        <pt x="3072" y="2048" on="1"/>
        <pt x="3072" y="1536" on="1"/>
      </contour>
      <contour>
        <pt x="1024" y="4096" on="1"/>
        <pt x="1024" y="4608" on="1"/>
        <pt x="1536" y="4608" on="1"/>
        <pt x="1536" y="4096" on="1"/>
      </contour>
    </TTGlyph>
    <TTGlyph name="uniFED2" xMin="0" yMin="1536" xMax="4096" yMax="5120">
      <contour>
        <pt x="0" y="2048" on="1"/>
        <pt x="0" y="3584" on="1"/>
        <pt x="512" y="3584" on="1"/>
        <pt x="512" y="2048" on="1"/>
      </contour>
      <contour>
        <pt x="1536" y="2560" on="1"/>
        <pt x="1536" y="3584" on="1"/>
        <pt x="2048" y="3584" on="1"/>
        <pt x="2048" y="2560" on="1"/>
      </contour>
      <contour>
        <pt x="512" y="1536" on="1"/>
        <pt x="512" y="2048" on="1"/>
        <pt x="2048" y="2048" on="1"/>
        <pt x="2048" y="2560" on="1"/>
        <pt x="3072" y="2560" on="1"/>
        <pt x="3072" y="3584" on="1"/>
        <pt x="2048" y="3584" on="1"/>
        <pt x="2048" y="4096" on="1"/>
        <pt x="3584" y="4096" on="1"/>
        <pt x="3584" y="2048" on="1"/>
        <pt x="4096" y="2048" on="1"/>
        <pt x="4096" y="1536" on="1"/>
      </contour>
      <contour>
        <pt x="2560" y="4608" on="1"/>
        <pt x="2560" y="5120" on="1"/>
        <pt x="3072" y="5120" on="1"/>
        <pt x="3072" y="4608" on="1"/>
      </contour>
    </TTGlyph>
    <TTGlyph name="uniFED3" xMin="0" yMin="1536" xMax="2560" yMax="5120">
      <contour>
        <pt x="512" y="2560" on="1"/>
        <pt x="512" y="3584" on="1"/>
        <pt x="1024" y="3584" on="1"/>
        <pt x="1024" y="2560" on="1"/>
      </contour>
      <contour>
        <pt x="0" y="1536" on="1"/>
        <pt x="0" y="2048" on="1"/>
        <pt x="1024" y="2048" on="1"/>
        <pt x="1024" y="2560" on="1"/>
        <pt x="2048" y="2560" on="1"/>
        <pt x="2048" y="3584" on="1"/>
        <pt x="1024" y="3584" on="1"/>
        <pt x="1024" y="4096" on="1"/>
        <pt x="2560" y="4096" on="1"/>
        <pt x="2560" y="2048" on="1"/>
        <pt x="2048" y="2048" on="1"/>
        <pt x="2048" y="1536" on="1"/>
      </contour>
      <contour>
        <pt x="1536" y="4608" on="1"/>
        <pt x="1536" y="5120" on="1"/>
        <pt x="2048" y="5120" on="1"/>
        <pt x="2048" y="4608" on="1"/>
      </contour>
    </TTGlyph>
    <TTGlyph name="uniFED4" xMin="0" yMin="1536" xMax="3072" yMax="4608">
      <contour>
        <pt x="0" y="1536" on="1"/>
        <pt x="0" y="2048" on="1"/>
        <pt x="512" y="2048" on="1"/>
        <pt x="512" y="3072" on="1"/>
        <pt x="1024" y="3072" on="1"/>
        <pt x="1024" y="2048" on="1"/>
        <pt x="2048" y="2048" on="1"/>
        <pt x="2048" y="3072" on="1"/>
        <pt x="1024" y="3072" on="1"/>
        <pt x="1024" y="3584" on="1"/>
        <pt x="2560" y="3584" on="1"/>
        <pt x="2560" y="2048" on="1"/>
        <pt x="3072" y="2048" on="1"/>
        <pt x="3072" y="1536" on="1"/>
      </contour>
      <contour>
        <pt x="1536" y="4096" on="1"/>
        <pt x="1536" y="4608" on="1"/>
        <pt x="2048" y="4608" on="1"/>
        <pt x="2048" y="4096" on="1"/>
      </contour>
    </TTGlyph>
    <TTGlyph name="uniFED6" xMin="0" yMin="512" xMax="3584" yMax="4608">
      <contour>
        <pt x="512" y="512" on="1"/>
        <pt x="512" y="1024" on="1"/>
        <pt x="2560" y="1024" on="1"/>
        <pt x="2560" y="512" on="1"/>
      </contour>
      <contour>
        <pt x="0" y="1024" on="1"/>
        <pt x="0" y="2560" on="1"/>
        <pt x="512" y="2560" on="1"/>
        <pt x="512" y="1024" on="1"/>
      </contour>
      <contour>
        <pt x="1024" y="2048" on="1"/>
        <pt x="1024" y="3072" on="1"/>
        <pt x="1536" y="3072" on="1"/>
        <pt x="1536" y="2048" on="1"/>
      </contour>
      <contour>
        <pt x="2560" y="1024" on="1"/>
        <pt x="2560" y="1536" on="1"/>
        <pt x="1536" y="1536" on="1"/>
        <pt x="1536" y="2048" on="1"/>
        <pt x="2560" y="2048" on="1"/>
        <pt x="2560" y="3072" on="1"/>
        <pt x="1536" y="3072" on="1"/>
        <pt x="1536" y="3584" on="1"/>
        <pt x="3072" y="3584" on="1"/>
        <pt x="3072" y="2048" on="1"/>
        <pt x="3584" y="2048" on="1"/>
        <pt x="3584" y="1536" on="1"/>
        <pt x="3072" y="1536" on="1"/>
        <pt x="3072" y="1024" on="1"/>
      </contour>
      <contour>
        <pt x="1536" y="4096" on="1"/>
        <pt x="1536" y="4608" on="1"/>
        <pt x="3072" y="4608" on="1"/>
        <pt x="3072" y="4096" on="1"/>
      </contour>
    </TTGlyph>
    <TTGlyph name="uniFED7" xMin="0" yMin="1536" xMax="2560" yMax="5120">
      <contour>
        <pt x="512" y="2560" on="1"/>
        <pt x="512" y="3584" on="1"/>
        <pt x="1024" y="3584" on="1"/>
        <pt x="1024" y="2560" on="1"/>
      </contour>
      <contour>
        <pt x="0" y="1536" on="1"/>
        <pt x="0" y="2048" on="1"/>
        <pt x="1024" y="2048" on="1"/>
        <pt x="1024" y="2560" on="1"/>
        <pt x="2048" y="2560" on="1"/>
        <pt x="2048" y="3584" on="1"/>
        <pt x="1024" y="3584" on="1"/>
        <pt x="1024" y="4096" on="1"/>
        <pt x="2560" y="4096" on="1"/>
        <pt x="2560" y="2048" on="1"/>
        <pt x="2048" y="2048" on="1"/>
        <pt x="2048" y="1536" on="1"/>
      </contour>
      <contour>
        <pt x="1024" y="4608" on="1"/>
        <pt x="1024" y="5120" on="1"/>
        <pt x="2560" y="5120" on="1"/>
        <pt x="2560" y="4608" on="1"/>
      </contour>
    </TTGlyph>
    <TTGlyph name="uniFED8" xMin="0" yMin="1536" xMax="3072" yMax="4608">
      <contour>
        <pt x="0" y="1536" on="1"/>
        <pt x="0" y="2048" on="1"/>
        <pt x="512" y="2048" on="1"/>
        <pt x="512" y="3072" on="1"/>
        <pt x="1024" y="3072" on="1"/>
        <pt x="1024" y="2048" on="1"/>
        <pt x="2048" y="2048" on="1"/>
        <pt x="2048" y="3072" on="1"/>
        <pt x="1024" y="3072" on="1"/>
        <pt x="1024" y="3584" on="1"/>
        <pt x="2560" y="3584" on="1"/>
        <pt x="2560" y="2048" on="1"/>
        <pt x="3072" y="2048" on="1"/>
        <pt x="3072" y="1536" on="1"/>
      </contour>
      <contour>
        <pt x="1024" y="4096" on="1"/>
        <pt x="1024" y="4608" on="1"/>
        <pt x="2560" y="4608" on="1"/>
        <pt x="2560" y="4096" on="1"/>
      </contour>
    </TTGlyph>
    <TTGlyph name="uniFEDA" xMin="0" yMin="1536" xMax="3584" yMax="4608">
      <contour>
        <pt x="0" y="2048" on="1"/>
        <pt x="0" y="3072" on="1"/>
        <pt x="512" y="3072" on="1"/>
        <pt x="512" y="2048" on="1"/>
      </contour>
      <contour>
        <pt x="512" y="3584" on="1"/>
        <pt x="512" y="4096" on="1"/>
        <pt x="1024" y="4096" on="1"/>
        <pt x="1024" y="4608" on="1"/>
        <pt x="2048" y="4608" on="1"/>
        <pt x="2048" y="4096" on="1"/>
        <pt x="1536" y="4096" on="1"/>
        <pt x="1536" y="3584" on="1"/>
      </contour>
      <contour>
        <pt x="512" y="1536" on="1"/>
        <pt x="512" y="2048" on="1"/>
        <pt x="2560" y="2048" on="1"/>
        <pt x="2560" y="4608" on="1"/>
        <pt x="3072" y="4608" on="1"/>
        <pt x="3072" y="2048" on="1"/>
        <pt x="3584" y="2048" on="1"/>
        <pt x="3584" y="1536" on="1"/>
      </contour>
    </TTGlyph>
    <TTGlyph name="uniFEDB" xMin="0" yMin="1536" xMax="2560" yMax="5120">
      <contour>
        <pt x="0" y="1536" on="1"/>
        <pt x="0" y="2048" on="1"/>
        <pt x="1536" y="2048" on="1"/>
        <pt x="1536" y="2560" on="1"/>
        <pt x="2048" y="2560" on="1"/>
        <pt x="2048" y="1536" on="1"/>
      </contour>
      <contour>
        <pt x="1024" y="2560" on="1"/>
        <pt x="1024" y="3072" on="1"/>
        <pt x="1536" y="3072" on="1"/>
        <pt x="1536" y="2560" on="1"/>
      </contour>
      <contour>
        <pt x="512" y="3072" on="1"/>
        <pt x="512" y="3584" on="1"/>
        <pt x="1024" y="3584" on="1"/>
        <pt x="1024" y="3072" on="1"/>
      </contour>
      <contour>
        <pt x="1024" y="3584" on="1"/>
        <pt x="1024" y="4096" on="1"/>
        <pt x="1536" y="4096" on="1"/>
        <pt x="1536" y="3584" on="1"/>
      </contour>
      <contour>
        <pt x="1536" y="4096" on="1"/>
        <pt x="1536" y="4608" on="1"/>
        <pt x="2048" y="4608" on="1"/>
        <pt x="2048" y="4096" on="1"/>
      </contour>
      <contour>
        <pt x="2048" y="4608" on="1"/>
        <pt x="2048" y="5120" on="1"/>
        <pt x="2560" y="5120" on="1"/>
        <pt x="2560" y="4608" on="1"/>
      </contour>
    </TTGlyph>
    <TTGlyph name="uniFEDC" xMin="0" yMin="1536" xMax="3072" yMax="5120">
      <contour>
        <pt x="0" y="1536" on="1"/>
        <pt x="0" y="2048" on="1"/>
        <pt x="1536" y="2048" on="1"/>
        <pt x="1536" y="2560" on="1"/>
        <pt x="2048" y="2560" on="1"/>
        <pt x="2048" y="2048" on="1"/>
        <pt x="3072" y="2048" on="1"/>
        <pt x="3072" y="1536" on="1"/>
      </contour>
      <contour>
        <pt x="1024" y="2560" on="1"/>
        <pt x="1024" y="3072" on="1"/>
        <pt x="1536" y="3072" on="1"/>
        <pt x="1536" y="2560" on="1"/>
      </contour>
      <contour>
        <pt x="512" y="3072" on="1"/>
        <pt x="512" y="3584" on="1"/>
        <pt x="1024" y="3584" on="1"/>
        <pt x="1024" y="3072" on="1"/>
      </contour>
      <contour>
        <pt x="1024" y="3584" on="1"/>
        <pt x="1024" y="4096" on="1"/>
        <pt x="1536" y="4096" on="1"/>
        <pt x="1536" y="3584" on="1"/>
      </contour>
      <contour>
        <pt x="1536" y="4096" on="1"/>
        <pt x="1536" y="4608" on="1"/>
        <pt x="2048" y="4608" on="1"/>
        <pt x="2048" y="4096" on="1"/>
      </contour>
      <contour>
        <pt x="2048" y="4608" on="1"/>
        <pt x="2048" y="5120" on="1"/>
        <pt x="2560" y="5120" on="1"/>
        <pt x="2560" y="4608" on="1"/>
      </contour>
    </TTGlyph>
    <TTGlyph name="uniFEDE" xMin="0" yMin="512" xMax="3072" yMax="4608">
      <contour>
        <pt x="512" y="512" on="1"/>
        <pt x="512" y="1024" on="1"/>
        <pt x="2048" y="1024" on="1"/>
        <pt x="2048" y="512" on="1"/>
      </contour>
      <contour>
        <pt x="0" y="1024" on="1"/>
        <pt x="0" y="2048" on="1"/>
        <pt x="512" y="2048" on="1"/>
        <pt x="512" y="1024" on="1"/>
      </contour>
      <contour>
        <pt x="512" y="2048" on="1"/>
        <pt x="512" y="2560" on="1"/>
        <pt x="1024" y="2560" on="1"/>
        <pt x="1024" y="2048" on="1"/>
      </contour>
      <contour>
        <pt x="2048" y="1024" on="1"/>
        <pt x="2048" y="4608" on="1"/>
        <pt x="2560" y="4608" on="1"/>
        <pt x="2560" y="2048" on="1"/>
        <pt x="3072" y="2048" on="1"/>
        <pt x="3072" y="1536" on="1"/>
        <pt x="2560" y="1536" on="1"/>
        <pt x="2560" y="1024" on="1"/>
      </contour>
    </TTGlyph>
    <TTGlyph name="uniFEDF" xMin="0" yMin="1536" xMax="1536" yMax="4608">
      <contour>
        <pt x="0" y="1536" on="1"/>
        <pt x="0" y="2048" on="1"/>
        <pt x="1024" y="2048" on="1"/>
        <pt x="1024" y="1536" on="1"/>
      </contour>
      <contour>
        <pt x="1024" y="2048" on="1"/>
        <pt x="1024" y="4608" on="1"/>
        <pt x="1536" y="4608" on="1"/>
        <pt x="1536" y="2048" on="1"/>
      </contour>
    </TTGlyph>
    <TTGlyph name="uniFEE0" xMin="0" yMin="1536" xMax="2560" yMax="4608">
      <contour>
        <pt x="0" y="1536" on="1"/>
        <pt x="0" y="2048" on="1"/>
        <pt x="1024" y="2048" on="1"/>
        <pt x="1024" y="4608" on="1"/>
        <pt x="1536" y="4608" on="1"/>
        <pt x="1536" y="2048" on="1"/>
        <pt x="2560" y="2048" on="1"/>
        <pt x="2560" y="1536" on="1"/>
      </contour>
    </TTGlyph>
    <TTGlyph name="uniFEE2" xMin="0" yMin="0" xMax="3072" yMax="3584">
      <contour>
        <pt x="0" y="0" on="1"/>
        <pt x="0" y="2048" on="1"/>
        <pt x="512" y="2048" on="1"/>
        <pt x="512" y="3584" on="1"/>
        <pt x="2048" y="3584" on="1"/>
        <pt x="2048" y="3072" on="1"/>
        <pt x="1024" y="3072" on="1"/>
        <pt x="1024" y="2048" on="1"/>
        <pt x="2048" y="2048" on="1"/>
        <pt x="2048" y="3072" on="1"/>
        <pt x="2560" y="3072" on="1"/>
        <pt x="2560" y="2048" on="1"/>
        <pt x="3072" y="2048" on="1"/>
        <pt x="3072" y="1536" on="1"/>
        <pt x="512" y="1536" on="1"/>
        <pt x="512" y="0" on="1"/>
      </contour>
    </TTGlyph>
    <TTGlyph name="uniFEE3" xMin="0" yMin="1536" xMax="2560" yMax="3584">
      <contour>
        <pt x="0" y="1536" on="1"/>
        <pt x="0" y="2048" on="1"/>
        <pt x="512" y="2048" on="1"/>
        <pt x="512" y="3584" on="1"/>
        <pt x="2048" y="3584" on="1"/>
        <pt x="2048" y="3072" on="1"/>
        <pt x="1024" y="3072" on="1"/>
        <pt x="1024" y="2048" on="1"/>
        <pt x="2048" y="2048" on="1"/>
        <pt x="2048" y="3072" on="1"/>
        <pt x="2560" y="3072" on="1"/>
        <pt x="2560" y="1536" on="1"/>
      </contour>
    </TTGlyph>
    <TTGlyph name="uniFEE4" xMin="0" yMin="1536" xMax="3072" yMax="3584">
      <contour>
        <pt x="0" y="1536" on="1"/>
        <pt x="0" y="2048" on="1"/>
        <pt x="512" y="2048" on="1"/>
        <pt x="512" y="3584" on="1"/>
        <pt x="2048" y="3584" on="1"/>
        <pt x="2048" y="3072" on="1"/>
        <pt x="1024" y="3072" on="1"/>
        <pt x="1024" y="2048" on="1"/>
        <pt x="2048" y="2048" on="1"/>
        <pt x="2048" y="3072" on="1"/>
        <pt x="2560" y="3072" on="1"/>
        <pt x="2560" y="2048" on="1"/>
        <pt x="3072" y="2048" on="1"/>
        <pt x="3072" y="1536" on="1"/>
      </contour>
    </TTGlyph>
    <TTGlyph name="uniFEE6" xMin="0" yMin="512" xMax="3072" yMax="3584">
      <contour>
        <pt x="512" y="512" on="1"/>
        <pt x="512" y="1024" on="1"/>
        <pt x="2048" y="1024" on="1"/>
        <pt x="2048" y="512" on="1"/>
      </contour>
      <contour>
        <pt x="0" y="1024" on="1"/>
        <pt x="0" y="2560" on="1"/>
        <pt x="512" y="2560" on="1"/>
        <pt x="512" y="1024" on="1"/>
      </contour>
      <contour>
        <pt x="2048" y="1024" on="1"/>
        <pt x="2048" y="2560" on="1"/>
        <pt x="2560" y="2560" on="1"/>
        <pt x="2560" y="2048" on="1"/>
        <pt x="3072" y="2048" on="1"/>
        <pt x="3072" y="1536" on="1"/>
        <pt x="2560" y="1536" on="1"/>
        <pt x="2560" y="1024" on="1"/>
      </contour>
      <contour>
        <pt x="1024" y="3072" on="1"/>
        <pt x="1024" y="3584" on="1"/>
        <pt x="1536" y="3584" on="1"/>
        <pt x="1536" y="3072" on="1"/>
      </contour>
    </TTGlyph>
    <TTGlyph name="uniFEE7" xMin="0" yMin="1536" xMax="1536" yMax="4608">
      <contour>
        <pt x="0" y="1536" on="1"/>
        <pt x="0" y="2048" on="1"/>
        <pt x="1024" y="2048" on="1"/>
        <pt x="1024" y="1536" on="1"/>
      </contour>
      <contour>
        <pt x="1024" y="2048" on="1"/>
        <pt x="1024" y="3584" on="1"/>
        <pt x="1536" y="3584" on="1"/>
        <pt x="1536" y="2048" on="1"/>
      </contour>
      <contour>
        <pt x="1024" y="4096" on="1"/>
        <pt x="1024" y="4608" on="1"/>
        <pt x="1536" y="4608" on="1"/>
        <pt x="1536" y="4096" on="1"/>
      </contour>
    </TTGlyph>
    <TTGlyph name="uniFEE8" xMin="0" yMin="1536" xMax="2560" yMax="4608">
      <contour>
        <pt x="0" y="1536" on="1"/>
        <pt x="0" y="2048" on="1"/>
        <pt x="1024" y="2048" on="1"/>
        <pt x="1024" y="3584" on="1"/>
        <pt x="1536" y="3584" on="1"/>
        <pt x="1536" y="2048" on="1"/>
        <pt x="2560" y="2048" on="1"/>
        <pt x="2560" y="1536" on="1"/>
      </contour>
      <contour>
        <pt x="1024" y="4096" on="1"/>
        <pt x="1024" y="4608" on="1"/>
        <pt x="1536" y="4608" on="1"/>
        <pt x="1536" y="4096" on="1"/>
      </contour>
    </TTGlyph>
    <TTGlyph name="uniFEEA" xMin="0" yMin="1536" xMax="3072" yMax="3584">
      <contour>
        <pt x="0" y="2048" on="1"/>
        <pt x="0" y="3072" on="1"/>
        <pt x="512" y="3072" on="1"/>
        <pt x="512" y="2048" on="1"/>
      </contour>
      <contour>
        <pt x="512" y="1536" on="1"/>
        <pt x="512" y="2048" on="1"/>
        <pt x="1536" y="2048" on="1"/>
        <pt x="1536" y="3072" on="1"/>
        <pt x="512" y="3072" on="1"/>
        <pt x="512" y="3584" on="1"/>
        <pt x="2048" y="3584" on="1"/>
        <pt x="2048" y="2048" on="1"/>
        <pt x="3072" y="2048" on="1"/>
        <pt x="3072" y="1536" on="1"/>
      </contour>
    </TTGlyph>
    <TTGlyph name="uniFEEB" xMin="0" yMin="1536" xMax="3072" yMax="4096">
      <contour>
        <pt x="0" y="1536" on="1"/>
        <pt x="0" y="2048" on="1"/>
        <pt x="512" y="2048" on="1"/>
        <pt x="512" y="2560" on="1"/>
        <pt x="1024" y="2560" on="1"/>
        <pt x="1024" y="2048" on="1"/>
        <pt x="1536" y="2048" on="1"/>
        <pt x="1536" y="2560" on="1"/>
        <pt x="2048" y="2560" on="1"/>
        <pt x="2048" y="2048" on="1"/>
        <pt x="2560" y="2048" on="1"/>
        <pt x="2560" y="1536" on="1"/>
      </contour>
      <contour>
        <pt x="2560" y="2048" on="1"/>
        <pt x="2560" y="2560" on="1"/>
        <pt x="3072" y="2560" on="1"/>
        <pt x="3072" y="2048" on="1"/>
      </contour>
      <contour>
        <pt x="1024" y="2560" on="1"/>
        <pt x="1024" y="3072" on="1"/>
        <pt x="1536" y="3072" on="1"/>
        <pt x="1536" y="2560" on="1"/>
      </contour>
      <contour>
        <pt x="2048" y="2560" on="1"/>
        <pt x="2048" y="3072" on="1"/>
        <pt x="2560" y="3072" on="1"/>
        <pt x="2560" y="2560" on="1"/>
      </contour>
      <contour>
        <pt x="512" y="3072" on="1"/>
        <pt x="512" y="3584" on="1"/>
        <pt x="1024" y="3584" on="1"/>
        <pt x="1024" y="3072" on="1"/>
      </contour>
      <contour>
        <pt x="1536" y="3072" on="1"/>
        <pt x="1536" y="3584" on="1"/>
        <pt x="2048" y="3584" on="1"/>
        <pt x="2048" y="3072" on="1"/>
      </contour>
      <contour>
        <pt x="1024" y="3584" on="1"/>
        <pt x="1024" y="4096" on="1"/>
        <pt x="1536" y="4096" on="1"/>
        <pt x="1536" y="3584" on="1"/>
      </contour>
    </TTGlyph>
    <TTGlyph name="uniFEEC" xMin="0" yMin="0" xMax="3072" yMax="2048">
      <contour>
        <pt x="1536" y="512" on="1"/>
        <pt x="1536" y="1024" on="1"/>
        <pt x="2048" y="1024" on="1"/>
        <pt x="2048" y="512" on="1"/>
      </contour>
      <contour>
        <pt x="512" y="0" on="1"/>
        <pt x="512" y="1536" on="1"/>
        <pt x="0" y="1536" on="1"/>
        <pt x="0" y="2048" on="1"/>
        <pt x="1024" y="2048" on="1"/>
        <pt x="1024" y="512" on="1"/>
        <pt x="1536" y="512" on="1"/>
        <pt x="1536" y="0" on="1"/>
      </contour>
      <contour>
        <pt x="2048" y="1024" on="1"/>
        <pt x="2048" y="2048" on="1"/>
        <pt x="3072" y="2048" on="1"/>
        <pt x="3072" y="1536" on="1"/>
        <pt x="2560" y="1536" on="1"/>
        <pt x="2560" y="1024" on="1"/>
      </contour>
    </TTGlyph>
    <TTGlyph name="uniFEEE" xMin="512" yMin="0" xMax="3072" yMax="3584">
      <contour>
        <pt x="512" y="0" on="1"/>
        <pt x="512" y="512" on="1"/>
        <pt x="2048" y="512" on="1"/>
        <pt x="2048" y="0" on="1"/>
      </contour>
      <contour>
        <pt x="512" y="2048" on="1"/>
        <pt x="512" y="3072" on="1"/>
        <pt x="1024" y="3072" on="1"/>
        <pt x="1024" y="2048" on="1"/>
      </contour>
      <contour>
        <pt x="2048" y="512" on="1"/>
        <pt x="2048" y="1536" on="1"/>
        <pt x="1024" y="1536" on="1"/>
        <pt x="1024" y="2048" on="1"/>
        <pt x="2048" y="2048" on="1"/>
        <pt x="2048" y="3072" on="1"/>
        <pt x="1024" y="3072" on="1"/>
        <pt x="1024" y="3584" on="1"/>
        <pt x="2560" y="3584" on="1"/>
        <pt x="2560" y="2048" on="1"/>
        <pt x="3072" y="2048" on="1"/>
        <pt x="3072" y="1536" on="1"/>
        <pt x="2560" y="1536" on="1"/>
        <pt x="2560" y="512" on="1"/>
      </contour>
    </TTGlyph>
    <TTGlyph name="uniFEF0" xMin="0" yMin="1024" xMax="4096" yMax="3072">
      <contour>
        <pt x="512" y="1024" on="1"/>
        <pt x="512" y="1536" on="1"/>
        <pt x="2560" y="1536" on="1"/>
        <pt x="2560" y="1024" on="1"/>
      </contour>
      <contour>
        <pt x="2560" y="1536" on="1"/>
        <pt x="2560" y="2048" on="1"/>
        <pt x="3072" y="2048" on="1"/>
        <pt x="3072" y="1536" on="1"/>
      </contour>
      <contour>
        <pt x="0" y="1536" on="1"/>
        <pt x="0" y="2560" on="1"/>
        <pt x="512" y="2560" on="1"/>
        <pt x="512" y="1536" on="1"/>
      </contour>
      <contour>
        <pt x="2048" y="2048" on="1"/>
        <pt x="2048" y="2560" on="1"/>
        <pt x="2560" y="2560" on="1"/>
        <pt x="2560" y="2048" on="1"/>
      </contour>
      <contour>
        <pt x="3584" y="2048" on="1"/>
        <pt x="3584" y="2560" on="1"/>
        <pt x="4096" y="2560" on="1"/>
        <pt x="4096" y="2048" on="1"/>
      </contour>
      <contour>
        <pt x="512" y="2560" on="1"/>
        <pt x="512" y="3072" on="1"/>
        <pt x="1024" y="3072" on="1"/>
        <pt x="1024" y="2560" on="1"/>
      </contour>
      <contour>
        <pt x="2560" y="2560" on="1"/>
        <pt x="2560" y="3072" on="1"/>
        <pt x="3584" y="3072" on="1"/>
        <pt x="3584" y="2560" on="1"/>
      </contour>
    </TTGlyph>
    <TTGlyph name="uniFEF2" xMin="0" yMin="0" xMax="4096" yMax="3072">
      <contour>
        <pt x="512" y="0" on="1"/>
        <pt x="512" y="512" on="1"/>
        <pt x="2048" y="512" on="1"/>
        <pt x="2048" y="0" on="1"/>
      </contour>
      <contour>
        <pt x="512" y="1024" on="1"/>
        <pt x="512" y="1536" on="1"/>
        <pt x="2560" y="1536" on="1"/>
        <pt x="2560" y="1024" on="1"/>
      </contour>
      <contour>
        <pt x="2560" y="1536" on="1"/>
        <pt x="2560" y="2048" on="1"/>
        <pt x="3072" y="2048" on="1"/>
        <pt x="3072" y="1536" on="1"/>
      </contour>
      <contour>
        <pt x="0" y="1536" on="1"/>
        <pt x="0" y="2560" on="1"/>
        <pt x="512" y="2560" on="1"/>
        <pt x="512" y="1536" on="1"/>
      </contour>
      <contour>
        <pt x="2048" y="2048" on="1"/>
        <pt x="2048" y="2560" on="1"/>
        <pt x="2560" y="2560" on="1"/>
        <pt x="2560" y="2048" on="1"/>
      </contour>
      <contour>
        <pt x="3584" y="2048" on="1"/>
        <pt x="3584" y="2560" on="1"/>
        <pt x="4096" y="2560" on="1"/>
        <pt x="4096" y="2048" on="1"/>
      </contour>
      <contour>
        <pt x="512" y="2560" on="1"/>
        <pt x="512" y="3072" on="1"/>
        <pt x="1024" y="3072" on="1"/>
        <pt x="1024" y="2560" on="1"/>
      </contour>
      <contour>
        <pt x="2560" y="2560" on="1"/>
        <pt x="2560" y="3072" on="1"/>
        <pt x="3584" y="3072" on="1"/>
        <pt x="3584" y="2560" on="1"/>
      </contour>
    </TTGlyph>
    <TTGlyph name="uniFEF3" xMin="0" yMin="512" xMax="1536" yMax="3584">
      <contour>
        <pt x="0" y="512" on="1"/>
        <pt x="0" y="1024" on="1"/>
        <pt x="1536" y="1024" on="1"/>
        <pt x="1536" y="512" on="1"/>
      </contour>
      <contour>
        <pt x="0" y="1536" on="1"/>
        <pt x="0" y="2048" on="1"/>
        <pt x="1024" y="2048" on="1"/>
        <pt x="1024" y="1536" on="1"/>
      </contour>
      <contour>
        <pt x="1024" y="2048" on="1"/>
        <pt x="1024" y="3584" on="1"/>
        <pt x="1536" y="3584" on="1"/>
        <pt x="1536" y="2048" on="1"/>
      </contour>
    </TTGlyph>
    <TTGlyph name="uniFEF4" xMin="0" yMin="512" xMax="2560" yMax="3584">
      <contour>
        <pt x="512" y="512" on="1"/>
        <pt x="512" y="1024" on="1"/>
        <pt x="2048" y="1024" on="1"/>
        <pt x="2048" y="512" on="1"/>
      </contour>
      <contour>
        <pt x="0" y="1536" on="1"/>
        <pt x="0" y="2048" on="1"/>
        <pt x="1024" y="2048" on="1"/>
        <pt x="1024" y="3584" on="1"/>
        <pt x="1536" y="3584" on="1"/>
        <pt x="1536" y="2048" on="1"/>
        <pt x="2560" y="2048" on="1"/>
        <pt x="2560" y="1536" on="1"/>
      </contour>
    </TTGlyph>
    <TTGlyph name="uniFEF5" xMin="0" yMin="1536" xMax="3584" yMax="5120">
      <contour>
        <pt x="0" y="1536" on="1"/>
        <pt x="0" y="2048" on="1"/>
        <pt x="1536" y="2048" on="1"/>
        <pt x="1536" y="3072" on="1"/>
        <pt x="2048" y="3072" on="1"/>
        <pt x="2048" y="2048" on="1"/>
        <pt x="3072" y="2048" on="1"/>
        <pt x="3072" y="1536" on="1"/>
      </contour>
      <contour>
        <pt x="1024" y="3072" on="1"/>
        <pt x="1024" y="4096" on="1"/>
        <pt x="1536" y="4096" on="1"/>
        <pt x="1536" y="3072" on="1"/>
      </contour>
      <contour>
        <pt x="3072" y="2048" on="1"/>
        <pt x="3072" y="4608" on="1"/>
        <pt x="3584" y="4608" on="1"/>
        <pt x="3584" y="2048" on="1"/>
      </contour>
      <contour>
        <pt x="512" y="4608" on="1"/>
        <pt x="512" y="5120" on="1"/>
        <pt x="2048" y="5120" on="1"/>
        <pt x="2048" y="4608" on="1"/>
      </contour>
    </TTGlyph>
    <TTGlyph name="uniFEF6" xMin="0" yMin="1536" xMax="4096" yMax="5120">
      <contour>
        <pt x="1024" y="3072" on="1"/>
        <pt x="1024" y="4096" on="1"/>
        <pt x="1536" y="4096" on="1"/>
        <pt x="1536" y="3072" on="1"/>
      </contour>
      <contour>
        <pt x="0" y="1536" on="1"/>
        <pt x="0" y="2048" on="1"/>
        <pt x="1536" y="2048" on="1"/>
        <pt x="1536" y="3072" on="1"/>
        <pt x="2048" y="3072" on="1"/>
        <pt x="2048" y="2048" on="1"/>
        <pt x="3072" y="2048" on="1"/>
        <pt x="3072" y="4608" on="1"/>
        <pt x="3584" y="4608" on="1"/>
        <pt x="3584" y="2048" on="1"/>
        <pt x="4096" y="2048" on="1"/>
        <pt x="4096" y="1536" on="1"/>
      </contour>
      <contour>
        <pt x="512" y="4608" on="1"/>
        <pt x="512" y="5120" on="1"/>
        <pt x="2048" y="5120" on="1"/>
        <pt x="2048" y="4608" on="1"/>
      </contour>
    </TTGlyph>
</ttFont>
